<?xml version="1.0" encoding="UTF-8"?>
<svg version="1.1" xmlns="http://www.w3.org/2000/svg" width="1024" height="1024">
<path d="M0 0 C337.92 0 675.84 0 1024 0 C1024 337.92 1024 675.84 1024 1024 C686.08 1024 348.16 1024 0 1024 C0 686.08 0 348.16 0 0 Z " fill="#000000" transform="translate(0,0)"/>
<path d="M0 0 C122.1 0 244.2 0 370 0 C370 10.56 370 21.12 370 32 C253.84 32 137.68 32 18 32 C18 32.99 18 33.98 18 35 C16.78441406 35.12117188 15.56882812 35.24234375 14.31640625 35.3671875 C12.73171883 35.53597078 11.1470861 35.70526816 9.5625 35.875 C8.76005859 35.95363281 7.95761719 36.03226563 7.13085938 36.11328125 C5.07829006 36.33845763 3.03706991 36.66222587 1 37 C0.505 37.99 0.505 37.99 0 39 C-2.04033535 39.19431765 -4.08067656 39.38857488 -6.12109375 39.58203125 C-8.22621522 39.8328496 -8.22621522 39.8328496 -9.5 42.0625 C-9.665 42.701875 -9.83 43.34125 -10 44 C-10.66 44 -11.32 44 -12 44 C-12.0928125 44.928125 -12.0928125 44.928125 -12.1875 45.875 C-12.455625 46.57625 -12.72375 47.2775 -13 48 C-14.66072849 48.68132451 -16.327767 49.34742127 -18 50 C-19.34410262 52.01735205 -19.34410262 52.01735205 -20 54 C-20.66 54 -21.32 54 -22 54 C-22 55.32 -22 56.64 -22 58 C-22.66 58 -23.32 58 -24 58 C-24 59.32 -24 60.64 -24 62 C-24.66 62 -25.32 62 -26 62 C-26 63.98 -26 65.96 -26 68 C-26.66 68 -27.32 68 -28 68 C-28 72.29 -28 76.58 -28 81 C-28.66 81 -29.32 81 -30 81 C-30 218.28 -30 355.56 -30 497 C223.44 497 476.88 497 738 497 C738 433.31 738 369.62 738 304 C748.56 304 759.12 304 770 304 C770 399.7 770 495.4 770 594 C769.34 594 768.68 594 768 594 C768 596.64 768 599.28 768 602 C767.34 602 766.68 602 766 602 C766.04125 602.886875 766.0825 603.77375 766.125 604.6875 C766.00102754 607.97277013 765.38612096 610.05449295 764 613 C763.34 613 762.68 613 762 613 C762 613.99 762 614.98 762 616 C761.34 616 760.68 616 760 616 C760 616.66 760 617.32 760 618 C759.34 618 758.68 618 758 618 C757.87625 618.969375 757.7525 619.93875 757.625 620.9375 C757.41875 621.948125 757.2125 622.95875 757 624 C756.34 624.33 755.68 624.66 755 625 C754.505 625.845625 754.01 626.69125 753.5 627.5625 C753.005 628.366875 752.51 629.17125 752 630 C751.34 630 750.68 630 750 630 C749.7525 630.5775 749.505 631.155 749.25 631.75 C747.81700012 634.32939979 746.21575324 636.06121592 744 638 C743.34 638 742.68 638 742 638 C742 638.99 742 639.98 742 641 C740.35 641 738.7 641 737 641 C736.67 641.99 736.34 642.98 736 644 C734.68 644 733.36 644 732 644 C732 644.66 732 645.32 732 646 C724.29776903 651.60162253 717.47069808 654.3265758 708 654 C708 654.66 708 655.32 708 656 C636.72 656 565.44 656 492 656 C492 657.32 492 658.64 492 660 C492.66 660 493.32 660 494 660 C494 661.32 494 662.64 494 664 C494.66 664 495.32 664 496 664 C496 665.32 496 666.64 496 668 C496.66 668 497.32 668 498 668 C498 669.98 498 671.96 498 674 C498.66 674 499.32 674 500 674 C500 675.32 500 676.64 500 678 C500.66 678 501.32 678 502 678 C502 679.32 502 680.64 502 682 C502.66 682 503.32 682 504 682 C505.19287411 685.87684087 506 688.91621923 506 693 C506.66 693 507.32 693 508 693 C508 694.32 508 695.64 508 697 C508.66 697 509.32 697 510 697 C510 698.98 510 700.96 510 703 C510.66 703 511.32 703 512 703 C512 703.99 512 704.98 512 706 C512.66 706 513.32 706 514 706 C514 707.32 514 708.64 514 710 C514.66 710 515.32 710 516 710 C516.66 713.3 517.32 716.6 518 720 C518.66 720 519.32 720 520 720 C520 721.32 520 722.64 520 724 C520.66 724 521.32 724 522 724 C522 725.98 522 727.96 522 730 C522.66 730 523.32 730 524 730 C524.66 731.98 525.32 733.96 526 736 C553.06 736 580.12 736 608 736 C608 736.66 608 737.32 608 738 C609.98 738 611.96 738 614 738 C614 738.66 614 739.32 614 740 C615.32 740 616.64 740 618 740 C618 740.66 618 741.32 618 742 C619.32 742 620.64 742 622 742 C623.37868281 743.62935241 624.71274093 745.29749607 626 747 C626.99 747.33 627.98 747.66 629 748 C629.309375 748.804375 629.61875 749.60875 629.9375 750.4375 C630.75849261 753.11806696 630.75849261 753.11806696 633 754.25 C633.66 754.4975 634.32 754.745 635 755 C637 756 637 756 637.8515625 757.890625 C640.41509434 765.71069182 640.41509434 765.71069182 640 770 C640.66 770 641.32 770 642 770 C642 779.24 642 788.48 642 798 C641.34 798 640.68 798 640 798 C640.061875 799.36125 640.061875 799.36125 640.125 800.75 C640.00468444 803.8782046 639.6085292 805.38614006 638 808 C637.34 808 636.68 808 636 808 C636 809.32 636 810.64 636 812 C633.9375 814.3125 633.9375 814.3125 631 817 C629.74329518 818.2223108 628.49346691 819.45172464 627.25 820.6875 C626.65703125 821.26886719 626.0640625 821.85023438 625.453125 822.44921875 C623.90358196 823.95513974 623.90358196 823.95513974 623 826 C621.35 826 619.7 826 618 826 C618 826.66 618 827.32 618 828 C614.5980513 830.09350689 611.94727588 830.17942163 608 830 C608 830.66 608 831.32 608 832 C440.36 832 272.72 832 100 832 C100 831.34 100 830.68 100 830 C98.02 830 96.04 830 94 830 C94 829.34 94 828.68 94 828 C92.68 828 91.36 828 90 828 C90 827.34 90 826.68 90 826 C89.236875 825.896875 88.47375 825.79375 87.6875 825.6875 C84.81583516 824.95288806 83.76957906 824.3283935 82 822 C82 821.34 82 820.68 82 820 C81.4225 819.7525 80.845 819.505 80.25 819.25 C77.67060021 817.81700012 75.93878408 816.21575324 74 814 C74 813.34 74 812.68 74 812 C73.34 812 72.68 812 72 812 C70.23537317 808.91190305 70 807.76687864 70 804 C69.34 804 68.68 804 68 804 C68 802.02 68 800.04 68 798 C67.34 798 66.68 798 66 798 C66 788.76 66 779.52 66 770 C66.66 770 67.32 770 68 770 C68 768.02 68 766.04 68 764 C68.66 764 69.32 764 70 764 C70 762.68 70 761.36 70 760 C70.66 760 71.32 760 72 760 C72 758.68 72 757.36 72 756 C72.66 756 73.32 756 74 756 C74.22945312 755.44828125 74.45890625 754.8965625 74.6953125 754.328125 C76.3708231 751.33829171 78.47119367 749.18947111 80.875 746.75 C81.73867187 745.85796875 82.60234375 744.9659375 83.4921875 744.046875 C86 742 86 742 90 742 C90 741.34 90 740.68 90 740 C91.32 740 92.64 740 94 740 C94 739.34 94 738.68 94 738 C95.98 738 97.96 738 100 738 C100 737.34 100 736.68 100 736 C127.39 736 154.78 736 183 736 C183.99 732.04 184.98 728.08 186 724 C186.66 724 187.32 724 188 724 C188 722.68 188 721.36 188 720 C188.66 720 189.32 720 190 720 C190 718.68 190 717.36 190 716 C190.66 716 191.32 716 192 716 C191.95875 715.0925 191.9175 714.185 191.875 713.25 C191.99531556 710.1217954 192.3914708 708.61385994 194 706 C194.66 706 195.32 706 196 706 C196 704.68 196 703.36 196 702 C196.66 702 197.32 702 198 702 C198 700.35 198 698.7 198 697 C198.66 697 199.32 697 200 697 C200 695.35 200 693.7 200 692 C200.66 692 201.32 692 202 692 C202 690.68 202 689.36 202 688 C202.66 688 203.32 688 204 688 C204 686.02 204 684.04 204 682 C204.66 682 205.32 682 206 682 C206 680.68 206 679.36 206 678 C206.66 678 207.32 678 208 678 C208 676.68 208 675.36 208 674 C208.66 674 209.32 674 210 674 C210 672.02 210 670.04 210 668 C210.66 668 211.32 668 212 668 C212 666.68 212 665.36 212 664 C212.66 664 213.32 664 214 664 C214 662.68 214 661.36 214 660 C214.66 660 215.32 660 216 660 C216 658.68 216 657.36 216 656 C144.72 656 73.44 656 0 656 C0 655.34 0 654.68 0 654 C-2.64 654 -5.28 654 -8 654 C-8 653.34 -8 652.68 -8 652 C-8.721875 651.855625 -9.44375 651.71125 -10.1875 651.5625 C-12.79166667 651.04166667 -15.39583333 650.52083333 -18 650 C-18 649.34 -18 648.68 -18 648 C-19.0828125 647.814375 -19.0828125 647.814375 -20.1875 647.625 C-24.79084373 646.60203473 -27.3230148 646.0154778 -30 642 C-30.63035156 641.85046875 -31.26070312 641.7009375 -31.91015625 641.546875 C-34.7177688 640.81217265 -35.62227151 639.48025764 -37.4375 637.25 C-39.50433676 634.75554184 -41.54103097 632.42860821 -43.9375 630.25 C-46 628 -46 628 -46 624 C-46.66 624 -47.32 624 -48 624 C-48 623.34 -48 622.68 -48 622 C-48.66 622 -49.32 622 -50 622 C-50.28875 621.195625 -50.5775 620.39125 -50.875 619.5625 C-51.73262568 616.8673532 -51.73262568 616.8673532 -54 616 C-54 615.01 -54 614.02 -54 613 C-54.66 613 -55.32 613 -56 613 C-56.20496094 612.28972656 -56.40992187 611.57945312 -56.62109375 610.84765625 C-56.89050781 609.92855469 -57.15992187 609.00945313 -57.4375 608.0625 C-57.83775391 606.68771484 -57.83775391 606.68771484 -58.24609375 605.28515625 C-58.79026051 603.0597507 -58.79026051 603.0597507 -60 602 C-60.14115161 599.32941149 -60.04247107 596.67567762 -60 594 C-60.66 594 -61.32 594 -62 594 C-62 418.77 -62 243.54 -62 63 C-61.34 63 -60.68 63 -60 63 C-60 60.03 -60 57.06 -60 54 C-59.34 54 -58.68 54 -58 54 C-58 52.02 -58 50.04 -58 48 C-57.34 48 -56.68 48 -56 48 C-56 46.68 -56 45.36 -56 44 C-55.34 44 -54.68 44 -54 44 C-53.67 42.35 -53.34 40.7 -53 39 C-52.01 39 -51.02 39 -50 39 C-50.061875 38.21625 -50.12375 37.4325 -50.1875 36.625 C-50.125625 35.75875 -50.06375 34.8925 -50 34 C-49.01 33.34 -48.02 32.68 -47 32 C-46.896875 31.401875 -46.79375 30.80375 -46.6875 30.1875 C-45.78443213 27.31410223 -44.01119716 26.22534602 -41.68359375 24.43359375 C-39.27187482 22.3799955 -37.41882432 19.95666437 -35.4921875 17.453125 C-33.70447167 15.71220801 -32.37868986 15.59228422 -30 15 C-29.34 14.01 -28.68 13.02 -28 12 C-26.34183216 11.31246699 -24.67540664 10.64438717 -23 10 C-22.67 9.34 -22.34 8.68 -22 8 C-20.68 8 -19.36 8 -18 8 C-18 7.34 -18 6.68 -18 6 C-14.38026598 4.68373308 -11.90432869 4 -8 4 C-8 3.34 -8 2.68 -8 2 C-5.36 2 -2.72 2 0 2 C0 1.34 0 0.68 0 0 Z " fill="#764E51" transform="translate(158,161)"/>
<path d="M0 0 C5.28 0 10.56 0 16 0 C16 0.66 16 1.32 16 2 C17.32 2 18.64 2 20 2 C20 2.99 20 3.98 20 5 C20.61875 5.061875 21.2375 5.12375 21.875 5.1875 C22.57625 5.455625 23.2775 5.72375 24 6 C24.268125 6.74765625 24.53625 7.4953125 24.8125 8.265625 C26.69672213 12.60429438 30.28276492 14.87415773 33.8828125 17.81640625 C36 20 36 20 36 24 C36.99 24.33 37.98 24.66 39 25 C39 25.66 39 26.32 39 27 C39.66 27 40.32 27 41 27 C41 27.99 41 28.98 41 30 C41.598125 30.268125 42.19625 30.53625 42.8125 30.8125 C45.04237457 32.02300334 46.45490692 32.991379 48 35 C48 36.32 48 37.64 48 39 C57.9 39 67.8 39 78 39 C78.66 37.68 79.32 36.36 80 35 C80.66 35 81.32 35 82 35 C81.87625 34.278125 81.7525 33.55625 81.625 32.8125 C82.05361506 29.59788706 82.50052482 29.20465124 84.875 27.1875 C88 25 88 25 90 25 C90.33 24.01 90.66 23.02 91 22 C91.66 22 92.32 22 93 22 C93.3403125 21.1646875 93.3403125 21.1646875 93.6875 20.3125 C95.36718835 17.3530491 97.54133285 15.33873216 100 13 C100.556875 12.401875 101.11375 11.80375 101.6875 11.1875 C103 10 103 10 105 10 C105.33 8.68 105.66 7.36 106 6 C106.66 6 107.32 6 108 6 C108 5.34 108 4.68 108 4 C109.32 4 110.64 4 112 4 C112 3.34 112 2.68 112 2 C116.29 2 120.58 2 125 2 C125 2.99 125 3.98 125 5 C127.97 5.33 130.94 5.66 134 6 C134 6.66 134 7.32 134 8 C135.32 8 136.64 8 138 8 C138 8.66 138 9.32 138 10 C139.32 10 140.64 10 142 10 C142 10.66 142 11.32 142 12 C143.32 12 144.64 12 146 12 C146.33 12.66 146.66 13.32 147 14 C149.52733235 14.65555119 149.52733235 14.65555119 152 15 C152 15.66 152 16.32 152 17 C155.96 17.495 155.96 17.495 160 18 C160 18.66 160 19.32 160 20 C161.32 20 162.64 20 164 20 C164 20.66 164 21.32 164 22 C165.98 22 167.96 22 170 22 C170 22.66 170 23.32 170 24 C170.7425 24.12375 171.485 24.2475 172.25 24.375 C176.22158111 25.27763207 179.57823736 26.60953231 182 30 C182.1875 33.1875 182.1875 33.1875 182 36 C182.66 36 183.32 36 184 36 C184 41.28 184 46.56 184 52 C183.34 52 182.68 52 182 52 C182 60.58 182 69.16 182 78 C181.34 78 180.68 78 180 78 C180 80.97 180 83.94 180 87 C180.99 87 181.98 87 183 87 C187 91.34285714 187 91.34285714 187 94 C187.86625 94.0928125 187.86625 94.0928125 188.75 94.1875 C191.92448483 95.33384174 193.12848575 97.25956842 195 100 C195 100.66 195 101.32 195 102 C195.99 102 196.98 102 198 102 C198 102.66 198 103.32 198 104 C215.16 104 232.32 104 250 104 C250 104.66 250 105.32 250 106 C251.65 106 253.3 106 255 106 C255.33 106.99 255.66 107.98 256 109 C256.66 109.33 257.32 109.66 258 110 C258 111.98 258 113.96 258 116 C258.66 116 259.32 116 260 116 C260 117.65 260 119.3 260 121 C260.66 121 261.32 121 262 121 C263.31626692 124.61973402 264 127.09567131 264 131 C264.66 131 265.32 131 266 131 C267.42258812 134.82320557 268.24042276 137.91281305 268 142 C268.66 142 269.32 142 270 142 C270.48212214 143.56159059 270.96055873 145.12431928 271.4375 146.6875 C271.83775391 147.99267578 271.83775391 147.99267578 272.24609375 149.32421875 C272.96344529 151.87025921 273.517541 154.4003423 274 157 C274.66 157 275.32 157 276 157 C277.99118241 161.97011673 278.24845695 166.12333135 278.125 171.375 C278.11597656 172.11105469 278.10695313 172.84710938 278.09765625 173.60546875 C278.07430144 175.4037888 278.03843836 177.20193911 278 179 C277.34 179 276.68 179 276 179 C275.896875 179.598125 275.79375 180.19625 275.6875 180.8125 C274.32570877 185.14547208 270.85823998 186.92248617 267 189 C266.34 189 265.68 189 265 189 C264.773125 189.556875 264.54625 190.11375 264.3125 190.6875 C262.60151785 193.70208759 260.627627 195.74774829 258 198 C256.68 198 255.36 198 254 198 C254 198.66 254 199.32 254 200 C253.34 200 252.68 200 252 200 C251.7525 200.5775 251.505 201.155 251.25 201.75 C249.81700012 204.32939979 248.21575324 206.06121592 246 208 C245.34 208 244.68 208 244 208 C244 208.66 244 209.32 244 210 C242.68 210 241.36 210 240 210 C240 220.23 240 230.46 240 241 C241.32 241.66 242.64 242.32 244 243 C248.1999265 245.59144401 251.70209181 248.31410262 255 252 C255 252.66 255 253.32 255 254 C255.61875 254.061875 256.2375 254.12375 256.875 254.1875 C257.57625 254.455625 258.2775 254.72375 259 255 C259.68132451 256.66072849 260.34742127 258.327767 261 260 C262.84971696 261.05021103 262.84971696 261.05021103 265 262 C269.77777778 266.33333333 269.77777778 266.33333333 271 270 C271.99 270 272.98 270 274 270 C274 271.32 274 272.64 274 274 C274.66 274 275.32 274 276 274 C276 278.29 276 282.58 276 287 C275.34 287 274.68 287 274 287 C274 288.32 274 289.64 274 291 C273.34 291 272.68 291 272 291 C272 292.65 272 294.3 272 296 C271.34 296 270.68 296 270 296 C270 297.32 270 298.64 270 300 C269.34 300 268.68 300 268 300 C268 301.32 268 302.64 268 304 C267.34 304 266.68 304 266 304 C265.855625 304.721875 265.71125 305.44375 265.5625 306.1875 C265.04166667 308.79166667 264.52083333 311.39583333 264 314 C263.34 314 262.68 314 262 314 C262 315.32 262 316.64 262 318 C261.34 318 260.68 318 260 318 C260 319.32 260 320.64 260 322 C259.34 322 258.68 322 258 322 C258 323.32 258 324.64 258 326 C257.34 326 256.68 326 256 326 C256 327.98 256 329.96 256 332 C255.34 332 254.68 332 254 332 C254 333.65 254 335.3 254 337 C253.34 337 252.68 337 252 337 C252 338.32 252 339.64 252 341 C251.01 341.33 250.02 341.66 249 342 C248.67 342.66 248.34 343.32 248 344 C246.02 344 244.04 344 242 344 C242 344.66 242 345.32 242 346 C236.72 346 231.44 346 226 346 C226 345.34 226 344.68 226 344 C217.42 344 208.84 344 200 344 C200 343.34 200 342.68 200 342 C197.36 342 194.72 342 192 342 C191.731875 342.598125 191.46375 343.19625 191.1875 343.8125 C190.00082594 345.99847854 188.90400887 347.41332594 187 349 C186.34 349 185.68 349 185 349 C184.7421875 349.57234375 184.484375 350.1446875 184.21875 350.734375 C182.88634058 353.21128995 181.34943882 355.1341166 179.5 357.25 C178.8915625 357.95640625 178.283125 358.6628125 177.65625 359.390625 C176 361 176 361 174 361 C174 378.16 174 395.32 174 413 C173.34 413 172.68 413 172 413 C171.67 414.32 171.34 415.64 171 417 C169.68 417.33 168.36 417.66 167 418 C167 418.66 167 419.32 167 420 C163.62902617 421.49821059 161.79557881 422 158 422 C158 422.66 158 423.32 158 424 C156.02 424 154.04 424 152 424 C152 424.66 152 425.32 152 426 C150.68 426 149.36 426 148 426 C148 426.99 148 427.98 148 429 C144.04 429.33 140.08 429.66 136 430 C136 430.66 136 431.32 136 432 C134.68 432 133.36 432 132 432 C132 432.66 132 433.32 132 434 C128.38026598 435.31626692 125.90432869 436 122 436 C122 436.66 122 437.32 122 438 C120.02 438 118.04 438 116 438 C116 438.66 116 439.32 116 440 C113.60385874 440.05425226 111.20896147 440.09379027 108.8125 440.125 C108.13896484 440.14175781 107.46542969 440.15851563 106.77148438 440.17578125 C102.71192193 440.21538674 99.65001185 439.80020002 96 438 C96 437.34 96 436.68 96 436 C95.401875 435.773125 94.80375 435.54625 94.1875 435.3125 C91.38957076 433.63374245 90.68071328 431.8011888 89 429 C84.96383139 424.4155943 84.96383139 424.4155943 80 421 C80 419.68 80 418.36 80 417 C79.34 417 78.68 417 78 417 C76.2734375 415.3203125 76.2734375 415.3203125 74.375 413.125 C73.74335937 412.40570313 73.11171875 411.68640625 72.4609375 410.9453125 C71 409 71 409 71 407 C70.34 407 69.68 407 69 407 C68.67 405.68 68.34 404.36 68 403 C58.1 402.67 48.2 402.34 38 402 C37.34 403.32 36.68 404.64 36 406 C35.34 406 34.68 406 34 406 C34 407.32 34 408.64 34 410 C33.34 410 32.68 410 32 410 C31.6596875 410.8353125 31.6596875 410.8353125 31.3125 411.6875 C29.62449964 414.66159588 27.53323483 416.72008865 25 419 C24.34 419 23.68 419 23 419 C23 419.66 23 420.32 23 421 C22.34 421 21.68 421 21 421 C20.74347656 421.58523438 20.48695313 422.17046875 20.22265625 422.7734375 C18.89437838 425.19234608 17.43475199 426.73198872 15.4375 428.625 C12.85984611 431.04521959 12.85984611 431.04521959 11 434 C10.34 434 9.68 434 9 434 C9 434.99 9 435.98 9 437 C7.35 437 5.7 437 4 437 C4 437.66 4 438.32 4 439 C0.04 439 -3.92 439 -8 439 C-8 438.01 -8 437.02 -8 436 C-11.3 435.67 -14.6 435.34 -18 435 C-18 434.01 -18 433.02 -18 432 C-20.64 431.67 -23.28 431.34 -26 431 C-26 430.01 -26 429.02 -26 428 C-27.32 428 -28.64 428 -30 428 C-30 427.34 -30 426.68 -30 426 C-31.65 426 -33.3 426 -35 426 C-35 425.34 -35 424.68 -35 424 C-36.65 424 -38.3 424 -40 424 C-40 423.34 -40 422.68 -40 422 C-41.32 422 -42.64 422 -44 422 C-44 421.34 -44 420.68 -44 420 C-47.3 419.67 -50.6 419.34 -54 419 C-54 418.34 -54 417.68 -54 417 C-55.32 417 -56.64 417 -58 417 C-58 416.34 -58 415.68 -58 415 C-59.32 415 -60.64 415 -62 415 C-65.29449238 412.38378546 -66.78992307 409.99113094 -68 406 C-68.23451309 402.89070492 -68.18893871 399.80328241 -68.125 396.6875 C-68.11597656 395.85154297 -68.10695313 395.01558594 -68.09765625 394.15429688 C-68.07420989 392.10274031 -68.03834266 390.05133223 -68 388 C-67.34 388 -66.68 388 -66 388 C-66 379.42 -66 370.84 -66 362 C-65.34 362 -64.68 362 -64 362 C-64 359.36 -64 356.72 -64 354 C-65.32 353.34 -66.64 352.68 -68 352 C-68 351.34 -68 350.68 -68 350 C-68.66 350 -69.32 350 -70 350 C-70 349.34 -70 348.68 -70 348 C-70.61875 347.938125 -71.2375 347.87625 -71.875 347.8125 C-72.57625 347.544375 -73.2775 347.27625 -74 347 C-74.66666667 345.33333333 -75.33333333 343.66666667 -76 342 C-78.04105639 341.11306697 -78.04105639 341.11306697 -80 341 C-80 340.34 -80 339.68 -80 339 C-80.66 339 -81.32 339 -82 339 C-82 338.34 -82 337.68 -82 337 C-99.16 337 -116.32 337 -134 337 C-134 336.34 -134 335.68 -134 335 C-135.32 335 -136.64 335 -138 335 C-138 334.34 -138 333.68 -138 333 C-138.66 333 -139.32 333 -140 333 C-140 332.34 -140 331.68 -140 331 C-140.66 331 -141.32 331 -142 331 C-142 329.02 -142 327.04 -142 325 C-142.66 325 -143.32 325 -144 325 C-144.48212214 323.43840941 -144.96055873 321.87568072 -145.4375 320.3125 C-145.70433594 319.44238281 -145.97117187 318.57226562 -146.24609375 317.67578125 C-146.96344529 315.12974079 -147.517541 312.5996577 -148 310 C-148.66 310 -149.32 310 -150 310 C-150 308.02 -150 306.04 -150 304 C-150.66 304 -151.32 304 -152 304 C-152 302.35 -152 300.7 -152 299 C-152.66 299 -153.32 299 -154 299 C-154.48212214 297.43840941 -154.96055873 295.87568072 -155.4375 294.3125 C-155.70433594 293.44238281 -155.97117187 292.57226562 -156.24609375 291.67578125 C-156.96344529 289.12974079 -157.517541 286.5996577 -158 284 C-158.66 284 -159.32 284 -160 284 C-161.99118241 279.02988327 -162.24845695 274.87666865 -162.125 269.625 C-162.11597656 268.88894531 -162.10695313 268.15289062 -162.09765625 267.39453125 C-162.07430144 265.5962112 -162.03843836 263.79806089 -162 262 C-161.34 262 -160.68 262 -160 262 C-159.87625 261.401875 -159.7525 260.80375 -159.625 260.1875 C-159 258 -159 258 -157 255 C-154.375 254.8125 -154.375 254.8125 -152 255 C-151.79375 254.46375 -151.5875 253.9275 -151.375 253.375 C-149.46749574 250.08021991 -146.95180616 247.40636372 -144 245 C-143.34 245 -142.68 245 -142 245 C-142 244.01 -142 243.02 -142 242 C-140.88625 241.7525 -139.7725 241.505 -138.625 241.25 C-135.01779142 240.42454566 -135.01779142 240.42454566 -133.875 238.25 C-133.58625 237.5075 -133.2975 236.765 -133 236 C-131.47833255 233.75057855 -129.89760185 231.98796384 -128 230 C-126.68 230 -125.36 230 -124 230 C-124 220.1 -124 210.2 -124 200 C-124.66 200 -125.32 200 -126 200 C-126.66 199.01 -127.32 198.02 -128 197 C-130.05925139 196.27617533 -130.05925139 196.27617533 -132 196 C-132 195.34 -132 194.68 -132 194 C-133.32 193.34 -134.64 192.68 -136 192 C-136 191.34 -136 190.68 -136 190 C-137.32 189.34 -138.64 188.68 -140 188 C-140 187.34 -140 186.68 -140 186 C-141.32 185.34 -142.64 184.68 -144 184 C-144 183.34 -144 182.68 -144 182 C-145.32 181.34 -146.64 180.68 -148 180 C-148 179.34 -148 178.68 -148 178 C-148.5775 177.731875 -149.155 177.46375 -149.75 177.1875 C-152.05550043 175.97070811 -154.02056192 174.69666121 -156 173 C-156 172.34 -156 171.68 -156 171 C-156.66 171 -157.32 171 -158 171 C-158 169.68 -158 168.36 -158 167 C-158.66 167 -159.32 167 -160 167 C-160 162.71 -160 158.42 -160 154 C-159.34 154 -158.68 154 -158 154 C-157.34 151.03 -156.68 148.06 -156 145 C-155.34 145 -154.68 145 -154 145 C-154 143.68 -154 142.36 -154 141 C-153.34 141 -152.68 141 -152 141 C-152 139.68 -152 138.36 -152 137 C-151.34 137 -150.68 137 -150 137 C-150 135.68 -150 134.36 -150 133 C-149.34 133 -148.68 133 -148 133 C-148 131.02 -148 129.04 -148 127 C-147.34 127 -146.68 127 -146 127 C-146 125.68 -146 124.36 -146 123 C-145.34 123 -144.68 123 -144 123 C-144 121.68 -144 120.36 -144 119 C-143.34 119 -142.68 119 -142 119 C-142 117.68 -142 116.36 -142 115 C-141.34 115 -140.68 115 -140 115 C-140 113.02 -140 111.04 -140 109 C-139.34 109 -138.68 109 -138 109 C-138 107.35 -138 105.7 -138 104 C-137.34 104 -136.68 104 -136 104 C-135.896875 103.236875 -135.79375 102.47375 -135.6875 101.6875 C-134.94460116 98.78344089 -134.43006017 97.71004234 -132 96 C-130.68 96 -129.36 96 -128 96 C-128 95.34 -128 94.68 -128 94 C-122.06 94 -116.12 94 -110 94 C-110 94.66 -110 95.32 -110 96 C-101.42 96 -92.84 96 -84 96 C-84 96.66 -84 97.32 -84 98 C-78.04985165 97.78854058 -78.04985165 97.78854058 -73.25 94.5625 C-72.5075 93.716875 -71.765 92.87125 -71 92 C-70.278125 91.649375 -69.55625 91.29875 -68.8125 90.9375 C-66.42469435 89.70242811 -66.16389103 88.39624623 -65 86 C-62.5 83.25 -62.5 83.25 -60 81 C-59.34 81 -58.68 81 -58 81 C-58 63.51 -58 46.02 -58 28 C-57.34 28 -56.68 28 -56 28 C-55.67 26.35 -55.34 24.7 -55 23 C-54.01 23 -53.02 23 -52 23 C-52 22.01 -52 21.02 -52 20 C-48.7 19.67 -45.4 19.34 -42 19 C-42 18.01 -42 17.02 -42 16 C-40.02 16 -38.04 16 -36 16 C-36 15.34 -36 14.68 -36 14 C-32.49223216 12.39644899 -29.85645121 11.77963136 -26 12 C-26 11.34 -26 10.68 -26 10 C-24.02 10 -22.04 10 -20 10 C-20 9.34 -20 8.68 -20 8 C-18.68 8 -17.36 8 -16 8 C-16 7.34 -16 6.68 -16 6 C-14.02 6 -12.04 6 -10 6 C-10 5.34 -10 4.68 -10 4 C-5.05 3.505 -5.05 3.505 0 3 C0 2.01 0 1.02 0 0 Z " fill="#020101" transform="translate(710,37)"/>
<path d="M0 0 C253.44 0 506.88 0 768 0 C768 15.84 768 31.68 768 48 C767.34 48 766.68 48 766 48 C766 51.96 766 55.92 766 60 C765.34 60 764.68 60 764 60 C764 61.98 764 63.96 764 66 C763.34 66 762.68 66 762 66 C762 67.32 762 68.64 762 70 C761.34 70 760.68 70 760 70 C759.979375 70.70125 759.95875 71.4025 759.9375 72.125 C758.73281471 75.81936822 756.88167876 76.97367277 753.890625 79.3203125 C751.87022586 81.1152952 750.5580273 82.94420906 749.0625 85.1875 C746.05856013 89.37699481 743.02520342 91.01290647 738 92 C734.5 92.1875 734.5 92.1875 732 92 C732 92.66 732 93.32 732 94 C728.04 94 724.08 94 720 94 C720 94.66 720 95.32 720 96 C498.24 96 276.48 96 48 96 C48 95.34 48 94.68 48 94 C44.04 94 40.08 94 36 94 C36 93.34 36 92.68 36 92 C34.02 92 32.04 92 30 92 C30 91.34 30 90.68 30 90 C28.68 90 27.36 90 26 90 C26 89.34 26 88.68 26 88 C25.278125 87.938125 24.55625 87.87625 23.8125 87.8125 C20.11600926 86.7446249 18.46861132 84.89180184 16 82 C16 81.34 16 80.68 16 80 C15.01 80 14.02 80 13 80 C11.61328125 78.57421875 11.61328125 78.57421875 10.3125 76.6875 C9.87550781 76.07261719 9.43851563 75.45773437 8.98828125 74.82421875 C8 73 8 73 8 70 C7.34 70 6.68 70 6 70 C4.39644899 66.49223216 3.77963136 63.85645121 4 60 C3.34 60 2.68 60 2 60 C2 56.04 2 52.08 2 48 C1.34 48 0.68 48 0 48 C0 32.16 0 16.32 0 0 Z " fill="#000000" transform="translate(128,689)"/>
<path d="M0 0 C5.28 0 10.56 0 16 0 C16 0.66 16 1.32 16 2 C17.32 2 18.64 2 20 2 C20 2.99 20 3.98 20 5 C20.61875 5.061875 21.2375 5.12375 21.875 5.1875 C22.57625 5.455625 23.2775 5.72375 24 6 C24.268125 6.74765625 24.53625 7.4953125 24.8125 8.265625 C26.69672213 12.60429438 30.28276492 14.87415773 33.8828125 17.81640625 C36 20 36 20 36 24 C36.99 24.33 37.98 24.66 39 25 C39 25.66 39 26.32 39 27 C39.66 27 40.32 27 41 27 C41 27.99 41 28.98 41 30 C41.598125 30.268125 42.19625 30.53625 42.8125 30.8125 C45.04237457 32.02300334 46.45490692 32.991379 48 35 C48 36.32 48 37.64 48 39 C57.9 39 67.8 39 78 39 C78.66 37.68 79.32 36.36 80 35 C80.66 35 81.32 35 82 35 C81.87625 34.278125 81.7525 33.55625 81.625 32.8125 C82.05361506 29.59788706 82.50052482 29.20465124 84.875 27.1875 C88 25 88 25 90 25 C90.33 24.01 90.66 23.02 91 22 C91.66 22 92.32 22 93 22 C93.3403125 21.1646875 93.3403125 21.1646875 93.6875 20.3125 C95.36718835 17.3530491 97.54133285 15.33873216 100 13 C100.556875 12.401875 101.11375 11.80375 101.6875 11.1875 C103 10 103 10 105 10 C105.33 8.68 105.66 7.36 106 6 C106.66 6 107.32 6 108 6 C108 5.34 108 4.68 108 4 C109.32 4 110.64 4 112 4 C112 3.34 112 2.68 112 2 C116.29 2 120.58 2 125 2 C125 2.99 125 3.98 125 5 C127.97 5.33 130.94 5.66 134 6 C134 6.66 134 7.32 134 8 C135.32 8 136.64 8 138 8 C138 8.66 138 9.32 138 10 C139.32 10 140.64 10 142 10 C142 10.66 142 11.32 142 12 C143.32 12 144.64 12 146 12 C146.33 12.66 146.66 13.32 147 14 C149.52733235 14.65555119 149.52733235 14.65555119 152 15 C152 15.66 152 16.32 152 17 C155.96 17.495 155.96 17.495 160 18 C160 18.66 160 19.32 160 20 C161.32 20 162.64 20 164 20 C164 20.66 164 21.32 164 22 C165.98 22 167.96 22 170 22 C170 22.66 170 23.32 170 24 C170.7425 24.12375 171.485 24.2475 172.25 24.375 C176.22158111 25.27763207 179.57823736 26.60953231 182 30 C182.1875 33.1875 182.1875 33.1875 182 36 C182.66 36 183.32 36 184 36 C184 41.28 184 46.56 184 52 C183.34 52 182.68 52 182 52 C182 60.58 182 69.16 182 78 C181.34 78 180.68 78 180 78 C180 80.97 180 83.94 180 87 C180.99 87 181.98 87 183 87 C187 91.34285714 187 91.34285714 187 94 C187.86625 94.0928125 187.86625 94.0928125 188.75 94.1875 C191.92448483 95.33384174 193.12848575 97.25956842 195 100 C195 100.66 195 101.32 195 102 C195.99 102 196.98 102 198 102 C198 102.66 198 103.32 198 104 C215.16 104 232.32 104 250 104 C250 104.66 250 105.32 250 106 C251.65 106 253.3 106 255 106 C255.33 106.99 255.66 107.98 256 109 C256.66 109.33 257.32 109.66 258 110 C258 111.98 258 113.96 258 116 C258.66 116 259.32 116 260 116 C260 117.65 260 119.3 260 121 C260.66 121 261.32 121 262 121 C263.31626692 124.61973402 264 127.09567131 264 131 C264.66 131 265.32 131 266 131 C267.42258812 134.82320557 268.24042276 137.91281305 268 142 C268.66 142 269.32 142 270 142 C270.48212214 143.56159059 270.96055873 145.12431928 271.4375 146.6875 C271.83775391 147.99267578 271.83775391 147.99267578 272.24609375 149.32421875 C272.96344529 151.87025921 273.517541 154.4003423 274 157 C274.66 157 275.32 157 276 157 C277.99118241 161.97011673 278.24845695 166.12333135 278.125 171.375 C278.11597656 172.11105469 278.10695313 172.84710938 278.09765625 173.60546875 C278.07430144 175.4037888 278.03843836 177.20193911 278 179 C277.34 179 276.68 179 276 179 C275.896875 179.598125 275.79375 180.19625 275.6875 180.8125 C274.32570877 185.14547208 270.85823998 186.92248617 267 189 C266.34 189 265.68 189 265 189 C264.773125 189.556875 264.54625 190.11375 264.3125 190.6875 C262.60151785 193.70208759 260.627627 195.74774829 258 198 C256.68 198 255.36 198 254 198 C254 198.66 254 199.32 254 200 C253.34 200 252.68 200 252 200 C251.7525 200.5775 251.505 201.155 251.25 201.75 C249.81700012 204.32939979 248.21575324 206.06121592 246 208 C245.34 208 244.68 208 244 208 C244 208.66 244 209.32 244 210 C242.68 210 241.36 210 240 210 C240 220.23 240 230.46 240 241 C241.32 241.66 242.64 242.32 244 243 C248.1999265 245.59144401 251.70209181 248.31410262 255 252 C255 252.66 255 253.32 255 254 C255.61875 254.061875 256.2375 254.12375 256.875 254.1875 C257.57625 254.455625 258.2775 254.72375 259 255 C259.68132451 256.66072849 260.34742127 258.327767 261 260 C262.84971696 261.05021103 262.84971696 261.05021103 265 262 C269.77777778 266.33333333 269.77777778 266.33333333 271 270 C271.99 270 272.98 270 274 270 C274 271.32 274 272.64 274 274 C274.66 274 275.32 274 276 274 C276 278.29 276 282.58 276 287 C275.34 287 274.68 287 274 287 C274 288.32 274 289.64 274 291 C273.34 291 272.68 291 272 291 C272 292.65 272 294.3 272 296 C271.34 296 270.68 296 270 296 C270 297.32 270 298.64 270 300 C269.34 300 268.68 300 268 300 C268 301.32 268 302.64 268 304 C267.34 304 266.68 304 266 304 C265.855625 304.721875 265.71125 305.44375 265.5625 306.1875 C265.04166667 308.79166667 264.52083333 311.39583333 264 314 C263.34 314 262.68 314 262 314 C262 315.32 262 316.64 262 318 C261.34 318 260.68 318 260 318 C260 319.32 260 320.64 260 322 C259.34 322 258.68 322 258 322 C258 323.32 258 324.64 258 326 C257.34 326 256.68 326 256 326 C256 327.98 256 329.96 256 332 C255.34 332 254.68 332 254 332 C254 333.65 254 335.3 254 337 C253.34 337 252.68 337 252 337 C252 338.32 252 339.64 252 341 C251.01 341.33 250.02 341.66 249 342 C248.67 342.66 248.34 343.32 248 344 C246.02 344 244.04 344 242 344 C242 344.66 242 345.32 242 346 C236.72 346 231.44 346 226 346 C226 345.34 226 344.68 226 344 C217.42 344 208.84 344 200 344 C200 343.34 200 342.68 200 342 C197.36 342 194.72 342 192 342 C191.731875 342.598125 191.46375 343.19625 191.1875 343.8125 C190.00082594 345.99847854 188.90400887 347.41332594 187 349 C186.34 349 185.68 349 185 349 C184.7421875 349.57234375 184.484375 350.1446875 184.21875 350.734375 C182.88634058 353.21128995 181.34943882 355.1341166 179.5 357.25 C178.8915625 357.95640625 178.283125 358.6628125 177.65625 359.390625 C176 361 176 361 174 361 C174 378.16 174 395.32 174 413 C173.34 413 172.68 413 172 413 C171.67 414.32 171.34 415.64 171 417 C169.68 417.33 168.36 417.66 167 418 C167 418.66 167 419.32 167 420 C163.62902617 421.49821059 161.79557881 422 158 422 C158 422.66 158 423.32 158 424 C156.02 424 154.04 424 152 424 C152 424.66 152 425.32 152 426 C150.68 426 149.36 426 148 426 C148 426.99 148 427.98 148 429 C144.04 429.33 140.08 429.66 136 430 C136 430.66 136 431.32 136 432 C134.68 432 133.36 432 132 432 C132 432.66 132 433.32 132 434 C128.38026598 435.31626692 125.90432869 436 122 436 C122 436.66 122 437.32 122 438 C120.02 438 118.04 438 116 438 C116 438.66 116 439.32 116 440 C113.60385874 440.05425226 111.20896147 440.09379027 108.8125 440.125 C108.13896484 440.14175781 107.46542969 440.15851563 106.77148438 440.17578125 C102.71192193 440.21538674 99.65001185 439.80020002 96 438 C96 437.34 96 436.68 96 436 C95.401875 435.773125 94.80375 435.54625 94.1875 435.3125 C91.38957076 433.63374245 90.68071328 431.8011888 89 429 C84.96383139 424.4155943 84.96383139 424.4155943 80 421 C80 419.68 80 418.36 80 417 C79.34 417 78.68 417 78 417 C76.2734375 415.3203125 76.2734375 415.3203125 74.375 413.125 C73.74335937 412.40570313 73.11171875 411.68640625 72.4609375 410.9453125 C71 409 71 409 71 407 C70.34 407 69.68 407 69 407 C68.67 405.68 68.34 404.36 68 403 C58.1 402.67 48.2 402.34 38 402 C37.34 403.32 36.68 404.64 36 406 C35.34 406 34.68 406 34 406 C34 407.32 34 408.64 34 410 C33.34 410 32.68 410 32 410 C31.6596875 410.8353125 31.6596875 410.8353125 31.3125 411.6875 C29.62449964 414.66159588 27.53323483 416.72008865 25 419 C24.34 419 23.68 419 23 419 C23 419.66 23 420.32 23 421 C22.34 421 21.68 421 21 421 C20.74347656 421.58523438 20.48695313 422.17046875 20.22265625 422.7734375 C18.89437838 425.19234608 17.43475199 426.73198872 15.4375 428.625 C12.85984611 431.04521959 12.85984611 431.04521959 11 434 C10.34 434 9.68 434 9 434 C9 434.99 9 435.98 9 437 C7.35 437 5.7 437 4 437 C4 437.66 4 438.32 4 439 C0.04 439 -3.92 439 -8 439 C-8 438.01 -8 437.02 -8 436 C-11.3 435.67 -14.6 435.34 -18 435 C-18 434.01 -18 433.02 -18 432 C-20.64 431.67 -23.28 431.34 -26 431 C-26 430.01 -26 429.02 -26 428 C-27.32 428 -28.64 428 -30 428 C-30 427.34 -30 426.68 -30 426 C-31.65 426 -33.3 426 -35 426 C-35 425.34 -35 424.68 -35 424 C-36.65 424 -38.3 424 -40 424 C-40 423.34 -40 422.68 -40 422 C-41.32 422 -42.64 422 -44 422 C-44 421.34 -44 420.68 -44 420 C-47.3 419.67 -50.6 419.34 -54 419 C-54 418.34 -54 417.68 -54 417 C-55.32 417 -56.64 417 -58 417 C-58 416.34 -58 415.68 -58 415 C-59.32 415 -60.64 415 -62 415 C-65.29449238 412.38378546 -66.78992307 409.99113094 -68 406 C-68.23451309 402.89070492 -68.18893871 399.80328241 -68.125 396.6875 C-68.11597656 395.85154297 -68.10695313 395.01558594 -68.09765625 394.15429688 C-68.07420989 392.10274031 -68.03834266 390.05133223 -68 388 C-67.34 388 -66.68 388 -66 388 C-66 379.42 -66 370.84 -66 362 C-65.34 362 -64.68 362 -64 362 C-64 359.36 -64 356.72 -64 354 C-65.32 353.34 -66.64 352.68 -68 352 C-68 351.34 -68 350.68 -68 350 C-68.66 350 -69.32 350 -70 350 C-70 349.34 -70 348.68 -70 348 C-70.61875 347.938125 -71.2375 347.87625 -71.875 347.8125 C-72.57625 347.544375 -73.2775 347.27625 -74 347 C-74.66666667 345.33333333 -75.33333333 343.66666667 -76 342 C-78.04105639 341.11306697 -78.04105639 341.11306697 -80 341 C-80 340.34 -80 339.68 -80 339 C-80.66 339 -81.32 339 -82 339 C-82 338.34 -82 337.68 -82 337 C-99.16 337 -116.32 337 -134 337 C-134 336.34 -134 335.68 -134 335 C-135.32 335 -136.64 335 -138 335 C-138 334.34 -138 333.68 -138 333 C-138.66 333 -139.32 333 -140 333 C-140 332.34 -140 331.68 -140 331 C-140.66 331 -141.32 331 -142 331 C-142 329.02 -142 327.04 -142 325 C-142.66 325 -143.32 325 -144 325 C-144.48212214 323.43840941 -144.96055873 321.87568072 -145.4375 320.3125 C-145.70433594 319.44238281 -145.97117187 318.57226562 -146.24609375 317.67578125 C-146.96344529 315.12974079 -147.517541 312.5996577 -148 310 C-148.66 310 -149.32 310 -150 310 C-150 308.02 -150 306.04 -150 304 C-150.66 304 -151.32 304 -152 304 C-152 302.35 -152 300.7 -152 299 C-152.66 299 -153.32 299 -154 299 C-154.48212214 297.43840941 -154.96055873 295.87568072 -155.4375 294.3125 C-155.70433594 293.44238281 -155.97117187 292.57226562 -156.24609375 291.67578125 C-156.96344529 289.12974079 -157.517541 286.5996577 -158 284 C-158.66 284 -159.32 284 -160 284 C-161.99118241 279.02988327 -162.24845695 274.87666865 -162.125 269.625 C-162.11597656 268.88894531 -162.10695313 268.15289062 -162.09765625 267.39453125 C-162.07430144 265.5962112 -162.03843836 263.79806089 -162 262 C-161.34 262 -160.68 262 -160 262 C-159.87625 261.401875 -159.7525 260.80375 -159.625 260.1875 C-159 258 -159 258 -157 255 C-154.375 254.8125 -154.375 254.8125 -152 255 C-151.79375 254.46375 -151.5875 253.9275 -151.375 253.375 C-149.46749574 250.08021991 -146.95180616 247.40636372 -144 245 C-143.34 245 -142.68 245 -142 245 C-142 244.01 -142 243.02 -142 242 C-140.88625 241.7525 -139.7725 241.505 -138.625 241.25 C-135.01779142 240.42454566 -135.01779142 240.42454566 -133.875 238.25 C-133.58625 237.5075 -133.2975 236.765 -133 236 C-131.47833255 233.75057855 -129.89760185 231.98796384 -128 230 C-126.68 230 -125.36 230 -124 230 C-124 220.1 -124 210.2 -124 200 C-124.66 200 -125.32 200 -126 200 C-126.66 199.01 -127.32 198.02 -128 197 C-130.05925139 196.27617533 -130.05925139 196.27617533 -132 196 C-132 195.34 -132 194.68 -132 194 C-133.32 193.34 -134.64 192.68 -136 192 C-136 191.34 -136 190.68 -136 190 C-137.32 189.34 -138.64 188.68 -140 188 C-140 187.34 -140 186.68 -140 186 C-141.32 185.34 -142.64 184.68 -144 184 C-144 183.34 -144 182.68 -144 182 C-145.32 181.34 -146.64 180.68 -148 180 C-148 179.34 -148 178.68 -148 178 C-148.5775 177.731875 -149.155 177.46375 -149.75 177.1875 C-152.05550043 175.97070811 -154.02056192 174.69666121 -156 173 C-156 172.34 -156 171.68 -156 171 C-156.66 171 -157.32 171 -158 171 C-158 169.68 -158 168.36 -158 167 C-158.66 167 -159.32 167 -160 167 C-160 162.71 -160 158.42 -160 154 C-159.34 154 -158.68 154 -158 154 C-157.34 151.03 -156.68 148.06 -156 145 C-155.34 145 -154.68 145 -154 145 C-154 143.68 -154 142.36 -154 141 C-153.34 141 -152.68 141 -152 141 C-152 139.68 -152 138.36 -152 137 C-151.34 137 -150.68 137 -150 137 C-150 135.68 -150 134.36 -150 133 C-149.34 133 -148.68 133 -148 133 C-148 131.02 -148 129.04 -148 127 C-147.34 127 -146.68 127 -146 127 C-146 125.68 -146 124.36 -146 123 C-145.34 123 -144.68 123 -144 123 C-144 121.68 -144 120.36 -144 119 C-143.34 119 -142.68 119 -142 119 C-142 117.68 -142 116.36 -142 115 C-141.34 115 -140.68 115 -140 115 C-140 113.02 -140 111.04 -140 109 C-139.34 109 -138.68 109 -138 109 C-138 107.35 -138 105.7 -138 104 C-137.34 104 -136.68 104 -136 104 C-135.896875 103.236875 -135.79375 102.47375 -135.6875 101.6875 C-134.94460116 98.78344089 -134.43006017 97.71004234 -132 96 C-130.68 96 -129.36 96 -128 96 C-128 95.34 -128 94.68 -128 94 C-122.06 94 -116.12 94 -110 94 C-110 94.66 -110 95.32 -110 96 C-101.42 96 -92.84 96 -84 96 C-84 96.66 -84 97.32 -84 98 C-78.04985165 97.78854058 -78.04985165 97.78854058 -73.25 94.5625 C-72.5075 93.716875 -71.765 92.87125 -71 92 C-70.278125 91.649375 -69.55625 91.29875 -68.8125 90.9375 C-66.42469435 89.70242811 -66.16389103 88.39624623 -65 86 C-62.5 83.25 -62.5 83.25 -60 81 C-59.34 81 -58.68 81 -58 81 C-58 63.51 -58 46.02 -58 28 C-57.34 28 -56.68 28 -56 28 C-55.67 26.35 -55.34 24.7 -55 23 C-54.01 23 -53.02 23 -52 23 C-52 22.01 -52 21.02 -52 20 C-48.7 19.67 -45.4 19.34 -42 19 C-42 18.01 -42 17.02 -42 16 C-40.02 16 -38.04 16 -36 16 C-36 15.34 -36 14.68 -36 14 C-32.49223216 12.39644899 -29.85645121 11.77963136 -26 12 C-26 11.34 -26 10.68 -26 10 C-24.02 10 -22.04 10 -20 10 C-20 9.34 -20 8.68 -20 8 C-18.68 8 -17.36 8 -16 8 C-16 7.34 -16 6.68 -16 6 C-14.02 6 -12.04 6 -10 6 C-10 5.34 -10 4.68 -10 4 C-5.05 3.505 -5.05 3.505 0 3 C0 2.01 0 1.02 0 0 Z M2 36 C2 36.66 2 37.32 2 38 C1.46375 38.12375 0.9275 38.2475 0.375 38.375 C-1.3077591 38.81783134 -2.9742426 39.32474753 -4.625 39.875 C-9.05370383 41.35123461 -13.52461484 42.6733048 -18 44 C-18 44.66 -18 45.32 -18 46 C-19.98 46 -21.96 46 -24 46 C-24 61.84 -24 77.68 -24 94 C-24.66 94 -25.32 94 -26 94 C-26.20625 94.70125 -26.4125 95.4025 -26.625 96.125 C-28.7600679 100.58923288 -31.97223263 103.85946191 -36.29052734 106.28833008 C-39.29398346 108.18571977 -41.56756277 110.30858289 -44.08203125 112.81640625 C-45.01337891 113.74517578 -45.94472656 114.67394531 -46.90429688 115.63085938 C-47.38116943 116.11192139 -47.85804199 116.5929834 -48.34936523 117.08862305 C-49.81860251 118.56864732 -51.29830938 120.03760313 -52.77929688 121.50585938 C-53.70419922 122.43333984 -54.62910156 123.36082031 -55.58203125 124.31640625 C-56.85397339 125.59173218 -56.85397339 125.59173218 -58.15161133 126.89282227 C-60.21981174 128.78342255 -60.21981174 128.78342255 -60 131 C-62.95508447 131.83371359 -65.70109613 132.17889534 -68.765625 132.31640625 C-69.65507813 132.35830078 -70.54453125 132.40019531 -71.4609375 132.44335938 C-72.38132812 132.48267578 -73.30171875 132.52199219 -74.25 132.5625 C-75.18585938 132.60568359 -76.12171875 132.64886719 -77.0859375 132.69335938 C-79.39048641 132.7991805 -81.69513839 132.90126557 -84 133 C-84 132.34 -84 131.68 -84 131 C-93.24 131 -102.48 131 -112 131 C-112 132.65 -112 134.3 -112 136 C-112.66 136 -113.32 136 -114 136 C-114 137.65 -114 139.3 -114 141 C-114.66 141 -115.32 141 -116 141 C-119.52234074 147.10634401 -119.52234074 147.10634401 -120 154 C-120.66 154 -121.32 154 -122 154 C-122 154.99 -122 155.98 -122 157 C-118.96344042 160.05076843 -118.96344042 160.05076843 -115 161 C-114.7525 161.5775 -114.505 162.155 -114.25 162.75 C-112.81700012 165.32939979 -111.21575324 167.06121592 -109 169 C-108.34 169 -107.68 169 -107 169 C-106.67 169.99 -106.34 170.98 -106 172 C-103.62494782 174.70848923 -103.62494782 174.70848923 -101 177 C-100.34 177 -99.68 177 -99 177 C-99 177.66 -99 178.32 -99 179 C-98.34 179 -97.68 179 -97 179 C-97 179.66 -97 180.32 -97 181 C-96.34 181 -95.68 181 -95 181 C-94.67 181.99 -94.34 182.98 -94 184 C-93.01 184.66 -92.02 185.32 -91 186 C-90.60127258 188.40444946 -90.60127258 188.40444946 -90.56762695 191.45947266 C-90.53793571 193.17102036 -90.53793571 193.17102036 -90.50764465 194.91714478 C-90.50125473 196.15362762 -90.49486481 197.39011047 -90.48828125 198.6640625 C-90.47033005 199.92640717 -90.45237885 201.18875183 -90.43388367 202.48934937 C-90.38879765 205.84642143 -90.35655055 209.20312448 -90.33044434 212.56036377 C-90.30067385 215.98569073 -90.25413165 219.41078481 -90.20898438 222.8359375 C-90.1238168 229.55718453 -90.05556225 236.27844661 -90 243 C-90.66 243 -91.32 243 -92 243 C-93.01351664 244.65848177 -94.01120795 246.32665961 -95 248 C-96.33333333 249.33333333 -97.66666667 250.66666667 -99 252 C-99 252.66 -99 253.32 -99 254 C-99.66 254 -100.32 254 -101 254 C-101 254.66 -101 255.32 -101 256 C-101.8971875 256.4021875 -101.8971875 256.4021875 -102.8125 256.8125 C-105.00443888 257.86831322 -105.00443888 257.86831322 -106.4375 259.4375 C-108 261 -108 261 -110.3125 262.375 C-113.54838502 264.33158164 -116.19684309 266.45760187 -119 269 C-119 269.66 -119 270.32 -119 271 C-119.66 271 -120.32 271 -121 271 C-121.495 271.99 -121.495 271.99 -122 273 C-124.0625 273.625 -124.0625 273.625 -126 274 C-126 274.99 -126 275.98 -126 277 C-125.34 277 -124.68 277 -124 277 C-124 278.32 -124 279.64 -124 281 C-123.34 281 -122.68 281 -122 281 C-121.855625 282.051875 -121.71125 283.10375 -121.5625 284.1875 C-121.12473034 287.15460549 -120.62195134 290.06794366 -120 293 C-119.34 293 -118.68 293 -118 293 C-118 294.32 -118 295.64 -118 297 C-117.34 297 -116.68 297 -116 297 C-116 298.98 -116 300.96 -116 303 C-115.40753479 303.01030746 -114.81506958 303.02061493 -114.20465088 303.03123474 C-108.04029494 303.13938458 -101.87608265 303.25397579 -95.71191406 303.37231445 C-93.41116338 303.41563606 -91.11038112 303.45731313 -88.80957031 303.49731445 C-85.50315839 303.55508395 -82.196905 303.61875949 -78.890625 303.68359375 C-77.86132874 303.70030624 -76.83203247 303.71701874 -75.77154541 303.73423767 C-74.81085144 303.75418289 -73.85015747 303.77412811 -72.86035156 303.79467773 C-71.59460297 303.81799416 -71.59460297 303.81799416 -70.30328369 303.84178162 C-68.02804299 303.99807366 -66.14046052 304.20707411 -64 305 C-63.34 305.99 -62.68 306.98 -62 308 C-61.34 308 -60.68 308 -60 308 C-59.34 309.65 -58.68 311.3 -58 313 C-57.34 313 -56.68 313 -56 313 C-55.91298828 313.57669434 -55.82597656 314.15338867 -55.73632812 314.74755859 C-54.79506576 317.62689765 -53.38955231 318.93665944 -51.21875 321.0390625 C-50.45949219 321.78414063 -49.70023438 322.52921875 -48.91796875 323.296875 C-48.12003906 324.06515625 -47.32210937 324.8334375 -46.5 325.625 C-44.92501493 327.15673023 -43.35199569 328.69048522 -41.78125 330.2265625 C-40.7303418 331.24097412 -40.7303418 331.24097412 -39.65820312 332.27587891 C-38 334 -38 334 -37 336 C-36.34 336 -35.68 336 -35 336 C-34.505 337.485 -34.505 337.485 -34 339 C-33.34 339 -32.68 339 -32 339 C-32 339.99 -32 340.98 -32 342 C-31.34 342 -30.68 342 -30 342 C-30 349.26 -30 356.52 -30 364 C-30.66 364 -31.32 364 -32 364 C-32 372.91 -32 381.82 -32 391 C-30.02 391 -28.04 391 -26 391 C-26 391.66 -26 392.32 -26 393 C-23.36 393.33 -20.72 393.66 -18 394 C-18 394.66 -18 395.32 -18 396 C-16.68 396 -15.36 396 -14 396 C-14 396.99 -14 397.98 -14 399 C-11.36 399.66 -8.72 400.32 -6 401 C-5.67 400.01 -5.34 399.02 -5 398 C-4.34 398 -3.68 398 -3 398 C-1.39940707 396.37907408 -1.39940707 396.37907408 0.25 394.3125 C3.24106935 390.78266661 6.43612046 387.95726175 10 385 C11.56942525 383.27443295 13.06271522 381.49974139 14.5546875 379.70703125 C17.41825477 376.32492612 20.31433459 373.45711028 24 371 C24 370.01 24 369.02 24 368 C31.90212864 368.11758641 39.80411887 368.24241829 47.70605469 368.37231445 C50.39482764 368.41617963 53.08362165 368.4577294 55.77246094 368.49731445 C59.63484961 368.5550365 63.49710056 368.61872582 67.359375 368.68359375 C68.5636615 368.70030624 69.767948 368.71701874 71.00872803 368.73423767 C72.12958801 368.75418289 73.250448 368.77412811 74.40527344 368.79467773 C75.88420074 368.81799416 75.88420074 368.81799416 77.39300537 368.84178162 C79.73774398 368.98408369 81.75417171 369.33704501 84 370 C84 370.99 84 371.98 84 373 C84.639375 373.268125 85.27875 373.53625 85.9375 373.8125 C88 375 88 375 89 378 C89.66 378 90.32 378 91 378 C91 378.66 91 379.32 91 380 C91.66 380 92.32 380 93 380 C93 380.66 93 381.32 93 382 C93.639375 382.28875 94.27875 382.5775 94.9375 382.875 C97 384 97 384 98 386 C98.66 386 99.32 386 100 386 C100 387.32 100 388.64 100 390 C100.66 390 101.32 390 102 390 C102.268125 390.639375 102.53625 391.27875 102.8125 391.9375 C103.88667752 394.33131686 103.88667752 394.33131686 107 395 C108.1875 397.0625 108.1875 397.0625 109 399 C109.66 399 110.32 399 111 399 C111.33 400.65 111.66 402.3 112 404 C112.66 404 113.32 404 114 404 C114 403.34 114 402.68 114 402 C117.3 401.67 120.6 401.34 124 401 C124 400.34 124 399.68 124 399 C125.98 399 127.96 399 130 399 C130 398.34 130 397.68 130 397 C131.32 397 132.64 397 134 397 C134 396.34 134 395.68 134 395 C135.98 395 137.96 395 140 395 C140 378.83 140 362.66 140 346 C140.66 346 141.32 346 142 346 C142 344.68 142 343.36 142 342 C142.5775 341.773125 143.155 341.54625 143.75 341.3125 C146.17802046 340.08585578 146.17802046 340.08585578 147.875 337.5625 C150.33542708 334.59551441 152.53909543 333.62450623 156 332 C158.82865928 330.0554473 158.82865928 330.0554473 161 328 C161 327.34 161 326.68 161 326 C161.66 326 162.32 326 163 326 C164.87003099 323.76948111 166.53856582 321.42301608 168.24609375 319.06640625 C170 317 170 317 173 316 C173.7115625 314.7625 173.7115625 314.7625 174.4375 313.5 C176 311 176 311 178.1875 310.1875 C179.0846875 310.0946875 179.0846875 310.0946875 180 310 C180 309.34 180 308.68 180 308 C186.6 308 193.2 308 200 308 C200 308.66 200 309.32 200 310 C209.24 310 218.48 310 228 310 C228 308.35 228 306.7 228 305 C228.66 305 229.32 305 230 305 C230 303.68 230 302.36 230 301 C230.66 301 231.32 301 232 301 C232 299.68 232 298.36 232 297 C232.66 297 233.32 297 234 297 C234 295.35 234 293.7 234 292 C234.66 292 235.32 292 236 292 C236 290.35 236 288.7 236 287 C236.66 287 237.32 287 238 287 C238 286.01 238 285.02 238 284 C237.34 284 236.68 284 236 284 C236 283.34 236 282.68 236 282 C235.34 282 234.68 282 234 282 C234 281.34 234 280.68 234 280 C233.38125 279.938125 232.7625 279.87625 232.125 279.8125 C230 279 230 279 228.75 276.4375 C228.5025 275.633125 228.255 274.82875 228 274 C227.34 274 226.68 274 226 274 C226 273.34 226 272.68 226 272 C224.68 271.67 223.36 271.34 222 271 C222 270.34 222 269.68 222 269 C221.34 269 220.68 269 220 269 C220 268.01 220 267.02 220 266 C218.68 265.67 217.36 265.34 216 265 C216 264.34 216 263.68 216 263 C215.34 263 214.68 263 214 263 C214 262.34 214 261.68 214 261 C212.16666667 258.83333333 212.16666667 258.83333333 210 257 C209.34 257 208.68 257 208 257 C208 256.34 208 255.68 208 255 C207.34 255 206.68 255 206 255 C206 236.52 206 218.04 206 199 C206.66 199 207.32 199 208 199 C208.4125 197.88625 208.825 196.7725 209.25 195.625 C210.35546516 193.00679305 210.74880787 192.16506911 213.1875 190.5625 C213.785625 190.376875 214.38375 190.19125 215 190 C215 189.01 215 188.02 215 187 C215.66 187 216.32 187 217 187 C217.33 186.34 217.66 185.68 218 185 C218.99 184.67 219.98 184.34 221 184 C223.40995366 181.36458982 223.40995366 181.36458982 224 178 C224.721875 177.9175 225.44375 177.835 226.1875 177.75 C231.06884696 176.44830748 234.33275462 173.21144008 237 169 C237 168.34 237 167.68 237 167 C238.65 167 240.3 167 242 167 C242 166.01 242 165.02 242 164 C241.34 164 240.68 164 240 164 C240 162.68 240 161.36 240 160 C239.34 160 238.68 160 238 160 C238 158.02 238 156.04 238 154 C237.34 154 236.68 154 236 154 C236 152.35 236 150.7 236 149 C235.34 149 234.68 149 234 149 C233.33333333 145.66666667 232.66666667 142.33333333 232 139 C216.16 139 200.32 139 184 139 C184 138.34 184 137.68 184 137 C182.68 137 181.36 137 180 137 C180 136.01 180 135.02 180 134 C178.55872658 132.5301228 178.55872658 132.5301228 176.6875 131.1875 C173.31035355 128.47493257 171.90382211 125.89830241 170 122 C167.92309422 121.03955898 167.92309422 121.03955898 166 121 C166 120.34 166 119.68 166 119 C165.34 119 164.68 119 164 119 C164 118.34 164 117.68 164 117 C163.34 117 162.68 117 162 117 C162 116.34 162 115.68 162 115 C161.34 115 160.68 115 160 115 C160 114.34 160 113.68 160 113 C159.34 113 158.68 113 158 113 C157.34 111.68 156.68 110.36 156 109 C155.34 109 154.68 109 154 109 C154 108.34 154 107.68 154 107 C153.34 107 152.68 107 152 107 C151.34 105.68 150.68 104.36 150 103 C149.34 103 148.68 103 148 103 C148 101.68 148 100.36 148 99 C147.34 99 146.68 99 146 99 C146 91.41 146 83.82 146 76 C146.66 76 147.32 76 148 76 C148 67.42 148 58.84 148 50 C146.68 50 145.36 50 144 50 C144 49.34 144 48.68 144 48 C140.7 47.67 137.4 47.34 134 47 C134 46.34 134 45.68 134 45 C132.68 45 131.36 45 130 45 C130 44.34 130 43.68 130 43 C127.69564223 41.54910807 126.31123703 40.99201956 123.5625 41.0625 C120.13059669 42.31807438 118.35064531 44.24638692 116 47 C116 47.66 116 48.32 116 49 C115.319375 49.165 114.63875 49.33 113.9375 49.5 C110.39682293 51.30800531 108.68744708 53.4683973 106.1796875 56.5 C102.96063204 60.19210662 99.44105322 63.56841029 95.91186523 66.96240234 C94.57182867 68.27234731 93.28124518 69.63249694 92 71 C92 71.66 92 72.32 92 73 C73.52 73 55.04 73 36 73 C36 72.34 36 71.68 36 71 C34.68 71 33.36 71 32 71 C31.7525 70.38125 31.505 69.7625 31.25 69.125 C29.79371361 66.64931313 28.62187494 66.04874998 26 65 C26 64.34 26 63.68 26 63 C25.34 63 24.68 63 24 63 C24 62.34 24 61.68 24 61 C23.34 61 22.68 61 22 61 C22 60.01 22 59.02 22 58 C20.68 57.67 19.36 57.34 18 57 C18 56.01 18 55.02 18 54 C17.34 54 16.68 54 16 54 C15.938125 53.443125 15.87625 52.88625 15.8125 52.3125 C14.6519231 49.00931958 12.59786554 47.28105267 10 45 C9.34 45 8.68 45 8 45 C7.67 43.68 7.34 42.36 7 41 C6.01 41 5.02 41 4 41 C4 39.35 4 37.7 4 36 C3.34 36 2.68 36 2 36 Z " fill="#C54A4A" transform="translate(710,37)"/>
<path d="M0 0 C13.2 0 26.4 0 40 0 C40 0.99 40 1.98 40 3 C40.58265625 2.96519531 41.1653125 2.93039063 41.765625 2.89453125 C48.91152857 2.6585816 55.15557974 4.02429106 62 6 C62 6.66 62 7.32 62 8 C63.98 8 65.96 8 68 8 C68 8.66 68 9.32 68 10 C69.32 10 70.64 10 72 10 C72 10.66 72 11.32 72 12 C73.65 12.33 75.3 12.66 77 13 C77 13.66 77 14.32 77 15 C77.969375 15.28875 78.93875 15.5775 79.9375 15.875 C83 17 83 17 84 19 C84.763125 19.28875 85.52625 19.5775 86.3125 19.875 C89.30601073 21.12809752 90.76681546 22.69237597 93 25 C93.99 25.33 94.98 25.66 96 26 C97.578125 27.6015625 97.578125 27.6015625 99.25 29.625 C101.64065189 32.45630171 104.08222378 35.11580894 106.75 37.6875 C111.43485597 42.33043332 113.36479658 46.58497121 115 53 C115.99 53 116.98 53 118 53 C118 54.32 118 55.64 118 57 C118.61875 57.0825 119.2375 57.165 119.875 57.25 C122 58 122 58 123.25 59.6875 C124.1758912 62.54233119 124.135557 65.01774607 124 68 C124.66 68 125.32 68 126 68 C126 69.32 126 70.64 126 72 C126.66 72 127.32 72 128 72 C128 74.31 128 76.62 128 79 C128.66 79 129.32 79 130 79 C130 80.98 130 82.96 130 85 C130.66 85 131.32 85 132 85 C132 88.3 132 91.6 132 95 C132.66 95 133.32 95 134 95 C134 108.2 134 121.4 134 135 C133.34 135 132.68 135 132 135 C132 137.97 132 140.94 132 144 C131.34 144 130.68 144 130 144 C130 146.31 130 148.62 130 151 C129.34 151 128.68 151 128 151 C128 152.65 128 154.3 128 156 C127.34 156 126.68 156 126 156 C126 157.98 126 159.96 126 162 C125.34 162 124.68 162 124 162 C124 163.65 124 165.3 124 167 C123.34 167 122.68 167 122 167 C122 168.32 122 169.64 122 171 C120.68 171.33 119.36 171.66 118 172 C118 173.65 118 175.3 118 177 C117.34 177 116.68 177 116 177 C116 178.32 116 179.64 116 181 C114.36395804 182.37073786 112.69321939 183.70055256 111 185 C110.59265625 185.71671875 110.1853125 186.4334375 109.765625 187.171875 C107.34137529 191.05496524 104.28530299 194.0830452 101.0625 197.3125 C100.44181641 197.95767578 99.82113281 198.60285156 99.18164062 199.26757812 C98.57642578 199.87666016 97.97121094 200.48574219 97.34765625 201.11328125 C96.80117432 201.66798096 96.25469238 202.22268066 95.69165039 202.79418945 C94 204 94 204 90 204 C89.67 204.99 89.34 205.98 89 207 C88.34 207 87.68 207 87 207 C86.67 207.99 86.34 208.98 86 210 C84.68 210 83.36 210 82 210 C82 210.66 82 211.32 82 212 C80.68 212 79.36 212 78 212 C78 212.66 78 213.32 78 214 C77.34 214 76.68 214 76 214 C76 214.99 76 215.98 76 217 C72.88089144 218.79275866 70.32317572 219.34290718 66.75 219.625 C65.41195312 219.73714844 65.41195312 219.73714844 64.046875 219.8515625 C63.37140625 219.90054688 62.6959375 219.94953125 62 220 C62 220.66 62 221.32 62 222 C60.02 222 58.04 222 56 222 C56 222.66 56 223.32 56 224 C54.02 224 52.04 224 50 224 C50 224.66 50 225.32 50 226 C47.36 226 44.72 226 42 226 C42 226.66 42 227.32 42 228 C28.14 228 14.28 228 0 228 C0 227.34 0 226.68 0 226 C-3.3 226 -6.6 226 -10 226 C-10 225.34 -10 224.68 -10 224 C-11.98 224 -13.96 224 -16 224 C-16 223.34 -16 222.68 -16 222 C-19.96 221.67 -23.92 221.34 -28 221 C-28 220.01 -28 219.02 -28 218 C-29.0828125 217.8453125 -29.0828125 217.8453125 -30.1875 217.6875 C-33.29605897 216.92763003 -35.28579261 215.68136741 -38 214 C-38.85980469 213.51660156 -39.71960938 213.03320312 -40.60546875 212.53515625 C-41.45753906 212.04917969 -42.30960938 211.56320312 -43.1875 211.0625 C-44.04730469 210.57910156 -44.90710938 210.09570312 -45.79296875 209.59765625 C-48.14184784 207.89731723 -48.96729024 206.67119899 -50 204 C-51.32 204 -52.64 204 -54 204 C-54 203.34 -54 202.68 -54 202 C-55.32 201.67 -56.64 201.34 -58 201 C-58 200.34 -58 199.68 -58 199 C-58.66 199 -59.32 199 -60 199 C-60 198.34 -60 197.68 -60 197 C-60.66 197 -61.32 197 -62 197 C-62 196.34 -62 195.68 -62 195 C-62.66 195 -63.32 195 -64 195 C-68 190.52941176 -68 190.52941176 -68 188 C-68.66 188 -69.32 188 -70 188 C-71.0064275 186.33720673 -72.00585407 184.67016516 -73 183 C-74.485 182.01 -74.485 182.01 -76 181 C-76.73046875 178.8359375 -76.73046875 178.8359375 -77.1875 176.375 C-77.34605469 175.55773437 -77.50460937 174.74046875 -77.66796875 173.8984375 C-77.77753906 173.27195312 -77.88710938 172.64546875 -78 172 C-79.32 171.67 -80.64 171.34 -82 171 C-82 169.68 -82 168.36 -82 167 C-82.66 167 -83.32 167 -84 167 C-84.18175781 166.35933594 -84.36351562 165.71867188 -84.55078125 165.05859375 C-86.06572083 159.8456478 -87.80612911 154.96005594 -90 150 C-91.98927793 145.0791546 -92.18050239 141.23456926 -92 136 C-92.66 136 -93.32 136 -94 136 C-94 121.81 -94 107.62 -94 93 C-93.34 93 -92.68 93 -92 93 C-92.061875 91.824375 -92.12375 90.64875 -92.1875 89.4375 C-92.202952 85.05685933 -90.84174089 81.97816033 -89 78 C-88.60235737 76.01178687 -88.24544834 74.01267638 -88 72 C-87.34 72 -86.68 72 -86 72 C-86 70.35 -86 68.7 -86 67 C-85.34 67 -84.68 67 -84 67 C-84 65.68 -84 64.36 -84 63 C-83.34 63 -82.68 63 -82 63 C-82 61.35 -82 59.7 -82 58 C-80.02 57.505 -80.02 57.505 -78 57 C-77.855625 56.2575 -77.71125 55.515 -77.5625 54.75 C-77.376875 53.8425 -77.19125 52.935 -77 52 C-76.9175 51.319375 -76.835 50.63875 -76.75 49.9375 C-75.64230894 47.07596475 -73.36192845 45.88954276 -71 44 C-70.7525 43.01 -70.7525 43.01 -70.5 42 C-69.73072971 38.92291883 -67.46538835 37.89204222 -65 36 C-63.9171875 34.63875 -63.9171875 34.63875 -62.8125 33.25 C-62.214375 32.5075 -61.61625 31.765 -61 31 C-60.34 31 -59.68 31 -59 31 C-58.505 29.515 -58.505 29.515 -58 28 C-55.46110538 25.02336492 -53.7948311 23.78513747 -50 23 C-49.67 22.34 -49.34 21.68 -49 21 C-48.34 21 -47.68 21 -47 21 C-46.505 19.515 -46.505 19.515 -46 18 C-44.22265625 17.12109375 -44.22265625 17.12109375 -42.0625 16.4375 C-39.27149772 15.54093484 -38.12225355 15.12225355 -36 13 C-34.68 13 -33.36 13 -32 13 C-32 12.01 -32 11.02 -32 10 C-28.38026598 8.68373308 -25.90432869 8 -22 8 C-22 7.34 -22 6.68 -22 6 C-20.02 6 -18.04 6 -16 6 C-16 5.34 -16 4.68 -16 4 C-14.02 4 -12.04 4 -10 4 C-10 3.34 -10 2.68 -10 2 C-6.7 2 -3.4 2 0 2 C0 1.34 0 0.68 0 0 Z " fill="#DBBEBC" transform="translate(748,143)"/>
<path d="M0 0 C1.29349365 0.00523682 2.5869873 0.01047363 3.91967773 0.01586914 C4.9496714 0.01799156 4.9496714 0.01799156 6.00047302 0.02015686 C8.20144949 0.0257706 10.40232557 0.03832532 12.60327148 0.05102539 C14.09220231 0.05603863 15.58113473 0.06060184 17.07006836 0.06469727 C20.72700223 0.07574446 24.38387707 0.09301826 28.04077148 0.11352539 C28.04077148 0.77352539 28.04077148 1.43352539 28.04077148 2.11352539 C30.68077148 2.11352539 33.32077148 2.11352539 36.04077148 2.11352539 C36.04077148 2.77352539 36.04077148 3.43352539 36.04077148 4.11352539 C38.02077148 4.11352539 40.00077148 4.11352539 42.04077148 4.11352539 C42.04077148 4.77352539 42.04077148 5.43352539 42.04077148 6.11352539 C42.70077148 6.21665039 43.36077148 6.31977539 44.04077148 6.42602539 C47.8250557 7.29325719 51.54369559 8.40584113 55.04077148 10.11352539 C55.53577148 11.10352539 55.53577148 11.10352539 56.04077148 12.11352539 C56.65049805 12.24243164 57.26022461 12.37133789 57.88842773 12.50415039 C60.71549189 13.30455331 61.63824164 14.60279588 63.47827148 16.86352539 C65.5573524 19.36379943 67.61914822 21.75003911 69.97827148 23.98852539 C72.04077148 26.11352539 72.04077148 26.11352539 72.04077148 28.11352539 C72.65952148 28.21665039 73.27827148 28.31977539 73.91577148 28.42602539 C76.04077148 29.11352539 76.04077148 29.11352539 78.04077148 32.11352539 C78.04077148 33.43352539 78.04077148 34.75352539 78.04077148 36.11352539 C79.36077148 36.44352539 80.68077148 36.77352539 82.04077148 37.11352539 C82.04077148 38.43352539 82.04077148 39.75352539 82.04077148 41.11352539 C82.70077148 41.11352539 83.36077148 41.11352539 84.04077148 41.11352539 C84.04077148 42.43352539 84.04077148 43.75352539 84.04077148 45.11352539 C84.70077148 45.11352539 85.36077148 45.11352539 86.04077148 45.11352539 C86.04077148 46.43352539 86.04077148 47.75352539 86.04077148 49.11352539 C86.70077148 49.11352539 87.36077148 49.11352539 88.04077148 49.11352539 C88.04077148 51.09352539 88.04077148 53.07352539 88.04077148 55.11352539 C88.70077148 55.11352539 89.36077148 55.11352539 90.04077148 55.11352539 C90.04077148 58.08352539 90.04077148 61.05352539 90.04077148 64.11352539 C90.70077148 64.11352539 91.36077148 64.11352539 92.04077148 64.11352539 C92.04077148 74.34352539 92.04077148 84.57352539 92.04077148 95.11352539 C91.38077148 95.11352539 90.72077148 95.11352539 90.04077148 95.11352539 C90.04077148 98.08352539 90.04077148 101.05352539 90.04077148 104.11352539 C89.38077148 104.11352539 88.72077148 104.11352539 88.04077148 104.11352539 C88.08202148 104.83540039 88.12327148 105.55727539 88.16577148 106.30102539 C88.03155843 109.32081908 87.28906529 111.38288268 86.04077148 114.11352539 C85.38077148 114.11352539 84.72077148 114.11352539 84.04077148 114.11352539 C84.04077148 115.43352539 84.04077148 116.75352539 84.04077148 118.11352539 C83.38077148 118.11352539 82.72077148 118.11352539 82.04077148 118.11352539 C82.04077148 119.43352539 82.04077148 120.75352539 82.04077148 122.11352539 C81.05077148 122.77352539 80.06077148 123.43352539 79.04077148 124.11352539 C78.58702148 124.87665039 78.13327148 125.63977539 77.66577148 126.42602539 C75.80785804 129.49872839 73.70780456 131.72003417 71.04077148 134.11352539 C70.38077148 134.11352539 69.72077148 134.11352539 69.04077148 134.11352539 C69.04077148 134.77352539 69.04077148 135.43352539 69.04077148 136.11352539 C68.38077148 136.11352539 67.72077148 136.11352539 67.04077148 136.11352539 C66.81389648 136.67040039 66.58702148 137.22727539 66.35327148 137.80102539 C64.64228934 140.81561298 62.66839848 142.86127368 60.04077148 145.11352539 C58.72077148 145.11352539 57.40077148 145.11352539 56.04077148 145.11352539 C55.79327148 145.73227539 55.54577148 146.35102539 55.29077148 146.98852539 C53.80826662 149.50878366 52.75690085 150.12584199 50.04077148 151.11352539 C49.05077148 151.11352539 48.06077148 151.11352539 47.04077148 151.11352539 C47.04077148 151.77352539 47.04077148 152.43352539 47.04077148 153.11352539 C45.39077148 153.11352539 43.74077148 153.11352539 42.04077148 153.11352539 C42.04077148 153.77352539 42.04077148 154.43352539 42.04077148 155.11352539 C40.06077148 155.11352539 38.08077148 155.11352539 36.04077148 155.11352539 C36.04077148 155.77352539 36.04077148 156.43352539 36.04077148 157.11352539 C33.40077148 157.11352539 30.76077148 157.11352539 28.04077148 157.11352539 C28.04077148 157.77352539 28.04077148 158.43352539 28.04077148 159.11352539 C17.48077148 159.11352539 6.92077148 159.11352539 -3.95922852 159.11352539 C-3.95922852 158.45352539 -3.95922852 157.79352539 -3.95922852 157.11352539 C-6.59922852 157.11352539 -9.23922852 157.11352539 -11.95922852 157.11352539 C-11.95922852 156.45352539 -11.95922852 155.79352539 -11.95922852 155.11352539 C-13.93922852 155.11352539 -15.91922852 155.11352539 -17.95922852 155.11352539 C-17.95922852 154.45352539 -17.95922852 153.79352539 -17.95922852 153.11352539 C-19.27922852 153.11352539 -20.59922852 153.11352539 -21.95922852 153.11352539 C-21.95922852 152.45352539 -21.95922852 151.79352539 -21.95922852 151.11352539 C-23.27922852 151.11352539 -24.59922852 151.11352539 -25.95922852 151.11352539 C-25.95922852 150.45352539 -25.95922852 149.79352539 -25.95922852 149.11352539 C-27.60922852 148.78352539 -29.25922852 148.45352539 -30.95922852 148.11352539 C-31.28922852 147.12352539 -31.61922852 146.13352539 -31.95922852 145.11352539 C-33.13485352 144.89696289 -33.13485352 144.89696289 -34.33422852 144.67602539 C-36.95922852 144.11352539 -36.95922852 144.11352539 -38.95922852 143.11352539 C-38.95922852 142.45352539 -38.95922852 141.79352539 -38.95922852 141.11352539 C-39.61922852 141.11352539 -40.27922852 141.11352539 -40.95922852 141.11352539 C-40.95922852 140.45352539 -40.95922852 139.79352539 -40.95922852 139.11352539 C-41.61922852 139.11352539 -42.27922852 139.11352539 -42.95922852 139.11352539 C-42.95922852 138.45352539 -42.95922852 137.79352539 -42.95922852 137.11352539 C-43.61922852 137.11352539 -44.27922852 137.11352539 -44.95922852 137.11352539 C-44.95922852 136.45352539 -44.95922852 135.79352539 -44.95922852 135.11352539 C-45.61922852 135.11352539 -46.27922852 135.11352539 -46.95922852 135.11352539 C-46.95922852 134.45352539 -46.95922852 133.79352539 -46.95922852 133.11352539 C-47.61922852 133.11352539 -48.27922852 133.11352539 -48.95922852 133.11352539 C-51.8896398 129.89007297 -54.07130513 127.03459703 -55.95922852 123.11352539 C-56.61922852 122.78352539 -57.27922852 122.45352539 -57.95922852 122.11352539 C-57.95922852 120.79352539 -57.95922852 119.47352539 -57.95922852 118.11352539 C-58.61922852 118.11352539 -59.27922852 118.11352539 -59.95922852 118.11352539 C-61.45743911 114.74255156 -61.95922852 112.9091042 -61.95922852 109.11352539 C-62.61922852 109.11352539 -63.27922852 109.11352539 -63.95922852 109.11352539 C-63.95922852 107.46352539 -63.95922852 105.81352539 -63.95922852 104.11352539 C-64.61922852 104.11352539 -65.27922852 104.11352539 -65.95922852 104.11352539 C-65.95922852 101.47352539 -65.95922852 98.83352539 -65.95922852 96.11352539 C-66.61922852 96.11352539 -67.27922852 96.11352539 -67.95922852 96.11352539 C-67.95922852 85.55352539 -67.95922852 74.99352539 -67.95922852 64.11352539 C-67.29922852 64.11352539 -66.63922852 64.11352539 -65.95922852 64.11352539 C-65.95922852 61.14352539 -65.95922852 58.17352539 -65.95922852 55.11352539 C-65.29922852 55.11352539 -64.63922852 55.11352539 -63.95922852 55.11352539 C-63.95922852 53.13352539 -63.95922852 51.15352539 -63.95922852 49.11352539 C-63.29922852 49.11352539 -62.63922852 49.11352539 -61.95922852 49.11352539 C-61.95922852 47.79352539 -61.95922852 46.47352539 -61.95922852 45.11352539 C-61.29922852 45.11352539 -60.63922852 45.11352539 -59.95922852 45.11352539 C-59.95922852 43.79352539 -59.95922852 42.47352539 -59.95922852 41.11352539 C-59.29922852 41.11352539 -58.63922852 41.11352539 -57.95922852 41.11352539 C-57.95922852 39.79352539 -57.95922852 38.47352539 -57.95922852 37.11352539 C-56.96922852 36.45352539 -55.97922852 35.79352539 -54.95922852 35.11352539 C-54.52610352 34.39165039 -54.09297852 33.66977539 -53.64672852 32.92602539 C-50.16101288 27.11649933 -45.62946204 22.60720141 -40.37719727 18.37524414 C-38.82228431 17.14873246 -38.82228431 17.14873246 -37.95922852 15.11352539 C-37.29922852 15.11352539 -36.63922852 15.11352539 -35.95922852 15.11352539 C-35.95922852 14.45352539 -35.95922852 13.79352539 -35.95922852 13.11352539 C-35.31985352 12.98977539 -34.68047852 12.86602539 -34.02172852 12.73852539 C-33.34110352 12.53227539 -32.66047852 12.32602539 -31.95922852 12.11352539 C-31.62922852 11.45352539 -31.29922852 10.79352539 -30.95922852 10.11352539 C-29.30922852 10.11352539 -27.65922852 10.11352539 -25.95922852 10.11352539 C-25.95922852 9.45352539 -25.95922852 8.79352539 -25.95922852 8.11352539 C-22.87113156 6.34889856 -21.72610716 6.11352539 -17.95922852 6.11352539 C-17.95922852 5.45352539 -17.95922852 4.79352539 -17.95922852 4.11352539 C-15.97922852 4.11352539 -13.99922852 4.11352539 -11.95922852 4.11352539 C-11.95922852 3.45352539 -11.95922852 2.79352539 -11.95922852 2.11352539 C-9.90844727 1.88566081 -7.85766602 1.65779622 -5.80688477 1.42993164 C-3.00765413 0.95057079 -3.24249315 0.12439232 0 0 Z " fill="#010101" transform="translate(755.959228515625,177.886474609375)"/>
<path d="M0 0 C1.22679392 -0.00467997 1.22679392 -0.00467997 2.47837156 -0.00945449 C5.22836499 -0.01745386 7.97813895 -0.01110334 10.72813416 -0.00482178 C12.69575124 -0.00753076 14.66336731 -0.01109116 16.63098145 -0.01544189 C21.98203228 -0.02457862 27.33300621 -0.02101651 32.68405843 -0.01468372 C38.27520411 -0.00963109 43.86634308 -0.01431305 49.45748901 -0.01745605 C58.84686977 -0.02109755 68.2362191 -0.01629148 77.62559509 -0.0067749 C88.49389986 0.00411315 99.36212962 0.00058224 110.23043257 -0.01042771 C119.54934968 -0.01949159 128.86824416 -0.02079037 138.18716425 -0.01555037 C143.75844614 -0.01242612 149.32969272 -0.01203384 154.90097237 -0.01862335 C160.13678325 -0.02438324 165.372497 -0.0204249 170.60829735 -0.00883484 C172.53446415 -0.0061811 174.46063906 -0.00696543 176.38680267 -0.01136017 C179.0069224 -0.01678895 181.62672678 -0.01001425 184.24682617 0 C185.01714379 -0.00446144 185.78746141 -0.00892289 186.58112198 -0.01351953 C191.83162094 0.02566696 191.83162094 0.02566696 194.05992126 2.25396729 C194.05992126 3.57396729 194.05992126 4.89396729 194.05992126 6.25396729 C194.71992126 6.25396729 195.37992126 6.25396729 196.05992126 6.25396729 C196.05992126 8.23396729 196.05992126 10.21396729 196.05992126 12.25396729 C196.71992126 12.25396729 197.37992126 12.25396729 198.05992126 12.25396729 C198.05992126 13.57396729 198.05992126 14.89396729 198.05992126 16.25396729 C198.71992126 16.25396729 199.37992126 16.25396729 200.05992126 16.25396729 C200.05992126 17.57396729 200.05992126 18.89396729 200.05992126 20.25396729 C200.71992126 20.25396729 201.37992126 20.25396729 202.05992126 20.25396729 C202.05992126 22.23396729 202.05992126 24.21396729 202.05992126 26.25396729 C202.71992126 26.25396729 203.37992126 26.25396729 204.05992126 26.25396729 C204.05992126 27.57396729 204.05992126 28.89396729 204.05992126 30.25396729 C204.71992126 30.25396729 205.37992126 30.25396729 206.05992126 30.25396729 C206.05992126 31.57396729 206.05992126 32.89396729 206.05992126 34.25396729 C206.71992126 34.25396729 207.37992126 34.25396729 208.05992126 34.25396729 C208.05992126 36.23396729 208.05992126 38.21396729 208.05992126 40.25396729 C208.71992126 40.25396729 209.37992126 40.25396729 210.05992126 40.25396729 C210.05992126 41.57396729 210.05992126 42.89396729 210.05992126 44.25396729 C210.71992126 44.25396729 211.37992126 44.25396729 212.05992126 44.25396729 C212.05992126 45.57396729 212.05992126 46.89396729 212.05992126 48.25396729 C212.71992126 48.25396729 213.37992126 48.25396729 214.05992126 48.25396729 C214.43117126 49.73896729 214.43117126 49.73896729 214.80992126 51.25396729 C215.62855786 54.18444902 216.74838884 56.69947774 218.18492126 59.37896729 C219.81453223 62.48126372 220.50603856 64.68502891 220.05992126 68.25396729 C220.71992126 68.25396729 221.37992126 68.25396729 222.05992126 68.25396729 C222.05992126 69.57396729 222.05992126 70.89396729 222.05992126 72.25396729 C222.71992126 72.25396729 223.37992126 72.25396729 224.05992126 72.25396729 C224.05992126 73.57396729 224.05992126 74.89396729 224.05992126 76.25396729 C224.71992126 76.25396729 225.37992126 76.25396729 226.05992126 76.25396729 C226.05992126 77.57396729 226.05992126 78.89396729 226.05992126 80.25396729 C137.61992126 80.25396729 49.17992126 80.25396729 -41.94007874 80.25396729 C-41.94007874 78.93396729 -41.94007874 77.61396729 -41.94007874 76.25396729 C-41.28007874 76.25396729 -40.62007874 76.25396729 -39.94007874 76.25396729 C-39.94007874 74.93396729 -39.94007874 73.61396729 -39.94007874 72.25396729 C-39.28007874 72.25396729 -38.62007874 72.25396729 -37.94007874 72.25396729 C-37.94007874 70.93396729 -37.94007874 69.61396729 -37.94007874 68.25396729 C-37.28007874 68.25396729 -36.62007874 68.25396729 -35.94007874 68.25396729 C-35.98132874 67.53209229 -36.02257874 66.81021729 -36.06507874 66.06646729 C-35.93086568 63.04667359 -35.18837254 60.98460999 -33.94007874 58.25396729 C-33.28007874 58.25396729 -32.62007874 58.25396729 -31.94007874 58.25396729 C-31.94007874 56.93396729 -31.94007874 55.61396729 -31.94007874 54.25396729 C-31.28007874 54.25396729 -30.62007874 54.25396729 -29.94007874 54.25396729 C-29.98777405 53.51662354 -30.03546936 52.77927979 -30.08460999 52.01959229 C-29.92348253 48.93639668 -29.25105059 47.59002864 -27.62757874 45.00396729 C-25.01321822 40.58480676 -23.3697733 36.17072177 -21.94007874 31.25396729 C-21.28007874 31.25396729 -20.62007874 31.25396729 -19.94007874 31.25396729 C-19.18766765 27.59939913 -18.53958169 23.93662832 -17.94007874 20.25396729 C-17.28007874 20.25396729 -16.62007874 20.25396729 -15.94007874 20.25396729 C-15.94007874 18.93396729 -15.94007874 17.61396729 -15.94007874 16.25396729 C-15.28007874 16.25396729 -14.62007874 16.25396729 -13.94007874 16.25396729 C-13.81632874 15.61459229 -13.69257874 14.97521729 -13.56507874 14.31646729 C-13.25570374 12.80052979 -13.25570374 12.80052979 -12.94007874 11.25396729 C-12.80601624 10.50631104 -12.67195374 9.75865479 -12.53382874 8.98834229 C-12.37914124 8.18912354 -12.22445374 7.38990479 -12.06507874 6.56646729 C-11.85238342 5.415979 -11.85238342 5.415979 -11.63539124 4.24224854 C-9.81645174 -0.95910091 -4.55076595 -0.02643319 0 0 Z " fill="#000000" transform="translate(419.94007873535156,816.7460327148438)"/>
<path d="M0 0 C158.4 0 316.8 0 480 0 C480 0.66 480 1.32 480 2 C481.98 2 483.96 2 486 2 C486 2.66 486 3.32 486 4 C487.65 4 489.3 4 491 4 C491.33 5.98 491.66 7.96 492 10 C492.66 10 493.32 10 494 10 C494 13.96 494 17.92 494 22 C493.34 22 492.68 22 492 22 C491.855625 22.78375 491.71125 23.5675 491.5625 24.375 C491 27 491 27 490 29 C484.27685217 31.72167209 478.63402337 32.43502621 472.38061428 32.36914349 C471.55812194 32.37260502 470.7356296 32.37606655 469.88821325 32.37963298 C467.14431847 32.38754581 464.40095654 32.37413858 461.65708923 32.36076355 C459.66529151 32.36207242 457.67349429 32.36470033 455.68169981 32.36853105 C450.21781056 32.37523197 444.75409808 32.36324864 439.29023135 32.34819686 C433.39462904 32.33523517 427.49903662 32.33962606 421.60342407 32.34190369 C411.39198891 32.34347633 401.18061129 32.33406798 390.9691906 32.31719017 C380.26164351 32.29950387 369.55412105 32.28789011 358.84655952 32.28463173 C358.18034538 32.28442551 357.51413124 32.28421929 356.82772878 32.28400682 C353.44424783 32.2829918 350.06076685 32.28208766 346.67728586 32.2812262 C322.72339957 32.274928 298.76954324 32.25472441 274.81567383 32.22631836 C251.54744628 32.19875727 228.27922693 32.17751025 205.01098633 32.16479492 C204.29352917 32.16440034 203.57607201 32.16400576 202.83687373 32.16359923 C195.631755 32.15964361 188.42663621 32.15581617 181.22151737 32.15208265 C166.54437072 32.14447438 151.86722461 32.13601063 137.19007874 32.12702942 C136.51527417 32.12661755 135.84046961 32.12620568 135.14521642 32.12578133 C90.09679834 32.09818778 45.04839749 32.0505907 0 32 C0 31.34 0 30.68 0 30 C-1.98 30 -3.96 30 -6 30 C-6 29.34 -6 28.68 -6 28 C-7.32 28 -8.64 28 -10 28 C-10 27.34 -10 26.68 -10 26 C-10.66 26 -11.32 26 -12 26 C-12 25.01 -12 24.02 -12 23 C-12.66 23 -13.32 23 -14 23 C-14 18.71 -14 14.42 -14 10 C-13.34 10 -12.68 10 -12 10 C-12 8.68 -12 7.36 -12 6 C-11.34 6 -10.68 6 -10 6 C-10 5.34 -10 4.68 -10 4 C-8.68 4 -7.36 4 -6 4 C-6 3.34 -6 2.68 -6 2 C-4.02 2 -2.04 2 0 2 C0 1.34 0 0.68 0 0 Z " fill="#010101" transform="translate(272,929)"/>
<path d="M0 0 C158.4 0 316.8 0 480 0 C480 10.89 480 21.78 480 33 C321.6 33 163.2 33 0 33 C0 22.11 0 11.22 0 0 Z " fill="#8D6D73" transform="translate(240,593)"/>
<path d="M0 0 C132.33 0 264.66 0 401 0 C401 10.89 401 21.78 401 33 C268.67 33 136.34 33 0 33 C0 22.11 0 11.22 0 0 Z " fill="#CEC8C7" transform="translate(240,529)"/>
<path d="M0 0 C116.16 0 232.32 0 352 0 C352 10.89 352 21.78 352 33 C235.84 33 119.68 33 0 33 C0 22.11 0 11.22 0 0 Z " fill="#D6BFBD" transform="translate(240,465)"/>
<path d="M0 0 C100.32 0 200.64 0 304 0 C304 10.89 304 21.78 304 33 C203.68 33 103.36 33 0 33 C0 22.11 0 11.22 0 0 Z " fill="#D9BCB9" transform="translate(240,401)"/>
<path d="M0 0 C2.475 0.495 2.475 0.495 5 1 C5 1.66 5 2.32 5 3 C5.66 3 6.32 3 7 3 C9.125 4.875 9.125 4.875 11 7 C11 7.66 11 8.32 11 9 C11.66 9 12.32 9 13 9 C14.33203125 10.35546875 14.33203125 10.35546875 15.8125 12.1875 C19.04947663 16.08444273 22.33209234 19.72712311 26.375 22.8125 C28.68071113 24.73392595 30.44139865 26.60042877 32.375 28.875 C35.11238147 32.08638692 37.97470811 34.75015585 41.23046875 37.41796875 C43.93201407 39.83325762 46.20459373 42.58217782 48.51953125 45.36328125 C49.92100715 47.11188885 49.92100715 47.11188885 52 48 C54.25287983 52.18279436 54.24027221 56.1794437 54.125 60.8125 C54.11597656 61.50537109 54.10695313 62.19824219 54.09765625 62.91210938 C54.07426157 64.60822395 54.03839641 66.30415871 54 68 C53.34 68 52.68 68 52 68 C52 69.32 52 70.64 52 72 C51.34 72 50.68 72 50 72 C49.731875 72.639375 49.46375 73.27875 49.1875 73.9375 C48 76 48 76 45 77 C44.29605388 78.31403276 43.63654342 79.6520257 43 81 C40.85880596 84.04708383 38.52489186 86.45733226 35.69140625 88.8359375 C29.9767972 93.79339978 24.67997364 99.17041233 19.34301758 104.52661133 C17.54557764 106.32947341 15.74277339 108.12684985 13.93945312 109.92382812 C12.79394953 111.06999147 11.64875561 112.21646442 10.50390625 113.36328125 C9.96544571 113.89971756 9.42698517 114.43615387 8.87220764 114.98884583 C6.09156438 117.73434408 6.09156438 117.73434408 4 121 C2.68 120.67 1.36 120.34 0 120 C0 119.34 0 118.68 0 118 C-0.66 118 -1.32 118 -2 118 C-2 117.34 -2 116.68 -2 116 C-2.61875 115.7525 -3.2375 115.505 -3.875 115.25 C-6.40358627 113.76259631 -6.71839004 112.56321991 -8 110 C-9.3153341 109.29848848 -10.65117592 108.63474075 -12 108 C-14.25 106 -14.25 106 -16 104 C-16 103.34 -16 102.68 -16 102 C-16.66 102 -17.32 102 -18 102 C-18 101.34 -18 100.68 -18 100 C-19.32 99.34 -20.64 98.68 -22 98 C-21.67 96.68 -21.34 95.36 -21 94 C-20.34 94 -19.68 94 -19 94 C-18.58814453 93.11441406 -18.58814453 93.11441406 -18.16796875 92.2109375 C-15.16707836 86.53032225 -10.36435012 82.24721368 -5.41796875 78.26171875 C-3.8630558 77.03520707 -3.8630558 77.03520707 -3 75 C-2.34 75 -1.68 75 -1 75 C-1 74.34 -1 73.68 -1 73 C1.475 72.01 1.475 72.01 4 71 C4 70.34 4 69.68 4 69 C4.66 69 5.32 69 6 69 C6 68.34 6 67.68 6 67 C6.66 67 7.32 67 8 67 C8.66 65.35 9.32 63.7 10 62 C10.66 62 11.32 62 12 62 C12 60.68 12 59.36 12 58 C11.34 58 10.68 58 10 58 C10 57.34 10 56.68 10 56 C8.68 55.34 7.36 54.68 6 54 C6 53.34 6 52.68 6 52 C5.38125 51.7525 4.7625 51.505 4.125 51.25 C1.59641373 49.76259631 1.28160996 48.56321991 0 46 C-0.66 45.67 -1.32 45.34 -2 45 C-4.52845528 43.73577236 -4.76422764 42.47154472 -6 40 C-7.3153341 39.29848848 -8.65117592 38.63474075 -10 38 C-12.25 36 -12.25 36 -14 34 C-14 33.34 -14 32.68 -14 32 C-14.66 32 -15.32 32 -16 32 C-18.39628927 29.89594113 -20.47682419 28.01204501 -21.953125 25.15625 C-22 23 -22 23 -19.98046875 20.421875 C-19.05878906 19.54015625 -18.13710938 18.6584375 -17.1875 17.75 C-16.27355469 16.85796875 -15.35960937 15.9659375 -14.41796875 15.046875 C-12 13 -12 13 -10 13 C-10 12.34 -10 11.68 -10 11 C-9.34 10.67 -8.68 10.34 -8 10 C-7.67 9.01 -7.34 8.02 -7 7 C-6.34 7 -5.68 7 -5 7 C-4.67 6.01 -4.34 5.02 -4 4 C-3.01 4 -2.02 4 -1 4 C-0.67 2.68 -0.34 1.36 0 0 Z " fill="#C34A49" transform="translate(378,245)"/>
<path d="M0 0 C2.475 0.495 2.475 0.495 5 1 C5 1.66 5 2.32 5 3 C5.99 3.33 6.98 3.66 8 4 C9.4296875 5.453125 9.4296875 5.453125 10.875 7.25 C14.11100876 11.16685219 17.62178238 14.69628063 21.3125 18.1875 C23 20 23 20 23 22 C23.99 22 24.98 22 26 22 C25.505 24.475 25.505 24.475 25 27 C24.34 27 23.68 27 23 27 C23 27.66 23 28.32 23 29 C22.34 29 21.68 29 21 29 C20.73832031 29.58910156 20.47664063 30.17820312 20.20703125 30.78515625 C18.9357725 33.11785434 17.59769469 34.60354368 15.6875 36.4375 C15.11386719 36.99308594 14.54023438 37.54867187 13.94921875 38.12109375 C12.98435547 39.05115234 12.98435547 39.05115234 12 40 C9.37107647 42.61162798 6.76172227 45.24045765 4.17578125 47.89453125 C3.2213791 48.86721196 2.26695188 49.83986808 1.3125 50.8125 C0.82716797 51.31458984 0.34183594 51.81667969 -0.15820312 52.33398438 C-1.40124606 53.59417273 -2.69699892 54.80191044 -4 56 C-4.66 56 -5.32 56 -6 56 C-6.33 57.98 -6.66 59.96 -7 62 C-6.01 62.495 -6.01 62.495 -5 63 C-5 63.66 -5 64.32 -5 65 C-4.34 65 -3.68 65 -3 65 C-1.62280273 66.40283203 -1.62280273 66.40283203 0.00390625 68.3828125 C5.15772599 74.44660145 10.89621231 79.9076714 16.58789062 85.4609375 C17.41353516 86.275625 18.23917969 87.0903125 19.08984375 87.9296875 C19.84128662 88.66429199 20.59272949 89.39889648 21.36694336 90.15576172 C23 92 23 92 23 94 C24.485 94.495 24.485 94.495 26 95 C25.26018042 100.79455514 20.11272989 104.36799084 16.17211914 108.27392578 C14.69065619 109.74686198 13.22882891 111.23751042 11.76757812 112.73046875 C10.83751953 113.65988281 9.90746094 114.58929688 8.94921875 115.546875 C8.09674561 116.40120117 7.24427246 117.25552734 6.3659668 118.13574219 C4 120 4 120 0 120 C0 119.34 0 118.68 0 118 C-0.66 118 -1.32 118 -2 118 C-2 117.34 -2 116.68 -2 116 C-2.66 116 -3.32 116 -4 116 C-4 115.34 -4 114.68 -4 114 C-4.66 114 -5.32 114 -6 114 C-6 113.34 -6 112.68 -6 112 C-6.928125 111.62875 -6.928125 111.62875 -7.875 111.25 C-10.40358627 109.76259631 -10.71839004 108.56321991 -12 106 C-14.0335948 104.73195434 -14.0335948 104.73195434 -16 104 C-16 103.34 -16 102.68 -16 102 C-17.32 101.34 -18.64 100.68 -20 100 C-20 99.34 -20 98.68 -20 98 C-20.66 98 -21.32 98 -22 98 C-22 97.34 -22 96.68 -22 96 C-22.61875 95.7525 -23.2375 95.505 -23.875 95.25 C-26.35068687 93.79371361 -26.95125002 92.62187494 -28 90 C-28.66 90 -29.32 90 -30 90 C-30 89.34 -30 88.68 -30 88 C-30.66 88 -31.32 88 -32 88 C-32 87.34 -32 86.68 -32 86 C-32.66 86 -33.32 86 -34 86 C-34 85.34 -34 84.68 -34 84 C-34.66 84 -35.32 84 -36 84 C-36 83.34 -36 82.68 -36 82 C-36.66 82 -37.32 82 -38 82 C-38 81.34 -38 80.68 -38 80 C-38.66 80 -39.32 80 -40 80 C-40 79.34 -40 78.68 -40 78 C-40.66 78 -41.32 78 -42 78 C-42 77.34 -42 76.68 -42 76 C-42.61875 75.71125 -43.2375 75.4225 -43.875 75.125 C-46 74 -46 74 -48 72 C-48 70.68 -48 69.36 -48 68 C-48.66 68 -49.32 68 -50 68 C-50 62.72 -50 57.44 -50 52 C-49.34 52 -48.68 52 -48 52 C-47.89558594 51.40703125 -47.79117188 50.8140625 -47.68359375 50.203125 C-46.8994359 47.67589628 -45.94945476 46.5769782 -44.0625 44.75 C-43.27552734 43.96882813 -43.27552734 43.96882813 -42.47265625 43.171875 C-41 42 -41 42 -39 42 C-38.773125 41.443125 -38.54625 40.88625 -38.3125 40.3125 C-36.6296426 37.34746553 -34.46378626 35.34646311 -32 33 C-31.278125 32.236875 -30.55625 31.47375 -29.8125 30.6875 C-28 29 -28 29 -26 29 C-25.7613623 28.43466553 -25.52272461 27.86933105 -25.27685547 27.28686523 C-23.72388498 24.50547431 -21.84681909 22.63886398 -19.5703125 20.41015625 C-18.69246094 19.54326172 -17.81460938 18.67636719 -16.91015625 17.78320312 C-15.99105469 16.88537109 -15.07195312 15.98753906 -14.125 15.0625 C-12.31279726 13.28490085 -10.50282335 11.50502603 -8.6953125 9.72265625 C-7.89109863 8.93640869 -7.08688477 8.15016113 -6.25830078 7.34008789 C-4.00261783 5.00271263 -1.9871961 2.56743462 0 0 Z " fill="#C54B4A" transform="translate(226,245)"/>
<path d="M0 0 C2.64 0 5.28 0 8 0 C8 0.66 8 1.32 8 2 C10.64 2 13.28 2 16 2 C16 2.66 16 3.32 16 4 C18.64 4 21.28 4 24 4 C24 4.66 24 5.32 24 6 C26.64 6 29.28 6 32 6 C32 9.3 32 12.6 32 16 C31.34 16 30.68 16 30 16 C30 18.64 30 21.28 30 24 C29.34 24 28.68 24 28 24 C28 26.64 28 29.28 28 32 C27.34 32 26.68 32 26 32 C26 34.64 26 37.28 26 40 C25.34 40 24.68 40 24 40 C24 42.64 24 45.28 24 48 C23.34 48 22.68 48 22 48 C22 50.64 22 53.28 22 56 C21.34 56 20.68 56 20 56 C20 58.64 20 61.28 20 64 C19.34 64 18.68 64 18 64 C18 66.64 18 69.28 18 72 C17.34 72 16.68 72 16 72 C16 74.64 16 77.28 16 80 C15.34 80 14.68 80 14 80 C14 82.64 14 85.28 14 88 C13.34 88 12.68 88 12 88 C12 90.64 12 93.28 12 96 C11.34 96 10.68 96 10 96 C10 98.97 10 101.94 10 105 C9.34 105 8.68 105 8 105 C8 107.31 8 109.62 8 112 C7.34 112 6.68 112 6 112 C6 114.64 6 117.28 6 120 C5.34 120 4.68 120 4 120 C4 122.64 4 125.28 4 128 C3.34 128 2.68 128 2 128 C2 130.64 2 133.28 2 136 C0.18757948 136.02687279 -1.62495233 136.04633715 -3.4375 136.0625 C-4.44683594 136.07410156 -5.45617187 136.08570313 -6.49609375 136.09765625 C-9 136 -9 136 -10 135 C-11.155 134.835 -12.31 134.67 -13.5 134.5 C-17 134 -17 134 -18 133 C-20.34723966 132.602507 -22.70328548 132.25631277 -25.0625 131.9375 C-26.35285156 131.76089844 -27.64320313 131.58429688 -28.97265625 131.40234375 C-29.97167969 131.26957031 -30.97070312 131.13679687 -32 131 C-32.09765625 124.84765625 -32.09765625 124.84765625 -32 123 C-31.505 122.505 -31.505 122.505 -31 122 C-30.76924918 120.65252916 -30.58846937 119.29622435 -30.4375 117.9375 C-30.293125 116.638125 -30.14875 115.33875 -30 114 C-29.34 114 -28.68 114 -28 114 C-28 111.36 -28 108.72 -28 106 C-27.34 106 -26.68 106 -26 106 C-26 103.36 -26 100.72 -26 98 C-25.34 98 -24.68 98 -24 98 C-24 95.36 -24 92.72 -24 90 C-23.34 90 -22.68 90 -22 90 C-22 87.36 -22 84.72 -22 82 C-21.34 82 -20.68 82 -20 82 C-20 79.36 -20 76.72 -20 74 C-19.34 74 -18.68 74 -18 74 C-18 71.36 -18 68.72 -18 66 C-17.34 66 -16.68 66 -16 66 C-16 63.36 -16 60.72 -16 58 C-15.34 58 -14.68 58 -14 58 C-14 55.36 -14 52.72 -14 50 C-13.34 50 -12.68 50 -12 50 C-12 47.36 -12 44.72 -12 42 C-11.34 42 -10.68 42 -10 42 C-10 39.36 -10 36.72 -10 34 C-9.34 34 -8.68 34 -8 34 C-8 31.36 -8 28.72 -8 26 C-7.34 26 -6.68 26 -6 26 C-6 23.36 -6 20.72 -6 18 C-5.34 18 -4.68 18 -4 18 C-4 15.36 -4 12.72 -4 10 C-3.34 10 -2.68 10 -2 10 C-2 7.36 -2 4.72 -2 2 C-1.34 2 -0.68 2 0 2 C0 1.34 0 0.68 0 0 Z " fill="#C54A4A" transform="translate(304,237)"/>
<path d="M0 0 C122.1 0 244.2 0 370 0 C370 10.56 370 21.12 370 32 C253.84 32 137.68 32 18 32 C21.45035393 29.69976405 22.70997471 29.75096562 26.77275372 29.75390434 C27.98398173 29.74992225 29.19520975 29.74594015 30.44314164 29.74183738 C31.79418239 29.74754381 33.14522237 29.75343501 34.4962616 29.75949097 C35.92603247 29.75861929 37.35580302 29.75686902 38.78557187 29.75431263 C42.72377902 29.74982759 46.66187796 29.75785861 50.60007131 29.76786876 C54.84341204 29.77648435 59.08674638 29.77358444 63.33009338 29.77206421 C70.68507019 29.77101416 78.04001158 29.7773033 85.39497948 29.78853989 C96.02909862 29.80477566 106.66320058 29.81000092 117.29733077 29.81251587 C134.54938583 29.816896 151.801422 29.83021371 169.0534668 29.84912109 C185.81485906 29.86747168 202.5762462 29.8816322 219.33764648 29.89013672 C220.37035878 29.89066217 221.40307108 29.89118761 222.46707769 29.89172898 C227.64775441 29.89433901 232.82843117 29.89686644 238.00910795 29.89935279 C281.00608505 29.92009518 324.00304155 29.95532935 367 30 C368.5353688 20.78778719 368 11.33928382 368 2 C243.92 2.33 119.84 2.66 -8 3 C-8 2.67 -8 2.34 -8 2 C-5.36 2 -2.72 2 0 2 C0 1.34 0 0.68 0 0 Z " fill="#CE403D" transform="translate(158,161)"/>
<path d="M0 0 C10.56 0 21.12 0 32 0 C32 10.89 32 21.78 32 33 C21.44 33 10.88 33 0 33 C0 22.11 0 11.22 0 0 Z " fill="#88656C" transform="translate(752,593)"/>
<path d="M0 0 C10.56 0 21.12 0 32 0 C32 10.89 32 21.78 32 33 C21.44 33 10.88 33 0 33 C0 22.11 0 11.22 0 0 Z " fill="#CCC7C7" transform="translate(736,529)"/>
<path d="M0 0 C10.56 0 21.12 0 32 0 C32 10.89 32 21.78 32 33 C21.44 33 10.88 33 0 33 C0 22.11 0 11.22 0 0 Z " fill="#CCC7C6" transform="translate(672,529)"/>
<path d="M0 0 C10.56 0 21.12 0 32 0 C32 10.89 32 21.78 32 33 C21.44 33 10.88 33 0 33 C0 22.11 0 11.22 0 0 Z " fill="#D4BEBC" transform="translate(176,465)"/>
<path d="M0 0 C10.56 0 21.12 0 32 0 C32 10.56 32 21.12 32 32 C21.44 32 10.88 32 0 32 C0 21.44 0 10.88 0 0 Z " fill="#6E535C" transform="translate(496,721)"/>
<path d="M0 0 C10.56 0 21.12 0 32 0 C32 10.56 32 21.12 32 32 C21.44 32 10.88 32 0 32 C0 21.44 0 10.88 0 0 Z " fill="#D4CCCB" transform="translate(176,530)"/>
<path d="M0 0 C10.56 0 21.12 0 32 0 C32 10.23 32 20.46 32 31 C21.44 31 10.88 31 0 31 C0 20.77 0 10.54 0 0 Z " fill="#8A6269" transform="translate(816,594)"/>
<path d="M0 0 C10.56 0 21.12 0 32 0 C32 10.23 32 20.46 32 31 C21.44 31 10.88 31 0 31 C0 20.77 0 10.54 0 0 Z " fill="#8D686F" transform="translate(176,594)"/>
<path d="M0 0 C10.56 0 21.12 0 32 0 C32 10.23 32 20.46 32 31 C21.44 31 10.88 31 0 31 C0 20.77 0 10.54 0 0 Z " fill="#DEBFBC" transform="translate(176,402)"/>
<path d="M0 0 C0.66 0 1.32 0 2 0 C2.51046875 1.17755859 2.51046875 1.17755859 3.03125 2.37890625 C8.05320028 13.26425062 13.78827324 18.82155554 25 23 C25 23.66 25 24.32 25 25 C24.21496094 25.3403125 23.42992187 25.680625 22.62109375 26.03125 C11.73574938 31.05320028 6.17844446 36.78827324 2 48 C1.34 48 0.68 48 0 48 C-0.3403125 47.21496094 -0.680625 46.42992187 -1.03125 45.62109375 C-6.05320028 34.73574938 -11.78827324 29.17844446 -23 25 C-23 24.34 -23 23.68 -23 23 C-22.21496094 22.6596875 -21.42992187 22.319375 -20.62109375 21.96875 C-9.73574938 16.94679972 -4.17844446 11.21172676 0 0 Z " fill="#7D7D7D" transform="translate(967,944)"/>
<path d="M0 0 C10.56 0 21.12 0 32 0 C32 10.56 32 21.12 32 32 C21.44 32 10.88 32 0 32 C0 21.44 0 10.88 0 0 Z M2 2 C2 11.24 2 20.48 2 30 C11.24 30 20.48 30 30 30 C30 20.76 30 11.52 30 2 C20.76 2 11.52 2 2 2 Z " fill="#C6BFBE" transform="translate(176,530)"/>
<path d="M0 0 C2.64 0 5.28 0 8 0 C8 0.66 8 1.32 8 2 C6.02 2 4.04 2 2 2 C2.33 10.91 2.66 19.82 3 29 C4.65 29.33 6.3 29.66 8 30 C8 30.33 8 30.66 8 31 C5.36 31 2.72 31 0 31 C0 20.77 0 10.54 0 0 Z " fill="#D7B9B6" transform="translate(176,402)"/>
<path d="M0 0 C2.64 0 5.28 0 8 0 C8 0.66 8 1.32 8 2 C6.02 2 4.04 2 2 2 C2.33 11.24 2.66 20.48 3 30 C2.01 30.33 1.02 30.66 0 31 C0 20.77 0 10.54 0 0 Z " fill="#8A696F" transform="translate(240,594)"/>
<path d="M0 0 C1.32 0 2.64 0 4 0 C4 10.23 4 20.46 4 31 C1.36 31 -1.28 31 -4 31 C-4 30.67 -4 30.34 -4 30 C-2.35 29.67 -0.7 29.34 1 29 C1.33 19.76 1.66 10.52 2 1 C1.34 0.67 0.68 0.34 0 0 Z " fill="#D4BDBD" transform="translate(588,466)"/>
<path d="M0 0 C0.66 0 1.32 0 2 0 C0.34763349 4.29067546 -2.8905207 7.1429553 -6.1015625 10.296875 C-6.69802582 10.89050842 -7.29448914 11.48414185 -7.9090271 12.09576416 C-9.8096981 13.98526627 -11.71721474 15.86768392 -13.625 17.75 C-14.91712468 19.03209065 -16.20879676 20.31463761 -17.5 21.59765625 C-20.66144479 24.73708432 -23.8290461 27.87017801 -27 31 C-26.67 31.99 -26.34 32.98 -26 34 C-26.99 33.67 -27.98 33.34 -29 33 C-28.52337157 28.71034412 -26.0040778 26.90210061 -23 24 C-21.7625 22.7625 -21.7625 22.7625 -20.5 21.5 C-18 19 -15.5 16.5 -13 14 C-11.72382813 12.72189453 -11.72382813 12.72189453 -10.421875 11.41796875 C-8.95844121 9.95689534 -7.49088896 8.49990865 -6.015625 7.05078125 C-5.14164063 6.19033203 -5.14164063 6.19033203 -4.25 5.3125 C-3.65703125 4.73113281 -3.0640625 4.14976562 -2.453125 3.55078125 C-0.90358196 2.04486026 -0.90358196 2.04486026 0 0 Z " fill="#240C0D" transform="translate(247,274)"/>
<path d="M0 0 C0.33 1.32 0.66 2.64 1 4 C0.01 4.33 -0.98 4.66 -2 5 C-2 22.16 -2 39.32 -2 57 C-2.33 57 -2.66 57 -3 57 C-3 39.18 -3 21.36 -3 3 C-2.34 3 -1.68 3 -1 3 C-0.67 2.01 -0.34 1.02 0 0 Z " fill="#974649" transform="translate(886,393)"/>
<path d="M0 0 C0.33 0.99 0.66 1.98 1 3 C0.14535156 3.83144531 -0.70929688 4.66289063 -1.58984375 5.51953125 C-2.70599177 6.61692048 -3.82186282 7.71459145 -4.9375 8.8125 C-5.50146484 9.35970703 -6.06542969 9.90691406 -6.64648438 10.47070312 C-10.01029562 13.77960394 -10.01029562 13.77960394 -12 18 C-12.66 18 -13.32 18 -14 18 C-13.938125 18.928125 -13.87625 19.85625 -13.8125 20.8125 C-14 24 -14 24 -15.5 25.875 C-16.2425 26.431875 -16.2425 26.431875 -17 27 C-17 25.02 -17 23.04 -17 21 C-16.34 21 -15.68 21 -15 21 C-15 19.68 -15 18.36 -15 17 C-14.34 17 -13.68 17 -13 17 C-13 15.68 -13 14.36 -13 13 C-12.34 13 -11.68 13 -11 13 C-10.76539063 12.43796875 -10.53078125 11.8759375 -10.2890625 11.296875 C-8.69337 8.45364109 -6.71075457 6.51901873 -4.375 4.25 C-3.55773437 3.45078125 -2.74046875 2.6515625 -1.8984375 1.828125 C-0.95871094 0.92320312 -0.95871094 0.92320312 0 0 Z " fill="#433D40" transform="translate(243,904)"/>
<path d="M0 0 C0 3.69859196 -0.79844389 4.22773143 -3.25 6.875 C-3.889375 7.58011719 -4.52875 8.28523437 -5.1875 9.01171875 C-5.785625 9.66785156 -6.38375 10.32398438 -7 11 C-9.13648108 13.55190795 -10.97537942 15.9589657 -12.6875 18.8125 C-13.120625 19.534375 -13.55375 20.25625 -14 21 C-14.33 21 -14.66 21 -15 21 C-15.1875 18.625 -15.1875 18.625 -15 16 C-14.01 15.34 -13.02 14.68 -12 14 C-11.896875 13.401875 -11.79375 12.80375 -11.6875 12.1875 C-10.77892206 9.29657018 -8.96862312 8.1214291 -6.6328125 6.3046875 C-4.22649043 4.38193255 -2.1446777 2.20775645 0 0 Z M-18 21 C-17.01 21.33 -16.02 21.66 -15 22 C-15.99 22.66 -16.98 23.32 -18 24 C-18 23.01 -18 22.02 -18 21 Z " fill="#BB3837" transform="translate(123,179)"/>
<path d="M0 0 C0.33 0.66 0.66 1.32 1 2 C0.09636719 2.47050781 -0.80726563 2.94101563 -1.73828125 3.42578125 C-2.92983986 4.05439878 -4.12123772 4.68332109 -5.3125 5.3125 C-5.90740234 5.62123047 -6.50230469 5.92996094 -7.11523438 6.24804688 C-10.19175238 7.88083576 -12.60765538 9.48377994 -15 12 C-15.66 12 -16.32 12 -17 12 C-16.3125 9.625 -16.3125 9.625 -15 7 C-12.4375 5.8125 -12.4375 5.8125 -10 5 C-9.67 4.34 -9.34 3.68 -9 3 C-7.68 3 -6.36 3 -5 3 C-5 2.34 -5 1.68 -5 1 C-3.35 0.67 -1.7 0.34 0 0 Z " fill="#BE3B38" transform="translate(145,166)"/>
<path d="M0 0 C0.66 0 1.32 0 2 0 C1.75 1.875 1.75 1.875 1 4 C-1.97186035 5.90408138 -4.27587335 6.24005291 -7.765625 6.1953125 C-8.65507813 6.18886719 -9.54453125 6.18242187 -10.4609375 6.17578125 C-11.38132812 6.15902344 -12.30171875 6.14226562 -13.25 6.125 C-14.18585937 6.11597656 -15.12171875 6.10695312 -16.0859375 6.09765625 C-18.39088657 6.07413636 -20.6953116 6.04126853 -23 6 C-23 5.67 -23 5.34 -23 5 C-15.41 4.01 -7.82 3.02 0 2 C0 1.34 0 0.68 0 0 Z " fill="#9E2E2E" transform="translate(649,164)"/>
<path d="M0 0 C0.66 0 1.32 0 2 0 C1.67 1.32 1.34 2.64 1 4 C0.34 4 -0.32 4 -1 4 C-1 4.66 -1 5.32 -1 6 C-1.99 6 -2.98 6 -4 6 C-4 6.99 -4 7.98 -4 9 C-5.42578125 10.640625 -5.42578125 10.640625 -7.3125 12.25 C-7.92738281 12.79140625 -8.54226563 13.3328125 -9.17578125 13.890625 C-9.77777344 14.25671875 -10.37976563 14.6228125 -11 15 C-11.99 14.67 -12.98 14.34 -14 14 C-13.0479279 12.99403703 -12.08812654 11.99538437 -11.125 11 C-10.32449219 10.1646875 -10.32449219 10.1646875 -9.5078125 9.3125 C-8 8 -8 8 -6 8 C-5.62875 7.071875 -5.62875 7.071875 -5.25 6.125 C-3.79371361 3.64931313 -2.62187494 3.04874998 0 2 C0 1.34 0 0.68 0 0 Z " fill="#9A4B50" transform="translate(734,406)"/>
<path d="M0 0 C0.33 0 0.66 0 1 0 C2.25 7.625 2.25 7.625 0 11 C-0.3663859 13.41713479 -0.3663859 13.41713479 -0.4140625 16.10546875 C-0.45273437 17.08837891 -0.49140625 18.07128906 -0.53125 19.08398438 C-0.5621875 20.10814453 -0.593125 21.13230469 -0.625 22.1875 C-0.66367187 23.22326172 -0.70234375 24.25902344 -0.7421875 25.32617188 C-0.83648296 27.88393622 -0.92208202 30.44169287 -1 33 C-1.33 33 -1.66 33 -2 33 C-2 24.42 -2 15.84 -2 7 C-1.34 7 -0.68 7 0 7 C0 4.69 0 2.38 0 0 Z " fill="#81393E" transform="translate(646,392)"/>
<path d="M0 0 C5.65611463 -0.56561146 9.22642128 1.28608722 14 4 C14 4.33 14 4.66 14 5 C12.02 5 10.04 5 8 5 C8 4.34 8 3.68 8 3 C6.68 3 5.36 3 4 3 C4 2.34 4 1.68 4 1 C2.68 0.67 1.36 0.34 0 0 Z " fill="#7F3C41" transform="translate(648,451)"/>
<path d="M0 0 C0.33 0.66 0.66 1.32 1 2 C0.34 2 -0.32 2 -1 2 C-1 2.66 -1 3.32 -1 4 C-1.66 4 -2.32 4 -3 4 C-3.33 5.65 -3.66 7.3 -4 9 C-5.98 9.66 -7.96 10.32 -10 11 C-9.04956626 9.66102417 -8.08940853 8.32894573 -7.125 7 C-6.59132813 6.2575 -6.05765625 5.515 -5.5078125 4.75 C-5.01023437 4.1725 -4.51265625 3.595 -4 3 C-3.34 3 -2.68 3 -2 3 C-2 2.34 -2 1.68 -2 1 C-1.34 0.67 -0.68 0.34 0 0 Z " fill="#AE9A98" transform="translate(827,311)"/>
<path d="M0 0 C0.33 1.32 0.66 2.64 1 4 C0.34 4 -0.32 4 -1 4 C-1 5.32 -1 6.64 -1 8 C-1.66 8 -2.32 8 -3 8 C-3 9.98 -3 11.96 -3 14 C-3.66 13.67 -4.32 13.34 -5 13 C-4.54996653 7.37458159 -3.31558515 4.38512875 0 0 Z " fill="#D14443" transform="translate(135,215)"/>
<path d="M0 0 C0.99 0.33 1.98 0.66 3 1 C2.01 2.485 2.01 2.485 1 4 C0.34 4 -0.32 4 -1 4 C-1 4.99 -1 5.98 -1 7 C-2.65 7 -4.3 7 -6 7 C-5.34 6.01 -4.68 5.02 -4 4 C-3.34 4 -2.68 4 -2 4 C-1.34 2.68 -0.68 1.36 0 0 Z " fill="#844347" transform="translate(720,467)"/>
<path d="M0 0 C0.66 1.32 1.32 2.64 2 4 C1.01 4.495 1.01 4.495 0 5 C0 8.63 0 12.26 0 16 C-0.66 16 -1.32 16 -2 16 C-2 11.71 -2 7.42 -2 3 C-1.34 3 -0.68 3 0 3 C0 2.01 0 1.02 0 0 Z " fill="#9D312F" transform="translate(552,188)"/>
<path d="M0 0 C0.33 1.32 0.66 2.64 1 4 C-1.97 6.475 -1.97 6.475 -5 9 C-4.67 7.68 -4.34 6.36 -4 5 C-3.34 5 -2.68 5 -2 5 C-1.7834375 4.0409375 -1.7834375 4.0409375 -1.5625 3.0625 C-1 1 -1 1 0 0 Z " fill="#CF4140" transform="translate(683,131)"/>
<path d="M0 0 C0 0.66 0 1.32 0 2 C-2.90600261 3.25664978 -4.79604584 4 -8 4 C-7.67 3.01 -7.34 2.02 -7 1 C-4 0 -4 0 0 0 Z " fill="#DCCBCA" transform="translate(819,359)"/>
<path d="M0 0 C1.98 0 3.96 0 6 0 C3.66666667 2.33333333 1.33333333 4.66666667 -1 7 C-0.67 4.69 -0.34 2.38 0 0 Z " fill="#D4484A" transform="translate(304,238)"/>
<path d="M0 0 C0.99 0 1.98 0 3 0 C3 0.66 3 1.32 3 2 C3.66 2 4.32 2 5 2 C5.33 3.32 5.66 4.64 6 6 C4.68 5.34 3.36 4.68 2 4 C2 3.34 2 2.68 2 2 C1.34 2 0.68 2 0 2 C0 1.34 0 0.68 0 0 Z " fill="#E0CBC5" transform="translate(710,315)"/>
</svg>
