<?xml version="1.0" encoding="UTF-8"?>
<svg version="1.1" xmlns="http://www.w3.org/2000/svg" width="512" height="512">
<path d="M0 0 C1.30904297 -0.0038269 2.61808594 -0.00765381 3.96679688 -0.01159668 C6.73066196 -0.01747605 9.49400802 -0.00898041 12.2578125 0.00976562 C15.78862831 0.03255558 19.31822777 0.01942391 22.84899902 -0.00452423 C26.23276177 -0.02250956 29.61620276 -0.00989232 33 0 C34.89395508 -0.01214539 34.89395508 -0.01214539 36.82617188 -0.02453613 C47.67853093 0.09128453 47.67853093 0.09128453 52.5 4.53125 C57.71410778 10.00781287 57.1612503 16.2578652 57.25 23.40625 C57.29447266 25.15421875 57.29447266 25.15421875 57.33984375 26.9375 C57.41028601 29.80215195 57.46311113 32.66600205 57.5 35.53125 C58.78390625 35.81097656 60.0678125 36.09070312 61.390625 36.37890625 C77.61331476 40.01745253 93.18467413 45.04238825 108.5 51.53125 C109.51320313 50.21060547 109.51320313 50.21060547 110.546875 48.86328125 C111.44789046 47.69008404 112.3489336 46.51690808 113.25 45.34375 C113.6934375 44.76560547 114.136875 44.18746094 114.59375 43.59179688 C115.89210072 41.90203161 117.19559249 40.21634187 118.5 38.53125 C119.21414063 37.603125 119.92828125 36.675 120.6640625 35.71875 C123.53221037 32.30138232 126.37656758 30.86043629 130.79296875 30.17578125 C141.71475996 29.54925989 148.90277827 36.45235635 157.12329102 42.72998047 C162.62094401 46.92287765 168.25336992 50.87001657 174.00805664 54.70166016 C187.02336375 63.46232231 187.02336375 63.46232231 189.1171875 70.47265625 C190.53121913 78.0766835 187.56689071 82.63374225 183.421875 88.765625 C182.47054687 90.13460937 182.47054687 90.13460937 181.5 91.53125 C180.3516599 93.25875294 179.20559761 94.98777362 178.0625 96.71875 C177.20954083 97.99039409 176.35586516 99.26155993 175.5 100.53125 C176.09425781 101.15128906 176.68851562 101.77132812 177.30078125 102.41015625 C205.5 132.53902605 205.5 132.53902605 205.5 143.53125 C206.28479736 143.25861328 206.28479736 143.25861328 207.08544922 142.98046875 C229.05070343 135.44123958 229.05070343 135.44123958 236.73046875 138.38671875 C244.98449511 142.79187307 247.19915893 152.0227756 249.91796875 160.4375 C250.3720385 161.82370544 250.3720385 161.82370544 250.83528137 163.23791504 C251.46940768 165.17988906 252.10035912 167.12290242 252.72827148 169.06689453 C253.68575078 172.02584428 254.65763144 174.97979174 255.63085938 177.93359375 C256.24826916 179.83044513 256.86483428 181.72757169 257.48046875 183.625 C257.76899216 184.49918579 258.05751556 185.37337158 258.3547821 186.27404785 C262.71432523 199.88360774 262.71432523 199.88360774 260.4375 205.71875 C260.21964844 206.33105469 260.00179688 206.94335938 259.77734375 207.57421875 C253.58822193 217.05663475 242.79383438 217.92840797 232.5 221.53125 C232.5 239.35125 232.5 257.17125 232.5 275.53125 C239.1 277.84125 245.7 280.15125 252.5 282.53125 C259.59090909 288.44034091 259.59090909 288.44034091 260.5 292.53125 C261.170587 300.2855916 259.61162219 306.73137073 257.17578125 314.05078125 C256.8325029 315.11237961 256.48922455 316.17397797 256.13554382 317.26774597 C255.41053272 319.49622175 254.67813652 321.72230715 253.9387207 323.94604492 C252.81225453 327.34449057 251.71827849 330.75223887 250.62695312 334.16210938 C249.91598586 336.3339639 249.20315877 338.50521067 248.48828125 340.67578125 C248.16410721 341.69041946 247.83993317 342.70505768 247.50593567 343.7504425 C245.15531712 350.71780447 242.94182924 354.31318227 236.6875 358.34375 C229.21552684 361.12742627 222.7272698 358.99584892 215.5 356.53125 C214.62988281 356.24507813 213.75976562 355.95890625 212.86328125 355.6640625 C210.73846032 354.96357208 208.61783122 354.25254034 206.5 353.53125 C206.18885254 354.03873779 205.87770508 354.54622559 205.55712891 355.0690918 C199.02991905 365.67191544 192.35493482 375.86265543 184.5 385.53125 C184.06961426 386.06314941 183.63922852 386.59504883 183.19580078 387.14306641 C180.64932616 390.28815613 178.08389215 393.41684859 175.5 396.53125 C180.25734226 404.15193655 180.25734226 404.15193655 185.375 411.53125 C188.99653201 416.64400107 189.16728281 421.43991118 188.5 427.53125 C184.6673797 435.50310023 176.22304722 440.58979576 169.1875 445.59375 C167.60659968 446.72502128 166.02587603 447.85653948 164.4453125 448.98828125 C163.23149902 449.85573975 163.23149902 449.85573975 161.99316406 450.74072266 C159.46263712 452.55808307 156.94461438 454.39159226 154.4296875 456.23046875 C153.61411377 456.82529053 152.79854004 457.4201123 151.95825195 458.03295898 C150.38709888 459.17950206 148.81785413 460.32866577 147.25073242 461.48071289 C146.18495972 462.25596313 146.18495972 462.25596313 145.09765625 463.046875 C144.16191772 463.73185059 144.16191772 463.73185059 143.20727539 464.43066406 C138.70025195 467.33609259 133.651107 466.93557551 128.5 466.53125 C121.84078074 464.66666861 118.44486847 458.84667019 114.5 453.53125 C113.41724839 452.08680334 112.33388816 450.64281275 111.25 449.19921875 C110.33328383 447.97659961 109.41660001 446.75395622 108.5 445.53125 C107.54299194 445.90092896 107.54299194 445.90092896 106.56665039 446.27807617 C90.41929491 452.4908281 74.53699768 458.29157669 57.5 461.53125 C57.48598145 462.62010498 57.48598145 462.62010498 57.47167969 463.73095703 C57.41778719 467.04006214 57.33417561 470.34778238 57.25 473.65625 C57.23582031 474.79835938 57.22164063 475.94046875 57.20703125 477.1171875 C56.89308206 487.91703965 56.89308206 487.91703965 52.5 492.53125 C46.74446938 497.83136846 40.50910987 497.11065375 33 497.0625 C31.69095703 497.0663269 30.38191406 497.07015381 29.03320312 497.07409668 C26.26933804 497.07997605 23.50599198 497.07148041 20.7421875 497.05273438 C17.21137169 497.02994442 13.68177223 497.04307609 10.15100098 497.06702423 C6.76723823 497.08500956 3.38379724 497.07239232 0 497.0625 C-1.26263672 497.07059692 -2.52527344 497.07869385 -3.82617188 497.08703613 C-14.67853093 496.97121547 -14.67853093 496.97121547 -19.5 492.53125 C-24.71410778 487.05468713 -24.1612503 480.8046348 -24.25 473.65625 C-24.27964844 472.4909375 -24.30929688 471.325625 -24.33984375 470.125 C-24.41028601 467.26034805 -24.46311113 464.39649795 -24.5 461.53125 C-26.42585938 461.11166016 -26.42585938 461.11166016 -28.390625 460.68359375 C-44.61331476 457.04504747 -60.18467413 452.02011175 -75.5 445.53125 C-76.16386719 446.40007812 -76.82773438 447.26890625 -77.51171875 448.1640625 C-78.40357967 449.3281757 -79.2955105 450.49223533 -80.1875 451.65625 C-80.62255859 452.22601563 -81.05761719 452.79578125 -81.50585938 453.3828125 C-82.82793859 455.10641207 -84.16132399 456.82051556 -85.5 458.53125 C-86.15029175 459.37296753 -86.15029175 459.37296753 -86.8137207 460.23168945 C-90.28976072 464.59878379 -93.07213575 466.48588355 -98.5 467.53125 C-107.96503238 467.96476293 -115.13538605 461.48272706 -122.3125 456.09375 C-127.37728296 452.31600602 -132.44500248 448.55042038 -137.6015625 444.8984375 C-138.41391357 444.32150146 -139.22626465 443.74456543 -140.06323242 443.15014648 C-141.60892859 442.0555234 -143.158398 440.96620278 -144.7121582 439.88305664 C-150.5392827 435.74222107 -154.93424026 431.79068151 -156.5 424.53125 C-156.63272216 416.70064256 -152.85782464 411.80226594 -148.5 405.53125 C-147.3516599 403.80374706 -146.20559761 402.07472638 -145.0625 400.34375 C-144.20954083 399.07210591 -143.35586516 397.80094007 -142.5 396.53125 C-143.09425781 395.91121094 -143.68851562 395.29117187 -144.30078125 394.65234375 C-172.5 364.52347395 -172.5 364.52347395 -172.5 353.53125 C-173.33809204 353.80388672 -173.33809204 353.80388672 -174.19311523 354.08203125 C-176.77043934 354.91196738 -179.3537182 355.72165288 -181.9375 356.53125 C-182.81599609 356.81742187 -183.69449219 357.10359375 -184.59960938 357.3984375 C-191.07296599 359.40493918 -197.37403335 360.87850442 -203.98828125 358.71875 C-204.59027344 358.326875 -205.19226563 357.935 -205.8125 357.53125 C-206.42738281 357.16 -207.04226562 356.78875 -207.67578125 356.40625 C-212.71215276 351.22967971 -214.74299543 343.35654884 -216.91796875 336.625 C-217.22068192 335.70086304 -217.52339508 334.77672607 -217.83528137 333.82458496 C-218.46940768 331.88261094 -219.10035912 329.93959758 -219.72827148 327.99560547 C-220.68575078 325.03665572 -221.65763144 322.08270826 -222.63085938 319.12890625 C-223.24826916 317.23205487 -223.86483428 315.33492831 -224.48046875 313.4375 C-224.91325386 312.12622131 -224.91325386 312.12622131 -225.3547821 310.78845215 C-229.71432523 297.17889226 -229.71432523 297.17889226 -227.4375 291.34375 C-227.21964844 290.73144531 -227.00179687 290.11914062 -226.77734375 289.48828125 C-220.58822193 280.00586525 -209.79383438 279.13409203 -199.5 275.53125 C-199.5 257.71125 -199.5 239.89125 -199.5 221.53125 C-206.1 219.22125 -212.7 216.91125 -219.5 214.53125 C-225.7371134 209.54155928 -225.7371134 209.54155928 -227.5 204.53125 C-228.34806353 196.83820946 -226.58742875 190.25843087 -224.17578125 183.01171875 C-223.66086372 181.41932121 -223.66086372 181.41932121 -223.13554382 179.79475403 C-222.41053272 177.56627825 -221.67813652 175.34019285 -220.9387207 173.11645508 C-219.81225453 169.71800943 -218.71827849 166.31026113 -217.62695312 162.90039062 C-216.91598586 160.7285361 -216.20315877 158.55728933 -215.48828125 156.38671875 C-215.16410721 155.37208054 -214.83993317 154.35744232 -214.50593567 153.3120575 C-212.15531712 146.34469553 -209.94182924 142.74931773 -203.6875 138.71875 C-196.21552684 135.93507373 -189.7272698 138.06665108 -182.5 140.53125 C-181.62988281 140.81742188 -180.75976562 141.10359375 -179.86328125 141.3984375 C-177.73846032 142.09892792 -175.61783122 142.80995966 -173.5 143.53125 C-173.02542358 142.76216309 -173.02542358 142.76216309 -172.54125977 141.97753906 C-163.44468262 127.28218238 -153.68875164 113.70547948 -142.5 100.53125 C-143.54033108 98.88457211 -144.58235447 97.23896339 -145.625 95.59375 C-146.25792969 94.58441406 -146.89085937 93.57507813 -147.54296875 92.53515625 C-149.40551243 89.59218569 -149.40551243 89.59218569 -151.30078125 87.18359375 C-155.12133789 82.159425 -156.34735143 78.39149052 -155.94921875 72.0390625 C-154.2625995 62.62332723 -143.46254841 56.64304678 -136.1875 51.46875 C-134.60659968 50.33747872 -133.02587603 49.20596052 -131.4453125 48.07421875 C-130.63610352 47.49591309 -129.82689453 46.91760742 -128.99316406 46.32177734 C-126.46263712 44.50441693 -123.94461438 42.67090774 -121.4296875 40.83203125 C-120.61411377 40.23720947 -119.79854004 39.6423877 -118.95825195 39.02954102 C-117.38709888 37.88299794 -115.81785413 36.73383423 -114.25073242 35.58178711 C-113.54021729 35.06495361 -112.82970215 34.54812012 -112.09765625 34.015625 C-111.47383057 33.55897461 -110.85000488 33.10232422 -110.20727539 32.63183594 C-107.13765758 30.65302326 -104.31374656 30.32389159 -100.75 30.21875 C-99.93015625 30.18136719 -99.1103125 30.14398438 -98.265625 30.10546875 C-91.37815072 31.16582849 -87.58814319 35.11820062 -83.61914062 40.47265625 C-83.10544922 41.19324219 -82.59175781 41.91382813 -82.0625 42.65625 C-81.52173828 43.38457031 -80.98097656 44.11289062 -80.42382812 44.86328125 C-76.5 50.23064159 -76.5 50.23064159 -76.5 52.53125 C-75.39527344 52.03496094 -74.29054687 51.53867187 -73.15234375 51.02734375 C-64.0630289 47.02792636 -54.94434328 43.53991221 -45.4375 40.65625 C-44.0306897 40.22783813 -44.0306897 40.22783813 -42.59545898 39.79077148 C-36.6179296 38.02457493 -30.63187952 36.64553332 -24.5 35.53125 C-24.48598145 34.44239502 -24.48598145 34.44239502 -24.47167969 33.33154297 C-24.41778719 30.02243786 -24.33417561 26.71471762 -24.25 23.40625 C-24.23582031 22.26414062 -24.22164062 21.12203125 -24.20703125 19.9453125 C-23.89308206 9.14546035 -23.89308206 9.14546035 -19.5 4.53125 C-13.74446938 -0.76886846 -7.50910987 -0.04815375 0 0 Z M-7.5 16.53125 C-7.67011691 24.48817314 -7.67011691 24.48817314 -7.79785156 32.44580078 C-7.98956585 38.70880376 -8.1698476 42.84792914 -12.5 47.53125 C-15.50683459 50.12159048 -18.0702049 51.16498013 -21.91015625 52.109375 C-22.97371338 52.37967529 -24.03727051 52.64997559 -25.13305664 52.9284668 C-26.26477295 53.20988525 -27.39648926 53.49130371 -28.5625 53.78125 C-41.50501685 57.12760075 -54.06831509 61.06675238 -66.203125 66.7109375 C-72.17054634 69.38736426 -77.34751467 69.41394589 -83.625 67.65625 C-90.25732004 62.7541004 -94.82672232 55.24908667 -99.5 48.53125 C-102.64156368 49.14028881 -104.66734764 50.15181811 -107.23046875 52.05078125 C-107.94348145 52.57325439 -108.65649414 53.09572754 -109.39111328 53.6340332 C-110.1489209 54.19823975 -110.90672852 54.76244629 -111.6875 55.34375 C-113.29232508 56.52171075 -114.89781156 57.69877089 -116.50390625 58.875 C-117.3252002 59.47828125 -118.14649414 60.0815625 -118.99267578 60.703125 C-123.00494516 63.62852647 -127.06316215 66.48776349 -131.125 69.34375 C-131.86516357 69.86493408 -132.60532715 70.38611816 -133.36791992 70.9230957 C-135.07797331 72.12672355 -136.78888231 73.32913567 -138.5 74.53125 C-138.14808594 75.05332031 -137.79617187 75.57539062 -137.43359375 76.11328125 C-136.38067571 77.68303635 -135.33724437 79.25917564 -134.30078125 80.83984375 C-133.08866135 82.65145028 -131.83465341 84.43564327 -130.54296875 86.19140625 C-126.55320031 91.83883815 -124.48315262 96.04165105 -125.02734375 103.046875 C-126.22266345 109.32971245 -129.71156276 112.81546929 -133.9375 117.34375 C-143.7866417 127.93485068 -152.05048546 139.88968341 -158.71875 152.7109375 C-161.2786416 156.7640992 -163.95647072 159.01674024 -168.5 160.53125 C-175.4598226 161.6936728 -181.37796604 159.77198936 -187.87109375 157.50390625 C-188.70282104 157.21970825 -189.53454834 156.93551025 -190.39147949 156.6427002 C-192.42982478 155.9451982 -194.46522034 155.23908633 -196.5 154.53125 C-198.17828807 159.49143001 -199.85041195 164.45363137 -201.51708984 169.41772461 C-202.08379809 171.1028511 -202.65212726 172.78743344 -203.22216797 174.47143555 C-204.04571249 176.90529087 -204.86322409 179.34110517 -205.6796875 181.77734375 C-205.93185028 182.51834824 -206.18401306 183.25935272 -206.44381714 184.02281189 C-208.14719825 189.13134765 -209.42530242 194.2554222 -210.5 199.53125 C-209.85973877 199.74217285 -209.21947754 199.9530957 -208.55981445 200.17041016 C-205.63698137 201.14583458 -202.72508211 202.1506504 -199.8125 203.15625 C-198.80509766 203.48753906 -197.79769531 203.81882813 -196.75976562 204.16015625 C-189.81354228 206.59018818 -185.87354789 208.78415422 -182.5 215.53125 C-182.39309265 217.56202498 -182.35113122 219.59633276 -182.33886719 221.62988281 C-182.32925964 222.91171448 -182.3196521 224.19354614 -182.30975342 225.51422119 C-182.30490464 226.92093732 -182.30062601 228.32765551 -182.296875 229.734375 C-182.29112239 231.17445884 -182.28536467 232.61454266 -182.27960205 234.05462646 C-182.2690894 237.07759966 -182.263249 240.10054625 -182.25976562 243.12353516 C-182.25429137 246.98825951 -182.23028777 250.85262967 -182.20179367 254.71724319 C-182.18312136 257.69418343 -182.17795918 260.67103931 -182.17642975 263.64803314 C-182.17341119 265.07213011 -182.1654096 266.49622588 -182.15224457 267.9202652 C-182.13509588 269.91845167 -182.13892183 271.91678438 -182.14355469 273.91503906 C-182.13990906 275.050401 -182.13626343 276.18576294 -182.13250732 277.35552979 C-182.66966285 281.9974064 -184.32929605 285.30458505 -187.54296875 288.671875 C-191.72721897 291.30292269 -196.13514658 292.74086365 -200.8125 294.28125 C-201.74384766 294.59707031 -202.67519531 294.91289062 -203.63476562 295.23828125 C-205.92026655 296.01183541 -208.2090596 296.77401716 -210.5 297.53125 C-209.28153706 303.54053514 -207.70772807 309.2827365 -205.6796875 315.06640625 C-205.41616486 315.83053329 -205.15264221 316.59466034 -204.88113403 317.38194275 C-204.05036362 319.78750285 -203.21281809 322.19063662 -202.375 324.59375 C-201.80553688 326.23877565 -201.23652246 327.8839567 -200.66796875 329.52929688 C-199.28381833 333.53176032 -197.89359276 337.53206494 -196.5 341.53125 C-189.67073556 340.1073787 -189.67073556 340.1073787 -183.0625 337.90625 C-177.03804726 335.84192703 -171.36552796 335.70465539 -165.25 337.46875 C-161.21453091 340.49535182 -159.0934221 344.25300613 -156.5 348.53125 C-148.74050596 360.95541098 -140.58101527 372.6009709 -130.41015625 383.21484375 C-126.15301503 388.37738924 -124.77470024 393.02270391 -124.953125 399.59765625 C-125.97534953 405.08116069 -129.25169258 409.11588602 -132.5 413.53125 C-133.65353108 415.25529102 -134.80004376 416.98406136 -135.9375 418.71875 C-136.79045917 419.99039409 -137.64413484 421.26155993 -138.5 422.53125 C-137.47003906 423.25828125 -136.44007813 423.9853125 -135.37890625 424.734375 C-134.3583313 425.45488037 -134.3583313 425.45488037 -133.31713867 426.18994141 C-131.80062632 427.26028548 -130.28385749 428.33026625 -128.7668457 429.39990234 C-124.74738729 432.23477859 -120.7323417 435.07550777 -116.7265625 437.9296875 C-115.96529053 438.47077148 -115.20401855 439.01185547 -114.41967773 439.56933594 C-112.9566675 440.60942852 -111.49518283 441.65167107 -110.03540039 442.69628906 C-109.36758545 443.1703418 -108.69977051 443.64439453 -108.01171875 444.1328125 C-107.42865967 444.54869629 -106.84560059 444.96458008 -106.24487305 445.39306641 C-104.39212619 446.60161627 -102.49480673 447.57884125 -100.5 448.53125 C-99.26840392 447.01238337 -98.03986115 445.49104082 -96.8125 443.96875 C-95.70841797 442.60169922 -95.70841797 442.60169922 -94.58203125 441.20703125 C-92.91790813 439.06833643 -91.44741217 436.93928157 -90 434.65625 C-87.35126802 430.89647273 -83.91641228 428.76142712 -79.5 427.53125 C-73.23050231 426.89119058 -68.80718332 428.71858551 -63.1875 431.15625 C-61.40524553 431.89708939 -59.6213528 432.63399845 -57.8359375 433.3671875 C-56.94229492 433.73424805 -56.04865234 434.10130859 -55.12792969 434.47949219 C-44.7470713 438.63415012 -34.13472338 441.92880874 -23.15551758 444.06347656 C-17.5809747 445.22435368 -13.27362237 447.09208939 -9.86303711 451.7824707 C-8.28628644 454.9622371 -8.07537459 457.17104177 -7.98828125 460.70703125 C-7.95516846 461.75028564 -7.92205566 462.79354004 -7.88793945 463.8684082 C-7.85059692 465.83620239 -7.85059692 465.83620239 -7.8125 467.84375 C-7.709375 472.030625 -7.60625 476.2175 -7.5 480.53125 C8.34 480.53125 24.18 480.53125 40.5 480.53125 C40.67011691 472.57432686 40.67011691 472.57432686 40.79785156 464.61669922 C40.98956585 458.35369624 41.1698476 454.21457086 45.5 449.53125 C48.50683459 446.94090952 51.0702049 445.89751987 54.91015625 444.953125 C55.97371338 444.68282471 57.03727051 444.41252441 58.13305664 444.1340332 C59.8306311 443.71190552 59.8306311 443.71190552 61.5625 443.28125 C74.49276746 439.93806639 87.05663247 436.01453744 99.171875 430.35546875 C102.59911684 428.81906798 105.37928314 427.98571078 109.1875 428.03125 C110.05761719 428.0209375 110.92773438 428.010625 111.82421875 428 C119.10751812 429.44602732 122.81740876 435.11064101 126.875 440.78125 C127.42027344 441.52632813 127.96554687 442.27140625 128.52734375 443.0390625 C129.86059596 444.86351289 131.1843612 446.69407947 132.5 448.53125 C135.64156368 447.92221119 137.66734764 446.91068189 140.23046875 445.01171875 C140.94348145 444.48924561 141.65649414 443.96677246 142.39111328 443.4284668 C143.1489209 442.86426025 143.90672852 442.30005371 144.6875 441.71875 C146.29232508 440.54078925 147.89781156 439.36372911 149.50390625 438.1875 C150.3252002 437.58421875 151.14649414 436.9809375 151.99267578 436.359375 C156.00494516 433.43397353 160.06316215 430.57473651 164.125 427.71875 C164.86516357 427.19756592 165.60532715 426.67638184 166.36791992 426.1394043 C168.07797331 424.93577645 169.78888231 423.73336433 171.5 422.53125 C171.14808594 422.00917969 170.79617188 421.48710937 170.43359375 420.94921875 C169.38067571 419.37946365 168.33724437 417.80332436 167.30078125 416.22265625 C166.08866135 414.41104972 164.83465341 412.62685673 163.54296875 410.87109375 C159.54610915 405.21362446 157.72626226 401.10360748 157.86328125 394.13671875 C159.15592175 388.84720211 162.82519954 385.04807252 166.40771484 381.09277344 C176.88071826 369.50102324 185.40996001 356.21701828 193.03588867 342.61474609 C195.41862641 339.22400341 198.50349516 337.4724304 202.5 336.53125 C208.79341653 335.97641479 214.02276913 337.64058009 219.9375 339.53125 C220.85982422 339.81742187 221.78214844 340.10359375 222.73242188 340.3984375 C224.99117822 341.10064155 227.24671247 341.81172889 229.5 342.53125 C231.17828807 337.57106999 232.85041195 332.60886863 234.51708984 327.64477539 C235.08379809 325.9596489 235.65212726 324.27506656 236.22216797 322.59106445 C237.04571249 320.15720913 237.86322409 317.72139483 238.6796875 315.28515625 C238.93185028 314.54415176 239.18401306 313.80314728 239.44381714 313.03968811 C241.14719825 307.93115235 242.42530242 302.8070778 243.5 297.53125 C242.89003174 297.3453833 242.28006348 297.1595166 241.65161133 296.96801758 C238.86664411 296.10937448 236.08980242 295.22685538 233.3125 294.34375 C232.35279297 294.05177734 231.39308594 293.75980469 230.40429688 293.45898438 C224.18765488 291.45847328 219.98798272 289.50469564 216.39633179 283.76863098 C215.21905816 280.82997627 215.23092599 278.38648268 215.20947266 275.22143555 C215.19671295 273.94298264 215.18395325 272.66452972 215.17080688 271.34733582 C215.16774883 269.954215 215.16552128 268.56109216 215.1640625 267.16796875 C215.15763171 265.73313769 215.15090314 264.29830794 215.14389038 262.86347961 C215.13192355 259.85662804 215.12820883 256.84989128 215.12939453 253.84301758 C215.12959746 250.00296037 215.10232057 246.16364541 215.06785011 242.32376385 C215.04553356 239.35963101 215.04155846 236.39567528 215.04261398 233.43146706 C215.0402642 232.01656352 215.03147584 230.60165463 215.01594925 229.18683434 C214.87767016 215.28248106 214.87767016 215.28248106 219.5 209.53125 C223.31293456 207.08521651 227.03594728 205.66488479 231.3203125 204.28515625 C231.99666748 204.06682129 232.67302246 203.84848633 233.36987305 203.62353516 C234.73661259 203.19071009 236.10795025 202.77211873 237.48364258 202.36865234 C239.18541936 201.84419588 240.84790405 201.19583841 242.5 200.53125 C243.59153528 197.25664415 243.46577365 196.67311894 242.43603516 193.55053711 C242.17891754 192.75638901 241.92179993 191.96224091 241.65689087 191.14402771 C241.37050751 190.2908345 241.08412415 189.4376413 240.7890625 188.55859375 C240.50147064 187.67974014 240.21387878 186.80088654 239.91757202 185.895401 C238.99502599 183.08370355 238.05998128 180.27633366 237.125 177.46875 C236.50182208 175.57252247 235.8794166 173.6760409 235.2578125 171.77929688 C234.11727421 168.31222758 232.97597916 164.84544055 231.82275391 161.38256836 C231.59101471 160.68546249 231.35927551 159.98835663 231.12051392 159.27012634 C230.51235988 157.45547701 230.51235988 157.45547701 229.5 155.53125 C224.88695503 156.45822121 220.47092813 157.49521726 216.0625 159.15625 C210.03804726 161.22057297 204.36552796 161.35784461 198.25 159.59375 C195.59183152 157.60012364 194.46335778 156.19841969 192.6953125 153.4609375 C191.90833984 152.25304565 191.90833984 152.25304565 191.10546875 151.02075195 C190.57566406 150.19921631 190.04585938 149.37768066 189.5 148.53125 C188.52487359 147.04202743 187.54834549 145.55372157 186.5703125 144.06640625 C186.08925049 143.33421875 185.60818848 142.60203125 185.11254883 141.84765625 C178.23448281 131.42613885 170.92043527 121.89039157 162.3828125 112.7578125 C158.33153837 107.96688666 157.89385076 103.9514484 157.984375 97.765625 C158.89179289 92.07364004 162.08006698 88.03934353 165.5 83.53125 C166.4813523 82.13695243 167.46086148 80.7413534 168.4375 79.34375 C169.118125 78.415625 169.79875 77.4875 170.5 76.53125 C166.25356562 71.96740538 161.48121038 68.42420616 156.4375 64.78125 C154.73773931 63.5463185 153.03852058 62.31064071 151.33984375 61.07421875 C150.51468262 60.47399902 149.68952148 59.8737793 148.83935547 59.25537109 C146.76502467 57.72657501 144.72108314 56.16934972 142.69140625 54.58203125 C142.14299072 54.15567383 141.5945752 53.72931641 141.02954102 53.29003906 C139.59771282 52.17017343 138.1735611 51.0405123 136.75 49.91015625 C136.0075 49.45511719 135.265 49.00007813 134.5 48.53125 C131.15745632 49.64543123 130.6955998 50.26221191 128.72265625 53.0234375 C128.20896484 53.72855469 127.69527344 54.43367188 127.16601562 55.16015625 C126.63685547 55.90136719 126.10769531 56.64257812 125.5625 57.40625 C124.51715373 58.86588688 123.46652448 60.32175751 122.41015625 61.7734375 C121.94746338 62.4216748 121.48477051 63.06991211 121.00805664 63.73779297 C118.16587418 67.11785972 115.44446087 68.9400917 111.0625 69.53125 C104.84055748 69.96533901 100.04232298 67.77389245 94.41357422 65.34326172 C90.85341373 63.83253274 87.24479336 62.45427229 83.625 61.09375 C82.44526611 60.64938599 82.44526611 60.64938599 81.24169922 60.19604492 C73.71895796 57.45122066 66.03707294 55.46835271 58.24072266 53.66040039 C51.79859743 52.10930972 46.72943637 50.60633465 42.6875 45.03125 C38.40369956 36.01272275 39.96997235 26.87064171 39.5 16.53125 C23.99 16.53125 8.48 16.53125 -7.5 16.53125 Z " fill="#000000" transform="translate(239.5,7.46875)"/>
<path d="M0 0 C6.69421246 5.68110368 10.61756703 12.74017056 11.35546875 21.4765625 C11.79595966 32.03836156 10.24416385 39.18103513 3.2890625 47.29296875 C2.21650614 48.44889608 1.1369924 49.59861405 0.0390625 50.73046875 C0.65652344 50.99859375 1.27398437 51.26671875 1.91015625 51.54296875 C8.52869194 54.60542667 14.09066737 58.31592045 19.0390625 63.73046875 C19.0390625 64.39046875 19.0390625 65.05046875 19.0390625 65.73046875 C24.9790625 62.26546875 24.9790625 62.26546875 31.0390625 58.73046875 C30.0903125 57.51359375 29.1415625 56.29671875 28.1640625 55.04296875 C22.21495657 47.41259376 21.91031421 39.05737007 23.0390625 29.73046875 C25.50128791 20.86645728 31.53626927 15.27921964 39.3515625 10.85546875 C48.09680773 8.18742783 55.57481602 8.13279079 64.0390625 11.73046875 C71.6221021 15.81364392 76.14349897 21.70299867 79.0390625 29.73046875 C80.19666511 39.19387012 79.77809009 47.79282777 74.0390625 55.73046875 C73.06676053 56.75742001 72.07484791 57.7675832 71.0390625 58.73046875 C71.75191406 59.11976563 72.46476563 59.5090625 73.19921875 59.91015625 C81.15995382 64.56016839 86.36657398 69.64691975 90.10180664 78.1496582 C91.44660525 83.28749649 91.36423591 88.26015631 91.375 93.55078125 C91.3849852 95.25510818 91.3849852 95.25510818 91.39517212 96.99386597 C91.40527434 99.38928614 91.40998989 101.78473432 91.40966797 104.18017578 C91.41405566 107.8497507 91.45044263 111.51813652 91.48828125 115.1875 C91.4941469 117.51692297 91.49811798 119.84635165 91.5 122.17578125 C91.51437103 123.27375031 91.52874207 124.37171936 91.54354858 125.50296021 C91.53739532 126.52437103 91.53124207 127.54578186 91.52490234 128.59814453 C91.52775238 129.49493927 91.53060242 130.39173401 91.53353882 131.31570435 C90.85906284 134.60949319 89.74026789 135.7611661 87.0390625 137.73046875 C84.2802124 138.21148682 84.2802124 138.21148682 81.07714844 138.18457031 C79.87620544 138.18426819 78.67526245 138.18396606 77.43792725 138.18365479 C76.14614563 138.16300964 74.85436401 138.1423645 73.5234375 138.12109375 C72.18394821 138.11362946 70.84444798 138.10793741 69.50494385 138.10394287 C65.98654814 138.08870088 62.46881735 138.04943293 58.95068359 138.00512695 C55.35783889 137.96414239 51.7648863 137.94592515 48.171875 137.92578125 C41.12733284 137.8829362 34.08324118 137.81470321 27.0390625 137.73046875 C26.9359375 138.67921875 26.8328125 139.62796875 26.7265625 140.60546875 C26.0390625 143.73046875 26.0390625 143.73046875 23.0390625 145.73046875 C20.22165793 145.93550661 17.50228547 146.02416633 14.68383789 146.02099609 C13.83151077 146.02771332 12.97918365 146.03443054 12.10102844 146.04135132 C9.27953282 146.06037135 6.45827452 146.0642574 3.63671875 146.06640625 C1.67760621 146.07283095 -0.28150535 146.07955906 -2.24061584 146.08657837 C-6.34882838 146.09856084 -10.45695676 146.10225815 -14.56518555 146.10107422 C-19.83252007 146.10087087 -25.09931599 146.12818476 -30.36652279 146.16261864 C-34.4131163 146.18484155 -38.4595792 146.18891319 -42.50622749 146.18785477 C-44.44832785 146.19021723 -46.39043145 146.1990769 -48.33247185 146.2145195 C-51.0474727 146.23408821 -53.7612991 146.22837784 -56.47631836 146.21630859 C-57.28008911 146.22754761 -58.08385986 146.23878662 -58.9119873 146.25036621 C-62.44301168 146.21042374 -64.56788611 146.00702807 -67.4912262 143.95010376 C-68.9609375 141.73046875 -68.9609375 141.73046875 -68.9609375 137.73046875 C-69.70373962 137.7393512 -70.44654175 137.74823364 -71.21185303 137.75738525 C-78.21543655 137.83756619 -85.21886085 137.89845061 -92.22277451 137.93771744 C-95.82352036 137.95858388 -99.42388666 137.98688296 -103.02441406 138.03222656 C-106.49981663 138.07572 -109.97485438 138.09961296 -113.45050812 138.10997772 C-115.42039534 138.1209549 -117.39013597 138.15217575 -119.35980225 138.18365479 C-121.16121674 138.18410797 -121.16121674 138.18410797 -122.99902344 138.18457031 C-124.05603455 138.19345276 -125.11304565 138.20233521 -126.2020874 138.21148682 C-129.72128827 137.59789813 -130.87816184 136.60342849 -132.9609375 133.73046875 C-133.46887207 131.33589172 -133.46887207 131.33589172 -133.47851562 128.64575195 C-133.49112427 127.6340242 -133.50373291 126.62229645 -133.51672363 125.57991028 C-133.50862671 124.49135239 -133.50052979 123.40279449 -133.4921875 122.28125 C-133.4960144 121.15406052 -133.49984131 120.02687103 -133.50378418 118.86552429 C-133.50650629 116.47910673 -133.49912431 114.09265949 -133.48242188 111.70629883 C-133.46111769 108.07369347 -133.48216349 104.4430886 -133.5078125 100.81054688 C-133.50516733 98.48827692 -133.50003845 96.16600819 -133.4921875 93.84375 C-133.50028442 92.76531326 -133.50838135 91.68687653 -133.51672363 90.57575989 C-133.43297049 83.75064829 -132.28853819 78.6980204 -128.9609375 72.73046875 C-128.60286011 72.08487503 -128.24478271 71.43928131 -127.87585449 70.77412415 C-124.47139534 64.96199975 -118.6521688 62.00965456 -112.9609375 58.73046875 C-113.37085938 58.21097656 -113.78078125 57.69148438 -114.203125 57.15625 C-114.74195313 56.45886719 -115.28078125 55.76148438 -115.8359375 55.04296875 C-116.36960938 54.35847656 -116.90328125 53.67398438 -117.453125 52.96875 C-122.12270044 46.03697091 -121.93649104 37.79151452 -120.9609375 29.73046875 C-118.49871209 20.86645728 -112.46373073 15.27921964 -104.6484375 10.85546875 C-95.90319227 8.18742783 -88.42518398 8.13279079 -79.9609375 11.73046875 C-72.3778979 15.81364392 -67.85650103 21.70299867 -64.9609375 29.73046875 C-63.80333489 39.19387012 -64.22190991 47.79282777 -69.9609375 55.73046875 C-71.4459375 57.21546875 -71.4459375 57.21546875 -72.9609375 58.73046875 C-67.0209375 62.19546875 -67.0209375 62.19546875 -60.9609375 65.73046875 C-59.9709375 63.75046875 -59.9709375 63.75046875 -58.9609375 61.73046875 C-54.26892632 56.51860406 -48.25611809 53.59306596 -41.9609375 50.73046875 C-42.50363281 50.17359375 -43.04632813 49.61671875 -43.60546875 49.04296875 C-51.44408384 40.68177933 -53.53947413 34.69952436 -53.51953125 23.23486328 C-53.17134903 14.19597363 -49.72329264 6.97592233 -43.1484375 0.73046875 C-29.86373091 -9.70387934 -13.64856537 -9.7661996 0 0 Z M-34.3359375 17.35546875 C-36.54001643 21.93317114 -36.7581014 25.73599286 -35.9609375 30.73046875 C-33.63124819 35.56905423 -30.79952298 38.40077944 -25.9609375 40.73046875 C-20.96646161 41.52763265 -17.16363989 41.30954768 -12.5859375 39.10546875 C-9.00186037 35.8627323 -6.36558509 33.26570979 -5.578125 28.33203125 C-5.32209831 22.64823881 -6.02466818 19.0810822 -9.9609375 14.73046875 C-14.31155095 10.79419943 -17.87870756 10.09162956 -23.5625 10.34765625 C-28.49617854 11.13511634 -31.09320105 13.77139162 -34.3359375 17.35546875 Z M-102.9609375 31.73046875 C-104.57523673 34.95906722 -104.55664407 38.24040528 -103.9609375 41.73046875 C-102.22491645 44.7555502 -100.12513613 47.14836944 -96.9609375 48.73046875 C-91.83723352 49.3377572 -91.83723352 49.3377572 -87.13671875 47.68359375 C-83.33341006 44.5525406 -82.07430383 42.86413207 -81.5859375 37.98046875 C-81.61034975 34.62988807 -82.20492396 32.88152343 -84.3359375 30.29296875 C-87.8657961 26.8471544 -89.8893027 26.33491039 -94.85546875 26.37109375 C-98.57687203 27.00628689 -100.36406599 29.07025891 -102.9609375 31.73046875 Z M41.0390625 31.73046875 C39.42476327 34.95906722 39.44335593 38.24040528 40.0390625 41.73046875 C41.77508355 44.7555502 43.87486387 47.14836944 47.0390625 48.73046875 C52.16276648 49.3377572 52.16276648 49.3377572 56.86328125 47.68359375 C60.66658994 44.5525406 61.92569617 42.86413207 62.4140625 37.98046875 C62.38965025 34.62988807 61.79507604 32.88152343 59.6640625 30.29296875 C56.1342039 26.8471544 54.1106973 26.33491039 49.14453125 26.37109375 C45.42312797 27.00628689 43.63593401 29.07025891 41.0390625 31.73046875 Z M-45.9609375 72.73046875 C-52.52797483 80.36423296 -53.27772363 89.65248424 -53.15625 99.359375 C-53.15423584 100.1366394 -53.15222168 100.91390381 -53.15014648 101.71472168 C-53.13980783 104.57419878 -53.11188696 107.43359071 -53.0859375 110.29296875 C-53.0446875 116.70734375 -53.0034375 123.12171875 -52.9609375 129.73046875 C-31.8409375 129.73046875 -10.7209375 129.73046875 11.0390625 129.73046875 C11.0803125 123.31609375 11.1215625 116.90171875 11.1640625 110.29296875 C11.18227051 108.28662354 11.20047852 106.28027832 11.21923828 104.21313477 C11.22508798 102.59521755 11.23018241 100.97729736 11.234375 99.359375 C11.24460693 98.54174683 11.25483887 97.72411865 11.26538086 96.88171387 C11.2679919 88.12035745 10.09912631 79.43881846 4.0390625 72.73046875 C-8.7598932 62.75162194 -33.15070501 61.71031242 -45.9609375 72.73046875 Z M-112.8984375 79.48046875 C-116.56178773 85.25302062 -117.21043037 90.66860623 -117.15625 97.4140625 C-117.15125488 98.69595459 -117.14625977 99.97784668 -117.14111328 101.29858398 C-117.12290527 102.90548096 -117.10469727 104.51237793 -117.0859375 106.16796875 C-117.0446875 111.30359375 -117.0034375 116.43921875 -116.9609375 121.73046875 C-101.1209375 121.73046875 -85.2809375 121.73046875 -68.9609375 121.73046875 C-68.8990625 116.63609375 -68.8371875 111.54171875 -68.7734375 106.29296875 C-68.74612549 104.70427979 -68.71881348 103.11559082 -68.69067383 101.47875977 C-68.38614076 89.63225313 -68.38614076 89.63225313 -73.23657227 79.16259766 C-78.72421047 74.06479167 -85.65138878 73.35738347 -92.8359375 73.41796875 C-93.53630127 73.4236084 -94.23666504 73.42924805 -94.95825195 73.43505859 C-101.86299065 73.5965823 -108.0157933 74.23302929 -112.8984375 79.48046875 Z M31.1015625 79.48046875 C27.43821227 85.25302062 26.78956963 90.66860623 26.84375 97.4140625 C26.84874512 98.69595459 26.85374023 99.97784668 26.85888672 101.29858398 C26.87709473 102.90548096 26.89530273 104.51237793 26.9140625 106.16796875 C26.9553125 111.30359375 26.9965625 116.43921875 27.0390625 121.73046875 C42.8790625 121.73046875 58.7190625 121.73046875 75.0390625 121.73046875 C75.1009375 116.63609375 75.1628125 111.54171875 75.2265625 106.29296875 C75.25387451 104.70427979 75.28118652 103.11559082 75.30932617 101.47875977 C75.61385924 89.63225313 75.61385924 89.63225313 70.76342773 79.16259766 C65.27578953 74.06479167 58.34861122 73.35738347 51.1640625 73.41796875 C50.46369873 73.4236084 49.76333496 73.42924805 49.04174805 73.43505859 C42.13700935 73.5965823 35.9842067 74.23302929 31.1015625 79.48046875 Z " fill="#000000" transform="translate(276.9609375,182.26953125)"/>
<path d="M0 0 C12.02956554 20.82778501 20.28460132 44.03502796 23 68 C23.11085938 68.96808594 23.22171875 69.93617188 23.3359375 70.93359375 C27.60095307 114.33300892 15.0108687 158.8316335 -12.46240234 192.80859375 C-40.77808222 227.27193652 -81.03966228 251.24792092 -125.94677734 255.77294922 C-143.96359497 257.11275734 -162.30903427 256.84965114 -180 253 C-181.17296631 252.75056641 -181.17296631 252.75056641 -182.36962891 252.49609375 C-203.50677821 247.8515116 -222.80303027 238.5617081 -241 227 C-240.81300537 227.52956299 -240.62601074 228.05912598 -240.43334961 228.60473633 C-239.59199166 231.00414506 -238.76462574 233.40815002 -237.9375 235.8125 C-237.64294922 236.64587891 -237.34839844 237.47925781 -237.04492188 238.33789062 C-236.77099609 239.14033203 -236.49707031 239.94277344 -236.21484375 240.76953125 C-235.95823975 241.50792236 -235.70163574 242.24631348 -235.43725586 243.00708008 C-235 245 -235 245 -236 248 C-238.5342007 249.04004769 -240.95185202 249.89978397 -243.5625 250.6875 C-244.62887695 251.02491211 -244.62887695 251.02491211 -245.71679688 251.36914062 C-247.47448819 251.92358017 -249.23684098 252.46320189 -251 253 C-253.59208515 246.1269921 -256.16928991 239.2485534 -258.73779297 232.36669922 C-259.94068344 229.15821573 -261.15849689 225.95575817 -262.37890625 222.75390625 C-263.10728046 220.81529557 -263.83516669 218.87650145 -264.5625 216.9375 C-265.08166992 215.59341064 -265.08166992 215.59341064 -265.61132812 214.22216797 C-267.40784655 209.3882843 -268.86204738 205.21698306 -268 200 C-266.22216797 197.33105469 -266.22216797 197.33105469 -263 195 C-258.969676 194.30021639 -254.99773311 194.41883496 -250.91796875 194.51171875 C-249.74865311 194.51879349 -248.57933746 194.52586823 -247.37458801 194.53315735 C-243.6449042 194.56111506 -239.91672903 194.62386128 -236.1875 194.6875 C-233.65692274 194.71258085 -231.12632192 194.73539439 -228.59570312 194.75585938 C-222.39655534 194.81094713 -216.19853333 194.89723393 -210 195 C-210 200.61 -210 206.22 -210 212 C-216.27 212.33 -222.54 212.66 -229 213 C-208.65771967 224.80578769 -187.6759507 234.34249533 -164 237 C-163.03320312 237.10957031 -162.06640625 237.21914063 -161.0703125 237.33203125 C-122.15773333 241.12221753 -81.41189611 229.98537167 -51 205 C-46.51646296 201.15463522 -42.24835229 197.10145214 -38 193 C-37.34644531 192.40960938 -36.69289063 191.81921875 -36.01953125 191.2109375 C-11.06872244 168.09736164 3.59848904 129.73716979 5.12109375 96.34423828 C6.13643874 66.16310853 -0.12353089 39.37239661 -14.26342773 12.74853516 C-15 11 -15 11 -15 8 C-12.8940354 6.44870495 -10.87244957 5.12351225 -8.625 3.8125 C-7.72007812 3.26045898 -7.72007812 3.26045898 -6.796875 2.69726562 C-2.29309195 0 -2.29309195 0 0 0 Z " fill="#000000" transform="translate(401,168)"/>
<path d="M0 0 C-0.45451184 -1.73017508 -0.91378857 -3.45909877 -1.375 -5.1875 C-1.75785156 -6.63189453 -1.75785156 -6.63189453 -2.1484375 -8.10546875 C-2.92311766 -10.9908286 -2.92311766 -10.9908286 -4.1640625 -13.55078125 C-5.20775672 -16.60870777 -5.29383939 -18.02367744 -4 -21 C-1.12890625 -22.58203125 -1.12890625 -22.58203125 2.4375 -23.8125 C3.61183594 -24.23144531 4.78617187 -24.65039062 5.99609375 -25.08203125 C9 -26 9 -26 11 -26 C13.27004654 -19.86544818 15.52921998 -13.72697131 17.78100586 -7.58569336 C18.54773317 -5.49851822 19.31691225 -3.41224199 20.08862305 -1.3269043 C21.19971718 1.67684664 22.30185012 4.68375795 23.40234375 7.69140625 C23.74716293 8.61772354 24.09198212 9.54404083 24.44725037 10.49842834 C28.94720413 22.8687907 28.94720413 22.8687907 26.75 27.8125 C25 30 25 30 22 32 C19.66511536 32.24050903 19.66511536 32.24050903 16.88598633 32.22705078 C15.84513382 32.22689972 14.80428131 32.22674866 13.73188782 32.22659302 C12.04895882 32.21110916 12.04895882 32.21110916 10.33203125 32.1953125 C9.18208176 32.1924826 8.03213226 32.18965271 6.84733582 32.18673706 C3.16895204 32.17552833 -0.50918962 32.15042224 -4.1875 32.125 C-6.67903295 32.11497111 -9.1705697 32.1058451 -11.66210938 32.09765625 C-17.77483309 32.07558669 -23.88737547 32.04105188 -30 32 C-30 26.39 -30 20.78 -30 15 C-23.73 14.67 -17.46 14.34 -11 14 C-47.4569615 -6.97081856 -86.8017422 -18.178877 -129 -8 C-129.72509766 -7.83371094 -130.45019531 -7.66742188 -131.19726562 -7.49609375 C-156.04218555 -1.68819039 -179.02986489 10.55285097 -197.7109375 27.921875 C-199.29034177 29.35573689 -200.9228694 30.73245809 -202.59375 32.05859375 C-228.6763501 53.10250974 -242.63380191 91.56141112 -246.49609375 123.71484375 C-249.85718856 156.05130266 -242.316268 186.89033879 -226.71484375 215.15234375 C-226 217 -226 217 -227 220 C-229.65234375 221.82421875 -229.65234375 221.82421875 -232.9375 223.6875 C-234.55978516 224.62142578 -234.55978516 224.62142578 -236.21484375 225.57421875 C-239 227 -239 227 -241 227 C-264.34454834 185.76877225 -271.67942005 139.13369318 -259.18212891 93.05053711 C-251.91027199 67.98869569 -239.63208927 44.53014674 -221.5078125 25.6484375 C-219.71418595 23.75423376 -218.04596264 21.87903329 -216.3984375 19.8671875 C-192.06650658 -9.22016966 -149.30554851 -25.78532304 -112.51953125 -29.3359375 C-72.9121456 -32.53217146 -32.5821439 -23.31080214 0 0 Z " fill="#000000" transform="translate(352,117)"/>
</svg>
