<?xml version="1.0" encoding="UTF-8"?>
<svg version="1.1" xmlns="http://www.w3.org/2000/svg" width="256" height="256">
<path d="M0 0 C9.07159344 6.69505324 15.91786679 16.07299943 18.234375 27.23828125 C18.234375 30.53828125 18.234375 33.83828125 18.234375 37.23828125 C36.714375 37.23828125 55.194375 37.23828125 74.234375 37.23828125 C74.564375 34.26828125 74.894375 31.29828125 75.234375 28.23828125 C76.96504506 22.75376344 79.86152032 17.87595643 83.234375 13.23828125 C83.770625 12.43390625 84.306875 11.62953125 84.859375 10.80078125 C92.36941648 2.69784176 101.95072411 -2.45134382 112.9921875 -3.140625 C128.0079484 -3.67412249 138.69445504 -0.86375731 150.234375 9.23828125 C156.67599817 16.13429278 161.9527006 25.61893287 162.359375 35.17578125 C162.318125 35.85640625 162.276875 36.53703125 162.234375 37.23828125 C162.915 37.30015625 163.595625 37.36203125 164.296875 37.42578125 C169.64972869 38.9063578 173.08619412 41.63833991 176.30917358 46.12942505 C179.08214293 51.11782711 178.80968959 56.13889895 178.78369141 61.72216797 C178.79391327 62.85965485 178.80413513 63.99714172 178.81466675 65.1690979 C178.84240402 68.91893726 178.84054952 72.66803916 178.8359375 76.41796875 C178.84371453 79.03199536 178.85238451 81.64601945 178.86190796 84.26004028 C178.87830703 89.73576361 178.87653634 95.21128042 178.86572266 100.68701172 C178.85364873 106.99878856 178.87825869 113.30967308 178.92086279 119.62129772 C178.96046381 125.71412397 178.96642818 131.80653567 178.95939255 137.89947891 C178.96041738 140.48219014 178.97086303 143.06491587 178.99101639 145.64754868 C179.01577564 149.26426059 179.00214745 152.87892473 178.97900391 156.49560547 C178.99429138 157.55563782 179.00957886 158.61567017 179.02532959 159.70782471 C178.92193247 167.04234016 177.08262555 171.6995702 172.234375 177.23828125 C165.9648257 182.55394594 159.21073957 181.70407619 151.296875 181.48828125 C150.04068359 181.47023437 148.78449219 181.4521875 147.49023438 181.43359375 C144.40415584 181.38665719 141.31966719 181.32100539 138.234375 181.23828125 C138.83621249 183.25873567 139.50743596 185.25939164 140.234375 187.23828125 C143.04713147 188.64465948 145.41965509 188.36587981 148.5625 188.37890625 C149.83738281 188.39824219 151.11226562 188.41757813 152.42578125 188.4375 C154.4513007 188.46638703 156.4757265 188.48827916 158.50146484 188.48876953 C171.22267068 188.51056842 171.22267068 188.51056842 175.09375 191.66015625 C178.47918783 195.73750838 178.62378873 198.49830912 178.59375 203.6875 C178.01477466 207.79696629 176.23522571 209.45177702 173.234375 212.23828125 C170.4628042 213.62406665 168.22113566 213.35536312 165.11987305 213.34838867 C163.83481369 213.34896774 162.54975433 213.34954681 161.22575378 213.35014343 C160.19231874 213.34800118 160.19231874 213.34800118 159.13800621 213.34581566 C155.4910175 213.34229851 151.84418355 213.36809602 148.19726562 213.38867188 C143.55561443 213.41300258 138.9144111 213.42871695 134.27270508 213.41333008 C130.52227966 213.40166085 126.77296639 213.41908434 123.02271461 213.45577431 C121.59504397 213.4643841 120.16726673 213.46231763 118.73962975 213.44927025 C111.15140004 213.05994308 111.15140004 213.05994308 104.28994751 215.58999634 C102.75147666 217.3629763 102.75147666 217.3629763 101.234375 220.23828125 C98.8965765 221.4071805 97.60600568 221.32171382 95.0078125 221.2734375 C82.92566623 221.27230345 74.92469005 223.03166419 64.54248047 229 C59.8162178 231.53560443 54.84946127 233.56750061 49.921875 235.67578125 C48.91205566 236.11269287 47.90223633 236.54960449 46.86181641 236.99975586 C36.73087727 241.36439713 36.73087727 241.36439713 32.15315247 241.35853577 C30.91008583 241.36059776 30.91008583 241.36059776 29.64190674 241.36270142 C28.73632019 241.35910614 27.83073364 241.35551086 26.89770508 241.35180664 C25.46327309 241.35202568 25.46327309 241.35202568 23.99986267 241.35224915 C20.8345209 241.35155169 17.66923776 241.34376705 14.50390625 241.3359375 C12.31101005 241.33407273 10.11811344 241.3326491 7.92521667 241.33164978 C2.14990084 241.32782927 -3.62538989 241.31800293 -9.4006958 241.3069458 C-15.29251771 241.29672169 -21.18434366 241.29215001 -27.07617188 241.28710938 C-38.63933395 241.27638027 -50.20247739 241.2593094 -61.765625 241.23828125 C-61.86791021 234.76462461 -61.93745775 228.29117997 -61.98535156 221.81689453 C-62.00533918 219.61922417 -62.03253862 217.42160611 -62.06738281 215.22412109 C-62.33777882 197.71995584 -61.70492816 185.01606407 -49.765625 171.23828125 C-45.92171674 167.30384617 -43.17030269 164.58945067 -37.765625 163.23828125 C-37.765625 159.60828125 -37.765625 155.97828125 -37.765625 152.23828125 C-39.0959375 151.86703125 -39.0959375 151.86703125 -40.453125 151.48828125 C-49.45876596 148.08992617 -55.76996904 139.72905017 -59.765625 131.23828125 C-61.82677022 126.14561689 -62.10102422 121.66271724 -62.13671875 116.25390625 C-62.14574722 115.39827087 -62.1547757 114.5426355 -62.16407776 113.66107178 C-62.17853638 111.85578891 -62.18745604 110.05045415 -62.19116211 108.24511719 C-62.20303011 105.51014878 -62.25223251 102.77746 -62.30273438 100.04296875 C-62.38941601 90.62535908 -62.24761017 83.27054014 -56.765625 75.23828125 C-56.08119189 73.9139801 -55.4089402 72.5830369 -54.765625 71.23828125 C-55.508125 70.51640625 -56.250625 69.79453125 -57.015625 69.05078125 C-66.81518352 59.0285055 -70.22741824 48.80815931 -70.19726562 34.99072266 C-69.92029961 22.70370619 -65.48423407 12.92629871 -56.765625 4.23828125 C-40.72073785 -9.62108971 -17.96668118 -11.44487742 0 0 Z M-53.765625 15.23828125 C-60.90769932 24.45440058 -61.617455 33.97642486 -60.765625 45.23828125 C-58.98095477 54.17361007 -53.02587196 59.97803429 -46.765625 66.23828125 C-44.23039962 66.31452863 -41.72218669 66.32902441 -39.1875 66.30078125 C-38.42391174 66.29699463 -37.66032349 66.29320801 -36.87359619 66.28930664 C-33.59616631 66.27292325 -30.3188594 66.2449392 -27.04150391 66.21777344 C-24.65267518 66.19963648 -22.26386717 66.18756853 -19.875 66.17578125 C-19.13836121 66.16748291 -18.40172241 66.15918457 -17.64276123 66.15063477 C-13.86190233 66.13271963 -10.45868501 66.49567123 -6.765625 67.23828125 C0.21143207 63.39350607 5.42181456 55.67657136 8.375 48.4453125 C10.63502839 40.01129746 10.47432485 29.4736267 6.69140625 21.546875 C0.76141117 12.15109191 -7.00087529 5.21769453 -17.765625 2.23828125 C-32.96657821 0.87083148 -43.17752753 3.82269482 -53.765625 15.23828125 Z M90.234375 19.23828125 C83.09230068 28.45440058 82.382545 37.97642486 83.234375 49.23828125 C85.04595056 58.30831728 91.20485596 65.34063219 98.38671875 70.90625 C107.68741421 76.99365336 118.38284533 77.80648222 129.1484375 75.65625 C138.18001368 72.51670209 145.48066221 65.38517158 150.296875 57.2578125 C154.38949049 48.44163662 155.01676762 37.12598604 151.796875 27.86328125 C147.25106258 18.337957 139.20126989 11.0250392 129.48046875 7.13671875 C113.97464292 2.84509427 100.91446579 7.72351196 90.234375 19.23828125 Z M18.234375 45.23828125 C16.914375 48.53828125 15.594375 51.83828125 14.234375 55.23828125 C13.42444327 56.90632761 12.58309936 58.56083907 11.671875 60.17578125 C11.08212891 61.24119141 11.08212891 61.24119141 10.48046875 62.328125 C9.234375 64.23828125 9.234375 64.23828125 7.58203125 65.8671875 C6.00071334 67.15558693 6.00071334 67.15558693 6.234375 69.23828125 C5.615625 69.52703125 4.996875 69.81578125 4.359375 70.11328125 C2.10111735 71.17548167 2.10111735 71.17548167 0.234375 73.23828125 C0.59714145 76.06785954 1.33132264 78.52912416 2.234375 81.23828125 C3.55501953 81.27695313 3.55501953 81.27695313 4.90234375 81.31640625 C6.06378906 81.373125 7.22523437 81.42984375 8.421875 81.48828125 C9.57042969 81.5346875 10.71898438 81.58109375 11.90234375 81.62890625 C15.75286193 82.33310418 17.4550196 83.53514218 20.234375 86.23828125 C22.08300188 89.935535 21.71024594 94.20289567 21.234375 98.23828125 C19.43790646 101.1725132 18.2902679 102.7103348 15.234375 104.23828125 C13.1968987 104.46686239 11.15397197 104.64852403 9.109375 104.80078125 C8.01367188 104.88457031 6.91796875 104.96835938 5.7890625 105.0546875 C4.94601563 105.11527344 4.10296875 105.17585938 3.234375 105.23828125 C3.8251797 115.9409694 3.8251797 115.9409694 4.796875 126.61328125 C5.25617956 131.46878655 5.234375 136.36110047 5.234375 141.23828125 C59.684375 141.23828125 114.134375 141.23828125 170.234375 141.23828125 C170.29625 127.52265625 170.358125 113.80703125 170.421875 99.67578125 C170.44918701 95.35411865 170.47649902 91.03245605 170.50463867 86.57983398 C170.51467549 82.68671775 170.51467549 82.68671775 170.52070618 78.79359436 C170.5252958 77.06721168 170.53581147 75.34083828 170.55110168 73.61451721 C170.57316707 70.9908085 170.57608952 68.36768454 170.57495117 65.74389648 C170.5857455 64.9821408 170.59653982 64.22038511 170.60766125 63.43554592 C170.5740912 57.62768307 169.41052599 52.93670847 165.671875 48.30078125 C164.26424024 47.0401509 164.26424024 47.0401509 162.234375 47.23828125 C161.96625 48.19347656 161.698125 49.14867187 161.421875 50.1328125 C157.87184638 62.11240973 152.83074171 71.92299978 141.90234375 78.80078125 C130.38568563 85.0059499 117.74322238 86.05164905 104.95703125 83.61328125 C93.89330954 80.05765189 84.63916823 72.50297031 79.234375 62.23828125 C76.95528167 56.65554804 75.41629888 51.14790064 74.234375 45.23828125 C55.754375 45.23828125 37.274375 45.23828125 18.234375 45.23828125 Z M-47.765625 79.23828125 C-51.30737853 83.37351781 -52.9838913 87.06733746 -53.40234375 92.51171875 C-53.47541748 93.40036621 -53.54849121 94.28901367 -53.6237793 95.20458984 C-53.69399292 96.21126709 -53.69399292 96.21126709 -53.765625 97.23828125 C-39.93395838 99.18130647 -39.93395838 99.18130647 -26.95898438 96.10888672 C-24.84215028 93.716474 -23.85431776 91.14352302 -22.80859375 88.15625 C-21.62616898 84.84811778 -20.84081488 83.86084133 -17.765625 82.23828125 C-15.1875 81.7265625 -15.1875 81.7265625 -12.515625 81.55078125 C-11.62359375 81.48503906 -10.7315625 81.41929688 -9.8125 81.3515625 C-9.13703125 81.31417969 -8.4615625 81.27679688 -7.765625 81.23828125 C-9.31756367 77.9077934 -10.59763677 76.19497986 -13.765625 74.23828125 C-24.03648984 70.68485408 -39.50550473 72.26306858 -47.765625 79.23828125 Z M-15.93359375 91.57421875 C-17.89386147 94.16133887 -17.89386147 94.16133887 -18.765625 97.23828125 C-14.69054928 97.28774991 -10.61559003 97.32403314 -6.5402832 97.34814453 C-5.15418452 97.35819695 -3.76810701 97.37184095 -2.38208008 97.38916016 C-0.3889275 97.41344077 1.60438033 97.42370156 3.59765625 97.43359375 C4.79688721 97.44406738 5.99611816 97.45454102 7.23168945 97.46533203 C10.41600327 97.47136197 10.41600327 97.47136197 13.234375 95.23828125 C12.88992619 92.7656136 12.88992619 92.7656136 12.234375 90.23828125 C8.25385702 88.24802226 3.29889997 88.92196166 -1.078125 88.86328125 C-2.64723633 88.80720703 -2.64723633 88.80720703 -4.24804688 88.75 C-10.52953936 88.63160397 -10.52953936 88.63160397 -15.93359375 91.57421875 Z M-53.765625 105.23828125 C-54.10497859 116.94597996 -53.11828342 126.70644126 -45.765625 136.23828125 C-43.5348763 138.51910798 -41.33762198 140.32189135 -38.765625 142.23828125 C-38.435625 142.23828125 -38.105625 142.23828125 -37.765625 142.23828125 C-36.978068 135.39471817 -36.978068 135.39471817 -39.06640625 129.0546875 C-40.66075691 127.23669548 -40.66075691 127.23669548 -42.35546875 125.67578125 C-45.27249109 122.70219615 -44.90031135 119.21890883 -44.890625 115.30078125 C-44.89320312 114.26050781 -44.89578125 113.22023438 -44.8984375 112.1484375 C-44.765625 109.23828125 -44.765625 109.23828125 -43.765625 105.23828125 C-47.065625 105.23828125 -50.365625 105.23828125 -53.765625 105.23828125 Z M-35.0546875 108.015625 C-37.09469695 111.85810855 -38.00084568 115.03043286 -36.765625 119.23828125 C-35.40699008 120.61849622 -35.40699008 120.61849622 -33.77734375 121.93359375 C-28.68252752 127.60098037 -29.87544751 135.99455361 -29.890625 143.17578125 C-29.87248074 144.7337576 -29.85167262 146.29170533 -29.828125 147.84960938 C-29.77153661 151.64709458 -29.76988196 155.4389468 -29.765625 159.23828125 C-21.845625 158.24828125 -21.845625 158.24828125 -13.765625 157.23828125 C-13.765625 155.91828125 -13.765625 154.59828125 -13.765625 153.23828125 C-16.405625 153.23828125 -19.045625 153.23828125 -21.765625 153.23828125 C-21.765625 150.59828125 -21.765625 147.95828125 -21.765625 145.23828125 C-21.04117188 145.27308594 -20.31671875 145.30789062 -19.5703125 145.34375 C-13.88479234 145.50294456 -9.61708493 145.59698428 -4.765625 142.23828125 C-2.19283569 138.37909729 -2.68995364 135.4786146 -3.015625 131.05078125 C-3.0664624 130.26010254 -3.1172998 129.46942383 -3.16967773 128.65478516 C-3.71424204 120.80899647 -4.67303831 113.0242874 -5.765625 105.23828125 C-9.99426945 105.06378423 -14.22198751 104.9573563 -18.453125 104.86328125 C-19.65130859 104.81300781 -20.84949219 104.76273437 -22.08398438 104.7109375 C-29.30895434 104.31623155 -29.30895434 104.31623155 -35.0546875 108.015625 Z M-5.765625 153.23828125 C-5.65994613 155.69324864 -5.65994613 155.69324864 -4.765625 158.23828125 C-2.54444306 159.5066483 -2.54444306 159.5066483 0.234375 160.17578125 C6.726311 162.26669051 13.01701286 165.09407886 17.04348755 170.80358887 C20.58049048 174.32062005 24.80087962 173.84786673 29.53637695 173.89370728 C30.79780518 173.88044403 32.0592334 173.86718079 33.35888672 173.85351562 C34.70786232 173.85701864 36.05683379 173.86267926 37.40579224 173.87033081 C41.06314935 173.8845658 44.71975339 173.8675291 48.37703848 173.84404564 C52.20945524 173.82391286 56.04184145 173.8298176 59.8742981 173.83215332 C66.31199531 173.83209976 72.74939891 173.81235398 79.18701172 173.78027344 C86.61984579 173.74341239 94.05229485 173.73459373 101.48520839 173.74157095 C108.64479491 173.74788724 115.80424999 173.73709886 122.96380997 173.71760559 C126.00591029 173.70945076 129.04794323 173.70671852 132.09005356 173.70829773 C135.67708497 173.70917988 139.26375336 173.69487237 142.85068893 173.6690712 C144.78753612 173.65854833 146.7244454 173.66256943 148.66131592 173.66708374 C154.93122943 173.60592418 159.75245106 173.40834122 165.234375 170.23828125 C169.97711755 165.37072968 170.368731 161.59903291 170.296875 154.98828125 C170.28785156 153.910625 170.27882812 152.83296875 170.26953125 151.72265625 C170.25792969 150.9028125 170.24632812 150.08296875 170.234375 149.23828125 C148.17279344 149.14484627 126.1112445 149.0743061 104.04950523 149.03103256 C93.80588543 149.01040598 83.56238856 148.9822835 73.31884766 148.93652344 C64.39073372 148.89665868 55.46270881 148.87084913 46.53450835 148.86192727 C41.8069142 148.85671192 37.07957475 148.84445191 32.35206223 148.81536102 C27.90170217 148.78819765 23.45170157 148.77983812 19.00126648 148.78585052 C17.36863374 148.7847507 15.7359889 148.77680218 14.10342789 148.76145935 C11.87176524 148.74151611 9.64145435 148.74635666 7.40975952 148.75726318 C6.16165182 148.75357601 4.91354412 148.74988884 3.62761497 148.74608994 C-0.57032672 149.35500367 -2.44578351 150.67517018 -5.765625 153.23828125 Z M-44.7734375 179.59765625 C-56.83386185 195.8464288 -53.765625 212.83655017 -53.765625 233.23828125 C-34.295625 233.23828125 -14.825625 233.23828125 5.234375 233.23828125 C3.254375 230.59828125 1.274375 227.95828125 -0.765625 225.23828125 C-4.96903519 216.32195661 -7.24085687 206.73720398 -9.765625 197.23828125 C-5.805625 196.74328125 -5.805625 196.74328125 -1.765625 196.23828125 C-1.57452148 196.87330566 -1.38341797 197.50833008 -1.18652344 198.16259766 C-0.3064374 201.06603434 0.5888124 203.96458272 1.484375 206.86328125 C1.78472656 207.86230469 2.08507812 208.86132812 2.39453125 209.890625 C5.17049667 218.8091522 8.59126082 224.67492603 16.234375 230.23828125 C22.10276674 233.31918691 28.18570046 233.75179997 34.546875 232.18359375 C40.36932303 230.13558151 45.79560825 227.13173611 51.234375 224.23828125 C50.81130377 222.92105946 50.37040014 221.60955461 49.921875 220.30078125 C49.67824219 219.56988281 49.43460937 218.83898437 49.18359375 218.0859375 C48.32197059 215.87896101 48.32197059 215.87896101 45.234375 215.23828125 C43.0011545 215.93262778 43.0011545 215.93262778 40.63671875 217.109375 C39.31124023 217.72329102 39.31124023 217.72329102 37.95898438 218.34960938 C37.03923828 218.78724609 36.11949219 219.22488281 35.171875 219.67578125 C33.34914219 220.53181697 31.52498957 221.3848381 29.69921875 222.234375 C28.48673462 222.80949829 28.48673462 222.80949829 27.24975586 223.39624023 C25.234375 224.23828125 25.234375 224.23828125 23.234375 224.23828125 C22.574375 221.92828125 21.914375 219.61828125 21.234375 217.23828125 C22.554375 216.57828125 23.874375 215.91828125 25.234375 215.23828125 C23.87753667 199.00978075 21.80915073 186.01042663 9.359375 174.48828125 C0.12861178 166.74292821 -9.06178935 165.52089535 -20.77832031 166.06347656 C-30.44757265 166.91399065 -38.6075021 172.35208236 -44.7734375 179.59765625 Z M27.234375 181.23828125 C28.224375 184.53828125 29.214375 187.83828125 30.234375 191.23828125 C30.85542749 194.45344189 31.42978232 197.63106595 31.921875 200.86328125 C32.05142578 201.67667969 32.18097656 202.49007812 32.31445312 203.328125 C32.62719147 205.2972183 32.93169133 207.26761733 33.234375 209.23828125 C36.32664924 210.63766318 36.32664924 210.63766318 39.58984375 208.8046875 C40.87335432 208.14864641 42.14948402 207.47813676 43.421875 206.80078125 C45.67 205.62515625 47.918125 204.44953125 50.234375 203.23828125 C50.234375 195.97828125 50.234375 188.71828125 50.234375 181.23828125 C42.644375 181.23828125 35.054375 181.23828125 27.234375 181.23828125 Z M58.234375 181.23828125 C58.234375 186.51828125 58.234375 191.79828125 58.234375 197.23828125 C60.6165625 195.78421875 60.6165625 195.78421875 63.046875 194.30078125 C67.34253505 191.67875499 70.63723961 190.15895204 75.68359375 189.921875 C76.95493164 189.8590332 76.95493164 189.8590332 78.25195312 189.79492188 C79.13302734 189.75560547 80.01410156 189.71628906 80.921875 189.67578125 C82.26088867 189.61100586 82.26088867 189.61100586 83.62695312 189.54492188 C85.82927608 189.43892772 88.03170973 189.33686074 90.234375 189.23828125 C90.234375 186.59828125 90.234375 183.95828125 90.234375 181.23828125 C79.674375 181.23828125 69.114375 181.23828125 58.234375 181.23828125 Z M98.234375 181.23828125 C96.9641642 192.30028493 96.9641642 192.30028493 100.546875 196.05078125 C101.8771875 197.13359375 101.8771875 197.13359375 103.234375 198.23828125 C104.43025011 200.50958591 105.28680552 202.84573779 106.234375 205.23828125 C114.0055677 205.28460682 121.77672809 205.32015154 129.54802418 205.34190559 C133.15649605 205.35234607 136.76487349 205.36650998 140.37329102 205.38916016 C143.85514442 205.41087929 147.33690695 205.42284789 150.81882286 205.42803574 C152.79475783 205.43353352 154.77065622 205.44914793 156.74653625 205.46487427 C158.54806404 205.46510086 158.54806404 205.46510086 160.38598633 205.46533203 C161.44521805 205.46977325 162.50444977 205.47421448 163.59577942 205.47879028 C166.46539502 205.42868233 166.46539502 205.42868233 169.234375 203.23828125 C168.88992619 200.7656136 168.88992619 200.7656136 168.234375 198.23828125 C165.41712176 196.82965463 163.01876566 197.09256021 159.87109375 197.0625 C157.95200195 197.02672852 157.95200195 197.02672852 155.99414062 196.99023438 C153.95993372 196.95518297 151.92631724 196.92581063 149.8918457 196.91235352 C147.92637464 196.89681336 145.961168 196.85494008 143.99609375 196.8125 C142.82006592 196.79791748 141.64403809 196.78333496 140.43237305 196.76831055 C136.63122169 196.13831592 134.96479406 194.90390542 132.234375 192.23828125 C131.234375 190.23828125 131.234375 190.23828125 130.234375 181.23828125 C119.674375 181.23828125 109.114375 181.23828125 98.234375 181.23828125 Z M76.234375 199.23828125 C77.4409375 200.47578125 77.4409375 200.47578125 78.671875 201.73828125 C81.78938086 205.41940399 81.98938564 208.50182036 82.234375 213.23828125 C84.17156878 213.29234247 86.10919421 213.3311015 88.046875 213.36328125 C89.12582031 213.38648438 90.20476562 213.4096875 91.31640625 213.43359375 C94.42840368 213.46851842 94.42840368 213.46851842 97.234375 211.23828125 C97.9852495 207.10847151 97.42230509 205.52570373 95.109375 201.98828125 C91.04089259 198.09668938 88.0860287 197.36381709 82.546875 196.98828125 C79.09582144 196.97639382 79.09582144 196.97639382 76.234375 199.23828125 Z M56.234375 210.23828125 C56.84428391 213.79608321 57.8127431 216.92114015 59.234375 220.23828125 C60.65228908 219.78382161 62.06865546 219.32453181 63.484375 218.86328125 C64.27328125 218.60804688 65.0621875 218.3528125 65.875 218.08984375 C69.17041601 216.90276476 69.17041601 216.90276476 72.234375 215.23828125 C73.22948349 211.77290712 73.22948349 211.77290712 73.234375 208.23828125 C71.39560131 206.00133013 71.39560131 206.00133013 68.671875 205.86328125 C64.04529735 206.36799881 60.36875862 208.18027696 56.234375 210.23828125 Z " fill="#000000" transform="translate(73.765625,10.76171875)"/>
<path d="M0 0 C0.66 0 1.32 0 2 0 C3.42992047 4.21560331 4.85391801 8.43314642 6.27246094 12.65258789 C6.75586246 14.08770643 7.24087817 15.52228229 7.72753906 16.95629883 C8.42678121 19.01763614 9.12019477 21.08085542 9.8125 23.14453125 C10.23144531 24.38565674 10.65039062 25.62678223 11.08203125 26.90551758 C12 30 12 30 12 33 C16.29 33 20.58 33 25 33 C25 35.64 25 38.28 25 41 C18.4 41 11.8 41 5 41 C2 32 2 32 2 29 C1.34 29 0.68 29 0 29 C-0.2578125 30.258125 -0.515625 31.51625 -0.78125 32.8125 C-2.00888343 38.32820514 -3.70989219 43.64465656 -5.5 49 C-5.80808594 49.95261719 -6.11617187 50.90523437 -6.43359375 51.88671875 C-6.73394531 52.79035156 -7.03429687 53.69398437 -7.34375 54.625 C-7.61380859 55.44226563 -7.88386719 56.25953125 -8.16210938 57.1015625 C-9 59 -9 59 -11 60 C-11.28609131 59.3387915 -11.57218262 58.67758301 -11.86694336 57.99633789 C-13.18762222 55.00088321 -14.56135198 52.03285412 -15.9375 49.0625 C-16.38673828 48.02158203 -16.83597656 46.98066406 -17.29882812 45.90820312 C-19.68191133 40.36721873 -19.68191133 40.36721873 -24.38720703 37.08544922 C-26.66122959 36.83278005 -28.72582468 36.77957166 -31 37 C-31 34.36 -31 31.72 -31 29 C-28.56065775 28.86498106 -26.12875896 28.76596103 -23.6875 28.6875 C-22.99720703 28.64560547 -22.30691406 28.60371094 -21.59570312 28.56054688 C-19.57421875 28.51171875 -19.57421875 28.51171875 -16 29 C-14.00546994 31.4115324 -13 32.8475744 -13 36 C-12.34 36 -11.68 36 -11 36 C-10.76539062 34.80503906 -10.53078125 33.61007813 -10.2890625 32.37890625 C-8.81430023 25.74247604 -6.56235921 19.36628542 -4.375 12.9375 C-3.95476563 11.69033203 -3.53453125 10.44316406 -3.1015625 9.15820312 C-2.07181153 6.10405535 -1.03786449 3.05139815 0 0 Z " fill="#000000" transform="translate(51,15)"/>
<path d="M0 0 C13.2 0 26.4 0 40 0 C40 10.56 40 21.12 40 32 C26.8 32 13.6 32 0 32 C0 21.44 0 10.88 0 0 Z M8 8 C8 13.28 8 18.56 8 24 C15.92 24 23.84 24 32 24 C32 18.72 32 13.44 32 8 C24.08 8 16.16 8 8 8 Z " fill="#000000" transform="translate(104,112)"/>
<path d="M0 0 C27.72 0 55.44 0 84 0 C84 2.64 84 5.28 84 8 C56.28 8 28.56 8 0 8 C0 5.36 0 2.72 0 0 Z " fill="#000000" transform="translate(152,120)"/>
<path d="M0 0 C27.72 0 55.44 0 84 0 C84 2.64 84 5.28 84 8 C56.28 8 28.56 8 0 8 C0 5.36 0 2.72 0 0 Z " fill="#000000" transform="translate(152,104)"/>
<path d="M0 0 C22.44 0 44.88 0 68 0 C68 2.64 68 5.28 68 8 C45.56 8 23.12 8 0 8 C0 5.36 0 2.72 0 0 Z " fill="#000000" transform="translate(168,136)"/>
<path d="M0 0 C13.2 0 26.4 0 40 0 C40 2.64 40 5.28 40 8 C26.8 8 13.6 8 0 8 C0 5.36 0 2.72 0 0 Z " fill="#000000" transform="translate(104,96)"/>
<path d="M0 0 C13.2 0 26.4 0 40 0 C40 2.64 40 5.28 40 8 C26.8 8 13.6 8 0 8 C0 5.36 0 2.72 0 0 Z " fill="#000000" transform="translate(104,80)"/>
<path d="M0 0 C13.2 0 26.4 0 40 0 C40 2.64 40 5.28 40 8 C26.8 8 13.6 8 0 8 C0 5.36 0 2.72 0 0 Z " fill="#000000" transform="translate(104,64)"/>
<path d="M0 0 C10.56 0 21.12 0 32 0 C32 2.64 32 5.28 32 8 C21.44 8 10.88 8 0 8 C0 5.36 0 2.72 0 0 Z " fill="#000000" transform="translate(184,64)"/>
<path d="M0 0 C10.56 0 21.12 0 32 0 C32 2.64 32 5.28 32 8 C21.44 8 10.88 8 0 8 C0 5.36 0 2.72 0 0 Z " fill="#000000" transform="translate(184,48)"/>
<path d="M0 0 C10.56 0 21.12 0 32 0 C32 2.64 32 5.28 32 8 C21.44 8 10.88 8 0 8 C0 5.36 0 2.72 0 0 Z " fill="#000000" transform="translate(184,32)"/>
<path d="M0 0 C2.64 0 5.28 0 8 0 C8 2.64 8 5.28 8 8 C5.36 8 2.72 8 0 8 C0 5.36 0 2.72 0 0 Z " fill="#000000" transform="translate(228,168)"/>
<path d="M0 0 C2.64 0 5.28 0 8 0 C8 2.64 8 5.28 8 8 C5.36 8 2.72 8 0 8 C0 5.36 0 2.72 0 0 Z " fill="#000000" transform="translate(212,168)"/>
<path d="M0 0 C2.64 0 5.28 0 8 0 C8 2.64 8 5.28 8 8 C5.36 8 2.72 8 0 8 C0 5.36 0 2.72 0 0 Z " fill="#000000" transform="translate(196,168)"/>
<path d="M0 0 C2.64 0 5.28 0 8 0 C8 2.64 8 5.28 8 8 C5.36 8 2.72 8 0 8 C0 5.36 0 2.72 0 0 Z " fill="#000000" transform="translate(152,136)"/>
<path d="M0 0 C2.64 0 5.28 0 8 0 C8 2.64 8 5.28 8 8 C5.36 8 2.72 8 0 8 C0 5.36 0 2.72 0 0 Z " fill="#000000" transform="translate(168,64)"/>
<path d="M0 0 C2.64 0 5.28 0 8 0 C8 2.64 8 5.28 8 8 C5.36 8 2.72 8 0 8 C0 5.36 0 2.72 0 0 Z " fill="#000000" transform="translate(168,48)"/>
<path d="M0 0 C2.64 0 5.28 0 8 0 C8 2.64 8 5.28 8 8 C5.36 8 2.72 8 0 8 C0 5.36 0 2.72 0 0 Z " fill="#000000" transform="translate(168,32)"/>
</svg>
