<?xml version="1.0" encoding="UTF-8"?>
<svg version="1.1" xmlns="http://www.w3.org/2000/svg" width="3333" height="3333">
<path d="M0 0 C3.62773409 1.60343001 6.46000401 3.82595526 9.54306102 6.3062405 C10.37050181 6.96976845 10.37050181 6.96976845 11.21465857 7.64670101 C13.07395612 9.13975136 14.92861248 10.6384448 16.78306198 12.13751125 C18.12977335 13.22227025 19.4766018 14.30688391 20.82353701 15.39136495 C25.34131243 19.03264708 29.8506688 22.68427239 34.35858154 26.3377533 C35.14687559 26.97640536 35.93516964 27.61505743 36.74735138 28.27306258 C102.52489977 81.57761654 167.57037613 135.75124394 392.41699268 337.017372 C396.55667597 340.83796657 400.69995476 344.6546331 404.84507948 348.46932274 C463.04660971 402.03595228 520.51576548 456.32002315 615.91015625 556.796875 C616.44308368 557.37469001 616.97601112 557.95250501 617.52508787 558.54782957 C669.24791978 614.66341274 719.29004941 672.93843519 845.43036842 1180.81793308 C844.28401933 1208.60021985 842.43870857 1236.33650243 840.44574478 1264.06897131 C840.1003975 1268.9079811 839.76499003 1273.74766094 839.42922062 1278.58734314 C833.4110913 1365.15123135 824.96644318 1451.4524979 811.09043884 1537.13543701 C810.94425002 1538.04042639 810.79806119 1538.94541577 810.64744241 1539.87782906 C804.7909784 1576.04928871 797.77764517 1611.9847423 791 1648 C856.67 1648 922.34 1648 990 1648 C990 1384 990 1120 990 848 C1320.33 848 1650.66 848 1991 848 C1991 1112 1991 1376 1991 1648 C2156 1648 2321 1648 2491 1648 C2491 1714 2491 1780 2491 1848 C1566.67 1848 642.34 1848 -310 1848 C-310.28875 1611.59625 -310.5775 1375.1925 -310.875 1131.625 C-311.00245605 1056.87178223 -311.12991211 982.11856445 -311.26123047 905.10009766 C-311.32446289 814.0925293 -311.32446289 814.0925293 -311.33621216 771.54110718 C-311.34973162 740.72168689 -311.40539857 709.90270827 -311.48575635 679.08340832 C-311.57021066 646.59804095 -311.60946505 614.11293105 -311.58987128 581.62745169 C-311.58715194 577.09746834 -311.58493193 572.56748486 -311.58301187 568.0375011 C-311.58242008 566.70579555 -311.58242008 566.70579555 -311.58181634 565.34718686 C-311.57690073 551.41831927 -311.61830897 537.49001137 -311.68027685 523.5612972 C-311.73967661 509.99580907 -311.74926486 496.43104861 -311.70569476 482.8654919 C-311.68166686 474.91659131 -311.69591283 466.96999779 -311.76702923 459.02136636 C-311.8156783 453.10225897 -311.79083892 447.18490995 -311.73795772 441.26579036 C-311.72798606 438.89160292 -311.74133212 436.5171691 -311.78129396 434.14329705 C-312.03845665 417.83006832 -308.94420624 408.60282059 -297.59789445 396.70962209 C-295.57858378 394.54911761 -293.84223473 392.23444884 -292.1328125 389.82421875 C-291.62878906 389.13328125 -291.12476563 388.44234375 -290.60546875 387.73046875 C-289.87263672 386.71919922 -289.87263672 386.71919922 -289.125 385.6875 C-284.1622521 378.89637129 -279.11329775 372.17845525 -274 365.5 C-268.9333719 358.88061726 -263.92564541 352.22496793 -259 345.5 C-253.4133758 337.87259983 -247.70723662 330.34355435 -241.9609375 322.8359375 C-237.57935674 317.10097273 -233.26457042 311.32240437 -229 305.5 C-223.4133758 297.87259983 -217.70723662 290.34355435 -211.9609375 282.8359375 C-207.57935674 277.10097273 -203.26457042 271.32240437 -199 265.5 C-193.4133758 257.87259983 -187.70723662 250.34355435 -181.9609375 242.8359375 C-177.57935674 237.10097273 -173.26457042 231.32240437 -169 225.5 C-163.4133758 217.87259983 -157.70723662 210.34355435 -151.9609375 202.8359375 C-147.57935674 197.10097273 -143.26457042 191.32240437 -139 185.5 C-133.4133758 177.87259983 -127.70723662 170.34355435 -121.9609375 162.8359375 C-117.57935674 157.10097273 -113.26457042 151.32240437 -109 145.5 C-103.4133758 137.87259983 -97.70723662 130.34355435 -91.9609375 122.8359375 C-87.57935674 117.10097273 -83.26457042 111.32240437 -79 105.5 C-73.4133758 97.87259983 -67.70723662 90.34355435 -61.9609375 82.8359375 C-57.57935674 77.10097273 -53.26457042 71.32240437 -49 65.5 C-44.07435157 58.77502794 -39.06645012 52.11952221 -34 45.5 C-28.26679705 38.00809085 -22.61818272 30.46114083 -17.03857422 22.85424805 C-11.41745628 15.19211927 -5.716753 7.59092661 0 0 Z M343.5625 669.375 C342.83933594 670.2721875 342.11617187 671.169375 341.37109375 672.09375 C338.67366629 675.39998728 335.9085463 678.64127851 333.125 681.875 C332.10023228 683.06638205 331.07549273 684.25778833 330.05078125 685.44921875 C329.29015381 686.33359619 329.29015381 686.33359619 328.51416016 687.23583984 C322.7880908 693.90732923 317.10820726 700.61508315 311.5625 707.4375 C307.60491812 712.30129025 303.53457554 717.05881231 299.44165039 721.80834961 C296.41054711 725.33298919 293.43014684 728.89039882 290.5 732.5 C286.5662143 737.34596789 282.51552241 742.08098528 278.44140625 746.80859375 C275.41041716 750.33317903 272.43007419 753.89048832 269.5 757.5 C265.5662143 762.34596789 261.51552241 767.08098528 257.44140625 771.80859375 C254.41041716 775.33317903 251.43007419 778.89048832 248.5 782.5 C244.11287098 787.90076172 239.58776588 793.174677 235.05078125 798.44921875 C228.80572679 805.71031003 222.6036885 813.00553429 216.5625 820.4375 C212.60491812 825.30129025 208.53457554 830.05881231 204.44165039 834.80834961 C201.41054711 838.33298919 198.43014684 841.89039882 195.5 845.5 C191.5662143 850.34596789 187.51552241 855.08098528 183.44140625 859.80859375 C180.41041716 863.33317903 177.43007419 866.89048832 174.5 870.5 C170.11287098 875.90076172 165.58776588 881.174677 161.05078125 886.44921875 C154.80572679 893.71031003 148.6036885 901.00553429 142.5625 908.4375 C138.60491812 913.30129025 134.53457554 918.05881231 130.44165039 922.80834961 C127.41054711 926.33298919 124.43014684 929.89039882 121.5 933.5 C117.5662143 938.34596789 113.51552241 943.08098528 109.44140625 947.80859375 C106.41041716 951.33317903 103.43007419 954.89048832 100.5 958.5 C96.11287098 963.90076172 91.58776588 969.174677 87.05078125 974.44921875 C80.80572679 981.71031003 74.6036885 989.00553429 68.5625 996.4375 C64.60491812 1001.30129025 60.53457554 1006.05881231 56.44165039 1010.80834961 C53.41054711 1014.33298919 50.43014684 1017.89039882 47.5 1021.5 C43.5662143 1026.34596789 39.51552241 1031.08098528 35.44140625 1035.80859375 C32.41041716 1039.33317903 29.43007419 1042.89048832 26.5 1046.5 C22.11287098 1051.90076172 17.58776588 1057.174677 13.05078125 1062.44921875 C6.80572679 1069.71031003 0.6036885 1077.00553429 -5.4375 1084.4375 C-9.39508188 1089.30129025 -13.46542446 1094.05881231 -17.55834961 1098.80834961 C-20.58945289 1102.33298919 -23.56985316 1105.89039882 -26.5 1109.5 C-30.4337857 1114.34596789 -34.48447759 1119.08098528 -38.55859375 1123.80859375 C-41.58958284 1127.33317903 -44.56992581 1130.89048832 -47.5 1134.5 C-51.4337857 1139.34596789 -55.48447759 1144.08098528 -59.55859375 1148.80859375 C-62.58958284 1152.33317903 -65.56992581 1155.89048832 -68.5 1159.5 C-71.89616508 1163.6808386 -75.36366417 1167.79110304 -78.875 1171.875 C-79.38272949 1172.46595459 -79.89045898 1173.05690918 -80.41357422 1173.66577148 C-82.42401614 1176.00491077 -84.43494512 1178.3436289 -86.44726562 1180.68115234 C-103.30978147 1198.5146076 -103.30978147 1198.5146076 -109.34375 1221.19921875 C-108.32078679 1229.53404397 -104.37698205 1236.56507211 -98 1242 C-91.69147234 1245.96254394 -85.76886536 1248.1243131 -78.28970814 1248.12584114 C-77.36630345 1248.12844889 -76.44289877 1248.13105664 -75.49151212 1248.13374341 C-74.48568717 1248.13151268 -73.47986223 1248.12928196 -72.44355774 1248.12698364 C-71.36828345 1248.12854363 -70.29300916 1248.13010362 -69.1851508 1248.13171089 C-65.57564982 1248.13570512 -61.96619076 1248.13253726 -58.35668945 1248.12939453 C-55.77122472 1248.13074931 -53.18576019 1248.13252967 -50.60029602 1248.13470459 C-44.30168282 1248.13915263 -38.00308154 1248.13818988 -31.70446787 1248.13529195 C-26.58262732 1248.13303313 -21.46079011 1248.13272748 -16.3389492 1248.13381577 C-15.60981851 1248.133969 -14.88068783 1248.13412223 -14.12946227 1248.13428011 C-12.64815925 1248.13459984 -11.16685623 1248.13492405 -9.68555322 1248.1352527 C4.20857522 1248.13810492 18.10269707 1248.13482502 31.99682442 1248.12945233 C43.90698457 1248.12498922 55.81713496 1248.12575666 67.72729492 1248.13037109 C81.56412044 1248.1357295 95.40094016 1248.13782531 109.23776656 1248.13475883 C110.7151345 1248.13444029 112.19250244 1248.13412592 113.66987038 1248.13381577 C114.39671343 1248.13366149 115.12355648 1248.13350721 115.87242508 1248.13334826 C120.98288551 1248.13248656 126.09334225 1248.13393862 131.20380211 1248.13629532 C138.0926779 1248.1394023 144.98153503 1248.13717177 151.87040901 1248.13140106 C154.39631495 1248.13008095 156.92222243 1248.13045485 159.44812775 1248.13266373 C162.9016524 1248.13540482 166.35511857 1248.13195787 169.80863953 1248.12698364 C170.80331086 1248.12921436 171.7979822 1248.13144509 172.82279509 1248.13374341 C178.93851253 1248.11671275 184.92729449 1247.72533733 191 1247 C190.51484169 1248.77802254 190.51484169 1248.77802254 190.0198822 1250.59196472 C181.94253531 1280.21543437 174.0542589 1309.88405618 166.31268311 1339.59692383 C163.26016133 1351.31231069 160.19851583 1363.02531568 157.13671875 1374.73828125 C156.83020134 1375.91106754 156.52368393 1377.08385384 156.20787811 1378.29217911 C150.47913272 1400.20782764 144.69293897 1422.10788284 138.875 1444 C137.11520504 1450.62221524 135.35578893 1457.24453071 133.59765625 1463.8671875 C133.37752239 1464.69639772 133.15738853 1465.52560795 132.93058395 1466.37994576 C129.01198322 1481.14549843 125.12443798 1495.91913983 121.24609375 1510.6953125 C120.95771385 1511.79395378 120.66933395 1512.89259506 120.37221527 1514.0245285 C117.53961272 1524.81695507 114.70900045 1535.6099015 111.88194275 1546.40378189 C110.83971365 1550.38229009 109.79656514 1554.36055696 108.75331879 1558.33879852 C108.2459124 1560.27481637 107.73897488 1562.21095717 107.23252106 1564.14722443 C104.47244526 1574.69932247 101.67376923 1585.23873423 98.78662109 1595.75683594 C98.26764002 1597.6562081 97.74877303 1599.55561144 97.23002625 1601.45504761 C96.25931683 1605.00850418 95.27567892 1608.55801814 94.28425598 1612.10574341 C93.84680506 1613.70300982 93.40982257 1615.30040462 92.97338867 1616.89794922 C92.7719116 1617.60449017 92.57043453 1618.31103111 92.3628521 1619.03898239 C90.4485382 1626.13468355 90.02069884 1632.57594647 93.65625 1639.171875 C96.57018791 1643.13618588 100.39001033 1645.46333678 105 1647 C107.47165112 1647.31047821 107.47165112 1647.31047821 110.1875 1647.375 C111.08855469 1647.42398438 111.98960937 1647.47296875 112.91796875 1647.5234375 C120.62007492 1646.21534849 125.67504962 1640.67421458 130.4375 1634.875 C130.99751709 1634.21121338 131.55753418 1633.54742676 132.13452148 1632.86352539 C133.76917934 1630.91924659 135.38769289 1628.96283116 137 1627 C137.79664063 1626.03191406 138.59328125 1625.06382812 139.4140625 1624.06640625 C140.84375073 1622.31698774 142.26955335 1620.56438641 143.69140625 1618.80859375 C146.41344091 1615.4970152 149.20139731 1612.24686941 152 1609 C155.55457492 1604.875357 159.06792298 1600.72792096 162.5 1596.5 C166.4337857 1591.65403211 170.48447759 1586.91901472 174.55859375 1582.19140625 C177.58958284 1578.66682097 180.56992581 1575.10951168 183.5 1571.5 C187.88712902 1566.09923828 192.41223412 1560.825323 196.94921875 1555.55078125 C203.19427321 1548.28968997 209.3963115 1540.99446571 215.4375 1533.5625 C219.39508188 1528.69870975 223.46542446 1523.94118769 227.55834961 1519.19165039 C230.58945289 1515.66701081 233.56985316 1512.10960118 236.5 1508.5 C240.4337857 1503.65403211 244.48447759 1498.91901472 248.55859375 1494.19140625 C251.58958284 1490.66682097 254.56992581 1487.10951168 257.5 1483.5 C261.88712902 1478.09923828 266.41223412 1472.825323 270.94921875 1467.55078125 C277.19427321 1460.28968997 283.3963115 1452.99446571 289.4375 1445.5625 C293.39508188 1440.69870975 297.46542446 1435.94118769 301.55834961 1431.19165039 C304.58945289 1427.66701081 307.56985316 1424.10960118 310.5 1420.5 C314.4337857 1415.65403211 318.48447759 1410.91901472 322.55859375 1406.19140625 C325.58958284 1402.66682097 328.56992581 1399.10951168 331.5 1395.5 C335.88712902 1390.09923828 340.41223412 1384.825323 344.94921875 1379.55078125 C351.19427321 1372.28968997 357.3963115 1364.99446571 363.4375 1357.5625 C367.39508188 1352.69870975 371.46542446 1347.94118769 375.55834961 1343.19165039 C378.58945289 1339.66701081 381.56985316 1336.10960118 384.5 1332.5 C388.4337857 1327.65403211 392.48447759 1322.91901472 396.55859375 1318.19140625 C399.58958284 1314.66682097 402.56992581 1311.10951168 405.5 1307.5 C409.88712902 1302.09923828 414.41223412 1296.825323 418.94921875 1291.55078125 C425.19427321 1284.28968997 431.3963115 1276.99446571 437.4375 1269.5625 C441.39508188 1264.69870975 445.46542446 1259.94118769 449.55834961 1255.19165039 C452.58945289 1251.66701081 455.56985316 1248.10960118 458.5 1244.5 C462.4337857 1239.65403211 466.48447759 1234.91901472 470.55859375 1230.19140625 C473.58958284 1226.66682097 476.56992581 1223.10951168 479.5 1219.5 C483.88712902 1214.09923828 488.41223412 1208.825323 492.94921875 1203.55078125 C499.19427321 1196.28968997 505.3963115 1188.99446571 511.4375 1181.5625 C515.39508188 1176.69870975 519.46542446 1171.94118769 523.55834961 1167.19165039 C526.58945289 1163.66701081 529.56985316 1160.10960118 532.5 1156.5 C536.4337857 1151.65403211 540.48447759 1146.91901472 544.55859375 1142.19140625 C547.58958284 1138.66682097 550.56992581 1135.10951168 553.5 1131.5 C556.93208635 1127.27206753 560.44568514 1123.12487739 564 1119 C569.0984846 1113.07790785 574.09850631 1107.08688372 579 1101 C579.66128906 1100.19691406 580.32257812 1099.39382813 581.00390625 1098.56640625 C587.24961592 1090.83424375 589.71267036 1084.72204402 589.4765625 1074.64453125 C588.51110287 1067.26113914 585.16674792 1060.64655384 579.75 1055.5 C571.80642053 1049.81055057 563.91406601 1048.40975055 554.31942749 1048.48101807 C553.18382279 1048.47351681 552.04821809 1048.46601556 550.87820113 1048.458287 C547.09488164 1048.4380804 543.31216548 1048.44609916 539.52880859 1048.45410156 C536.8081377 1048.44757414 534.08750203 1048.43505026 531.36685181 1048.42277527 C525.52074956 1048.39952147 519.67477116 1048.39071213 513.82862473 1048.39188385 C505.37624638 1048.39355679 496.92403259 1048.37318085 488.47169824 1048.34752855 C474.75636804 1048.30649743 461.04106755 1048.28314733 447.32568359 1048.27099609 C434.0072952 1048.25915854 420.68896268 1048.23894433 407.37060547 1048.20751953 C406.13793015 1048.20461538 406.13793015 1048.20461538 404.8803523 1048.20165256 C400.75745465 1048.19188762 396.6345574 1048.18195857 392.51166034 1048.17194796 C358.3411316 1048.08919215 324.17061011 1048.03516461 290 1048 C290.26232559 1047.02223593 290.26232559 1047.02223593 290.52995068 1046.02471906 C292.20829234 1039.76859206 293.88600587 1033.51229696 295.5630773 1027.25582932 C296.42452479 1024.04220285 297.28625343 1020.82865242 298.14839649 1017.61521244 C303.86057051 996.32348189 309.4760879 975.00825724 315.01358032 953.67050171 C317.56821736 943.83087235 320.131781 933.99356511 322.6953125 924.15625 C323.08891307 922.64559495 323.08891307 922.64559495 323.49046516 921.10442162 C329.21946658 899.12021769 335.01000911 877.15240208 340.8125 855.1875 C342.7908369 847.69804135 344.76883964 840.20849459 346.74609375 832.71875 C346.99478022 831.77674744 347.24346668 830.83474487 347.4996891 829.86419678 C355.00886973 801.4150913 362.4613068 772.95106744 369.91560459 744.48754215 C370.46365062 742.39528279 371.01191405 740.30308037 371.56040096 738.21093655 C372.88015734 733.17590584 374.19645287 728.14002873 375.50462341 723.10197449 C377.71854386 714.5906496 379.95368734 706.08990798 382.34564018 697.62660122 C383.33708671 694.11570713 384.31065004 690.59995653 385.28355789 687.0838871 C385.73797082 685.4638759 386.2019062 683.84649904 386.67631149 682.23222923 C390.3046848 670.03302125 390.3046848 670.03302125 387 658 C383.51733349 653.36634562 378.71840593 650.11881855 373 649 C358.82549454 647.45929288 351.51033334 659.6705803 343.5625 669.375 Z M1380.28308105 1148.88336182 C1379.48032006 1148.9597859 1378.67755906 1149.03620998 1377.85047197 1149.11494994 C1358.33443374 1151.19997855 1341.0473131 1159.64536398 1326 1172 C1325.29746094 1172.53882812 1324.59492187 1173.07765625 1323.87109375 1173.6328125 C1305.16438381 1188.67376312 1293.79215891 1213.58374057 1291 1237 C1290.72638336 1242.68387402 1290.73767512 1248.35696045 1290.75949097 1254.04620361 C1290.75861745 1255.75185388 1290.75686378 1257.45750388 1290.75431263 1259.16315246 C1290.74986387 1263.82212194 1290.75780861 1268.48099857 1290.76786876 1273.13995624 C1290.77653676 1278.17455705 1290.77358073 1283.20915298 1290.77206421 1288.24375916 C1290.77101747 1296.95728029 1290.77727197 1305.67077139 1290.78853989 1314.38428497 C1290.8048206 1326.98243063 1290.81000552 1339.58056183 1290.81251587 1352.17871687 C1290.81688894 1372.62029213 1290.83018751 1393.06185139 1290.84912109 1413.50341797 C1290.86748994 1433.35595623 1290.88161859 1453.20849012 1290.89013672 1473.06103516 C1290.89067271 1474.29801293 1290.89120871 1475.5349907 1290.89176095 1476.80945265 C1290.89591999 1486.48398582 1290.89983377 1496.15851909 1290.90367007 1505.8330524 C1290.92252428 1553.22204962 1290.96276402 1600.61100677 1291 1648 C1422.67 1648 1554.34 1648 1690 1648 C1690.08741962 1575.89941931 1690.08741962 1575.89941931 1690.14648438 1503.79882812 C1690.1523577 1494.07169581 1690.15841906 1484.34456364 1690.16479492 1474.61743164 C1690.16558617 1473.3983499 1690.16637741 1472.17926815 1690.16719264 1470.92324454 C1690.18022876 1451.26047936 1690.20387371 1431.5977406 1690.23145839 1411.93499107 C1690.25954583 1391.74497907 1690.27618332 1371.55498086 1690.28226548 1351.36495012 C1690.286375 1338.91381423 1690.2993391 1326.46275297 1690.3237494 1314.01164006 C1690.33964781 1305.46516801 1690.34439108 1296.91873435 1690.34050413 1288.3722486 C1690.33858897 1283.44666831 1690.34145597 1278.52121812 1690.35761642 1273.59566116 C1690.37233804 1269.07535341 1690.37287383 1264.55526185 1690.36269668 1260.03494363 C1690.36144099 1258.41015224 1690.36514198 1256.78534672 1690.37464955 1255.16058267 C1690.52773443 1227.35513882 1683.03570839 1201.81323634 1664 1181 C1663.23042969 1180.14921875 1662.46085937 1179.2984375 1661.66796875 1178.421875 C1641.18662449 1156.84863355 1614.05945711 1148.6615671 1585.06114197 1147.81615448 C1579.96716602 1147.72100662 1574.87394246 1147.72891029 1569.77929688 1147.74121094 C1567.84822967 1147.73849131 1565.9171635 1147.734925 1563.98609924 1147.73059082 C1558.80632731 1147.72157991 1553.62663627 1147.72496372 1548.44686317 1147.73134899 C1542.98569165 1147.73646825 1537.52452633 1147.73170128 1532.06335449 1147.72857666 C1522.89818091 1147.72495409 1513.73303973 1147.72969097 1504.56787109 1147.73925781 C1494.02278213 1147.75013903 1483.47777056 1147.74661223 1472.93268347 1147.735605 C1463.82375607 1147.72648314 1454.71485176 1147.72527065 1445.60592127 1147.73048234 C1440.18969616 1147.73357526 1434.77350723 1147.73408611 1429.35728455 1147.72740936 C1424.26154456 1147.72156467 1419.16590281 1147.72576075 1414.07017326 1147.73719788 C1412.21766764 1147.73980686 1410.36515351 1147.73914528 1408.51265144 1147.73467255 C1399.05473958 1147.71397022 1389.7017153 1147.97272263 1380.28308105 1148.88336182 Z " fill="#000000" transform="translate(543,1252)"/>
<path d="M0 0 C1.26587952 0.00432037 2.53175903 0.00864075 3.83599854 0.01309204 C22.08984885 0.08604298 40.00832981 0.4872423 58.0625 3.375 C59.17367187 3.54128906 60.28484375 3.70757812 61.4296875 3.87890625 C133.40000051 14.79575148 201.30074367 45.63352778 257.0625 92.375 C257.62259766 92.84341309 258.18269531 93.31182617 258.75976562 93.79443359 C265.50569208 99.45105881 272.03967947 105.17092462 278.1796875 111.4921875 C279.78806137 113.10056137 281.40631271 114.52933622 283.1875 115.9375 C286.23870324 118.52438971 288.6992986 121.30913205 291.28515625 124.34765625 C292.93130511 126.22535132 294.63985116 127.95627698 296.4375 129.6875 C300.55832292 133.75362173 304.1230069 138.22370769 307.73779297 142.73828125 C309.15273922 144.4864935 310.59162252 146.21283035 312.03515625 147.9375 C325.69610443 164.34032493 337.4798633 181.84924327 348.0625 200.375 C348.80862549 201.67775879 348.80862549 201.67775879 349.56982422 203.00683594 C367.17771677 233.96912434 380.47514046 266.79872595 389.0625 301.375 C389.32901367 302.44782227 389.59552734 303.52064453 389.87011719 304.62597656 C413.52569115 401.61668332 400.51099386 507.65868721 343.1875 609 C334.44834473 623.27970409 324.82632892 636.78210628 314.32226562 649.81103516 C313.14015949 651.27858785 311.96815059 652.75425762 310.796875 654.23046875 C305.80103196 660.45730189 300.50134597 666.33837528 295.05078125 672.1640625 C293.1271278 674.22083005 291.22791583 676.29495184 289.35546875 678.3984375 C285.09244307 683.17878888 280.81786037 687.65112136 275.9140625 691.7734375 C274.0881348 693.35282644 272.42444426 695.0120697 270.75 696.75 C266.68912207 700.86550858 262.22541731 704.42680172 257.71679688 708.03710938 C255.91694521 709.4927155 254.13749151 710.97105667 252.359375 712.453125 C243.27504889 719.99404149 233.94402953 726.91547875 224.0625 733.375 C223.31597168 733.86355469 222.56944336 734.35210938 221.80029297 734.85546875 C210.49787829 742.20924556 198.98233157 749.07082034 187.0625 755.375 C186.23975586 755.81166992 185.41701172 756.24833984 184.56933594 756.69824219 C147.12315007 776.40750788 106.78825795 789.37901915 65.0625 796.1875 C63.27718872 796.47995605 63.27718872 796.47995605 61.45581055 796.77832031 C41.29675107 799.89557312 21.32360848 800.78431056 0.9375 800.75 C-0.97603271 800.74868576 -0.97603271 800.74868576 -2.92822266 800.74734497 C-23.52049834 800.7008224 -43.6375282 799.92198723 -63.9375 796.375 C-64.64614197 796.2514917 -65.35478394 796.1279834 -66.0848999 796.00073242 C-85.01981018 792.65776738 -103.64211944 788.33437622 -121.9375 782.375 C-122.8965625 782.06449707 -123.855625 781.75399414 -124.84375 781.43408203 C-138.88087625 776.83981648 -152.48811595 771.47154754 -165.9375 765.375 C-166.80084961 764.98586426 -167.66419922 764.59672852 -168.55371094 764.19580078 C-195.38000818 752.01971458 -220.80476992 736.65133963 -243.9375 718.375 C-244.741875 717.74980469 -245.54625 717.12460937 -246.375 716.48046875 C-265.50159882 701.43053282 -284.1297348 684.91262023 -299.9375 666.375 C-300.78570313 665.4159375 -301.63390625 664.456875 -302.5078125 663.46875 C-326.2382689 636.50563668 -344.76603286 606.31936241 -360.9375 574.375 C-361.49800049 573.27816895 -361.49800049 573.27816895 -362.06982422 572.15917969 C-383.26450836 530.37856251 -394.06695534 483.69473883 -398.9375 437.375 C-399.0420752 436.38870605 -399.14665039 435.40241211 -399.25439453 434.38623047 C-400.2532327 423.45261549 -400.18123405 412.46998795 -400.1875 401.5 C-400.18817474 400.43631195 -400.18884949 399.3726239 -400.18954468 398.27670288 C-400.09073407 299.85487788 -363.35570179 204.57834657 -297.10546875 131.76171875 C-295.65964724 130.17001254 -294.22469249 128.56836774 -292.80078125 126.95703125 C-285.12039049 118.28384312 -277.06842963 109.83583609 -268.23046875 102.328125 C-266.35849222 100.73359644 -264.51382179 99.11749358 -262.67578125 97.484375 C-241.11717326 78.40642033 -217.160949 62.2191746 -191.9375 48.375 C-191.13344727 47.92850098 -190.32939453 47.48200195 -189.50097656 47.02197266 C-152.80851476 26.74985461 -112.32734499 13.34229368 -71.1875 5.6875 C-70.17880859 5.49679932 -69.17011719 5.30609863 -68.13085938 5.10961914 C-45.5304228 1.13509553 -22.91334151 -0.14937804 0 0 Z " fill="#000000" transform="translate(2732.9375,199.625)"/>
<path d="M0 0 C42.95044999 -9.24245274 85.97835653 -15.18930591 129.77343929 -18.49523717 C132.30351993 -18.68682001 134.83314864 -18.88376194 137.36280918 -19.08080435 C225.19202939 -25.80965695 296.24596542 -13.43977409 364.57950941 44.91954618 C401.21410872 76.58090356 434.99315298 111.25362668 467.87645382 146.74128574 C470.38205472 149.44511284 472.89049792 152.14628047 475.39931154 154.84712648 C515.4353506 197.98148937 554.24782104 242.11619999 591.68099976 287.52854919 C592.41328162 288.41563623 592.41328162 288.41563623 593.16035707 289.32064421 C594.50122811 290.94711936 595.83841523 292.57653019 597.17398643 294.20735836 C597.91857152 295.11526967 598.66315661 296.02318098 599.43030488 296.95860475 C601 299 601 299 601 300 C575.63401446 300.13337376 550.26801506 300.26380361 524.90199852 300.39115143 C513.11174202 300.45040494 501.32149087 300.51046142 489.53125 300.57275391 C479.198889 300.62734142 468.8665201 300.68007208 458.53414023 300.73096704 C453.11414682 300.75771922 447.69415962 300.78512857 442.27418137 300.81480408 C441.27367949 300.81992353 440.27317761 300.82504297 439.24235749 300.83031756 C437.20613863 300.8418796 435.16993244 300.85591787 433.13374686 300.87232631 C427.79786976 300.91071025 422.47005295 300.8957802 417.1349411 300.79193974 C404.88589728 300.61300578 393.04291144 301.0052897 380.87756521 302.37784973 C343.454765 306.57800111 306.52722224 310.40565355 275.4879353 285.70624524 C259.8393217 272.78288922 245.90658767 257.89215296 232.20439409 242.96875847 C224.30630356 234.38670328 216.13162774 226.08852306 207.93728815 217.79055291 C193.34490296 202.99944174 178.9732236 188.01275228 164.73486328 172.88110352 C150.94158199 158.22340312 137.04728104 143.67387636 123.01025391 129.24926758 C122.13885124 128.35373431 121.26744858 127.45820104 120.36963977 126.5355304 C115.99545404 122.04144395 111.61931917 117.54926103 107.24229455 113.05793965 C80.69490711 85.81261018 54.2864606 58.43891754 28.11435771 30.83271348 C26.05932788 28.66520733 24.00347257 26.49848644 21.94754791 24.33182907 C18.79134145 21.00459091 15.63833118 17.67435765 12.48833571 14.34123891 C11.34383711 13.13057652 10.19861836 11.92059446 9.05264212 10.71133066 C7.50680518 9.07931427 5.96420989 7.44430492 4.42263985 5.80825901 C3.56226588 4.89730994 2.70189192 3.98636087 1.81544602 3.04780728 C0 1 0 1 0 0 Z " fill="#000000" transform="translate(1774,1600)"/>
<path d="M0 0 C42.95044999 -9.24245274 85.97835653 -15.18930591 129.77343929 -18.49523717 C132.30351993 -18.68682001 134.83314864 -18.88376194 137.36280918 -19.08080435 C225.19202939 -25.80965695 296.24596542 -13.43977409 364.57950941 44.91954618 C401.21410872 76.58090356 434.99315298 111.25362668 467.87645382 146.74128574 C470.38205472 149.44511284 472.89049792 152.14628047 475.39931154 154.84712648 C515.4353506 197.98148937 554.24782104 242.11619999 591.68099976 287.52854919 C592.41328162 288.41563623 592.41328162 288.41563623 593.16035707 289.32064421 C594.50122811 290.94711936 595.83841523 292.57653019 597.17398643 294.20735836 C597.91857152 295.11526967 598.66315661 296.02318098 599.43030488 296.95860475 C601 299 601 299 601 300 C575.63401446 300.13337376 550.26801506 300.26380361 524.90199852 300.39115143 C513.11174202 300.45040494 501.32149087 300.51046142 489.53125 300.57275391 C479.198889 300.62734142 468.8665201 300.68007208 458.53414023 300.73096704 C453.11414682 300.75771922 447.69415962 300.78512857 442.27418137 300.81480408 C441.27367949 300.81992353 440.27317761 300.82504297 439.24235749 300.83031756 C437.20613863 300.8418796 435.16993244 300.85591787 433.13374686 300.87232631 C427.79786976 300.91071025 422.47005295 300.8957802 417.1349411 300.79193974 C404.88589728 300.61300578 393.04291144 301.0052897 380.87756521 302.37784973 C343.454765 306.57800111 306.52722224 310.40565355 275.4879353 285.70624524 C259.8393217 272.78288922 245.90658767 257.89215296 232.20439409 242.96875847 C224.30630356 234.38670328 216.13162774 226.08852306 207.93728815 217.79055291 C193.34490296 202.99944174 178.9732236 188.01275228 164.73486328 172.88110352 C150.94158199 158.22340312 137.04728104 143.67387636 123.01025391 129.24926758 C122.13885124 128.35373431 121.26744858 127.45820104 120.36963977 126.5355304 C115.99545404 122.04144395 111.61931917 117.54926103 107.24229455 113.05793965 C80.69490711 85.81261018 54.2864606 58.43891754 28.11435771 30.83271348 C26.05932788 28.66520733 24.00347257 26.49848644 21.94754791 24.33182907 C18.79134145 21.00459091 15.63833118 17.67435765 12.48833571 14.34123891 C11.34383711 13.13057652 10.19861836 11.92059446 9.05264212 10.71133066 C7.50680518 9.07931427 5.96420989 7.44430492 4.42263985 5.80825901 C3.56226588 4.89730994 2.70189192 3.98636087 1.81544602 3.04780728 C0 1 0 1 0 0 Z " fill="#000000" transform="translate(1174,1600)"/>
<path d="M0 0 C47.97389539 -6.0476055 96.00373706 -10.07495046 144.30536002 -12.3095625 C147.0539739 -12.43710437 149.80240875 -12.56812236 152.55085611 -12.69919729 C243.11407314 -16.94905105 320.23277993 -13.93760566 389.95556937 49.17947097 C406.59739477 64.3814632 421.93795921 80.76188361 436.85229462 97.64343184 C438.44256324 99.44323036 440.03594802 101.24023121 441.62974024 103.03690958 C518 189.24172753 518 189.24172753 518 200 C470.02610461 206.0476055 421.99626294 210.07495046 373.69463998 212.3095625 C370.9460261 212.43710437 368.19759125 212.56812236 365.44914389 212.69919729 C274.88592686 216.94905105 197.76722007 213.93760566 128.04443063 150.82052903 C111.40260523 135.6185368 96.06204079 119.23811639 81.14770538 102.35656816 C79.55743676 100.55676964 77.96405198 98.75976879 76.37025976 96.96309042 C0 10.75827247 0 10.75827247 0 0 Z " fill="#000000" transform="translate(774,1200)"/>
<path d="M0 0 C1.60294922 0.77150391 1.60294922 0.77150391 3.23828125 1.55859375 C10.99694202 5.50630246 17.55164422 10.16668859 24 16 C24.85464844 16.77214844 25.70929687 17.54429688 26.58984375 18.33984375 C45.06123354 35.90047164 56.22047411 60.64385347 57.203125 86.12109375 C57.54871056 105.2163469 54.02116371 123.38693976 44.75 140.25 C44.41597168 140.86302979 44.08194336 141.47605957 43.73779297 142.10766602 C37.58178291 152.76576955 28.73358688 161.56681014 20.08691406 170.20361328 C19.02255693 171.27397326 17.9586042 172.34473548 16.89501953 173.41586304 C14.03593164 176.29243411 11.17056432 179.16266591 8.30336475 182.03114939 C6.50521846 183.83072732 4.70850793 185.63172628 2.91228485 187.43322372 C-3.3740835 193.73802994 -9.6655297 200.03771627 -15.96191406 206.33251953 C-21.79969377 212.16909778 -27.6262205 218.01674417 -33.44759154 223.86968434 C-38.4742829 228.92264629 -43.50877706 233.96774541 -48.54925752 239.00695217 C-51.54719908 242.00438751 -54.54205797 245.00474068 -57.5290451 248.01309586 C-60.34048619 250.84410378 -63.16164326 253.66507659 -65.99008179 256.47909927 C-67.01692942 257.50388077 -68.04048198 258.53197833 -69.06015778 259.56389618 C-78.28091709 268.88801115 -88.39405522 276.91892943 -100.4375 282.3125 C-101.15574951 282.63879395 -101.87399902 282.96508789 -102.61401367 283.30126953 C-126.57806248 293.90304746 -154.30168779 294.81487246 -178.96484375 285.79785156 C-190.13802785 281.41757738 -199.72553289 275.61482563 -209 268 C-210.05380859 267.19175781 -210.05380859 267.19175781 -211.12890625 266.3671875 C-230.02123431 251.17699241 -240.80968089 226.54562047 -244 203 C-244.27899888 199.07809182 -244.33449058 195.18089645 -244.3125 191.25 C-244.30758545 190.20086426 -244.3026709 189.15172852 -244.29760742 188.07080078 C-243.67155339 146.35312865 -216.71465114 120.56491306 -189.16244483 92.96225619 C-187.62259309 91.41944091 -186.08331634 89.87605407 -184.54419899 88.33250618 C-179.70154438 83.47624112 -174.85693905 78.62193498 -170.0094201 73.7705254 C-164.46238423 68.21900908 -158.92195712 62.66100717 -153.3871724 57.0972771 C-149.0728186 52.76116401 -144.75257819 48.43097186 -140.42799598 44.10506016 C-137.86089331 41.53692063 -135.29616351 38.96652499 -132.73761559 36.38986015 C-111.46348067 14.97382896 -89.30240423 -5.40414208 -58 -9 C-57.01128906 -9.12117187 -56.02257813 -9.24234375 -55.00390625 -9.3671875 C-35.99347921 -11.27521078 -17.22086904 -8.34317407 0 0 Z " fill="#000000" transform="translate(2277,1009)"/>
<path d="M0 0 C34.61658799 -0.09170873 69.23314807 -0.1621163 103.84983146 -0.20426132 C107.94375177 -0.20926369 112.03767184 -0.21444102 116.1315918 -0.21972656 C116.94656097 -0.2207758 117.76153014 -0.22182505 118.60119534 -0.22290608 C131.768529 -0.24027502 144.93579226 -0.27179319 158.10308426 -0.30861118 C171.6305404 -0.34611864 185.15795987 -0.3682565 198.68546587 -0.37635398 C207.02158766 -0.38182151 215.3575104 -0.39904165 223.69357086 -0.43166587 C229.42273544 -0.45293506 235.15179826 -0.45917225 240.88099938 -0.45400551 C244.17836819 -0.45146281 247.47532191 -0.45738796 250.77264404 -0.4768219 C282.96957434 -0.65717136 309.34372866 7.61800055 332.69879651 30.47336662 C336.51872441 34.25380292 340.31461825 38.05785663 344.10791016 41.86499023 C345.82322763 43.57923348 347.53897828 45.29304336 349.25512695 47.00645447 C353.41119024 51.15819153 357.5626295 55.3145162 361.71188064 59.47305845 C366.54533549 64.31694437 371.38406086 69.15555131 376.22297613 73.99398137 C384.85117358 82.62167958 393.47454882 91.25418138 402.09521484 99.8894043 C410.4626673 108.27097872 418.833649 116.64900754 427.20849609 125.02319336 C427.72560609 125.5402634 428.24271609 126.05733344 428.77549608 126.59007227 C429.29171244 127.10624827 429.8079288 127.62242428 430.33978808 128.15424198 C439.88196918 137.69573428 449.42086334 147.24050657 458.95821697 156.78682409 C462.33191086 160.1635379 465.70658407 163.53927112 469.08156204 166.91470146 C473.61322425 171.44711483 478.142095 175.98230579 482.66908264 180.5193882 C484.3356034 182.18884265 486.00298453 183.85743871 487.67126083 185.52513885 C489.93702092 187.79041226 492.19970721 190.05871011 494.46157837 192.3278656 C495.13178218 192.9965208 495.80198598 193.66517601 496.49249899 194.35409349 C501 198.88582042 501 198.88582042 501 200 C455.81226479 206.06004116 410.57620053 210.07853224 365.04088604 212.3095625 C362.445663 212.43709885 359.85063003 212.56811938 357.25558376 212.69919729 C270.37127291 217.01734056 197.82590958 212.75635636 131.00522017 152.46034074 C113.71779645 136.73178376 97.74776012 119.80756703 82.22140008 102.35656816 C80.61998964 100.55686925 79.0156406 98.75982481 77.41090536 96.96309042 C52.0954885 68.58395278 28.07847592 39.30088109 5.52261353 8.67506409 C4.95435858 7.9036743 4.38610363 7.13228452 3.80062884 6.33751929 C0 1.12617523 0 1.12617523 0 0 Z " fill="#000000" transform="translate(1374,1200)"/>
<path d="M0 0 C1.60294922 0.77150391 1.60294922 0.77150391 3.23828125 1.55859375 C10.99694202 5.50630246 17.55164422 10.16668859 24 16 C24.85464844 16.77214844 25.70929687 17.54429688 26.58984375 18.33984375 C44.48096014 35.34880957 56.14138181 59.76737717 57.09906673 84.56518364 C57.14353601 87.5339395 57.15796556 90.50136937 57.16113281 93.47045898 C57.16609772 94.59524155 57.17106262 95.72002411 57.17617798 96.87889099 C57.19073097 100.58463159 57.19759156 104.29032932 57.203125 107.99609375 C57.20736607 109.90602458 57.20736607 109.90602458 57.21169281 111.85453987 C57.22512181 117.90457955 57.23502157 123.95459679 57.2388947 130.00464863 C57.24336039 136.93837668 57.26084765 143.87190612 57.2898953 150.80557388 C57.31432221 156.85076652 57.321849 162.89587873 57.32357025 168.94111824 C57.32657454 171.49208721 57.33452671 174.0430558 57.34775543 176.59399223 C57.49754133 207.7082204 52.63573203 235.34395343 31 259 C29.84564453 260.27617188 29.84564453 260.27617188 28.66796875 261.578125 C13.41252624 277.64686251 -9.65823577 290.00144208 -32.12109375 291.16113281 C-35.74748917 291.20705007 -39.37333831 291.23527244 -43 291.25 C-44.85818359 291.2809375 -44.85818359 291.2809375 -46.75390625 291.3125 C-70.78398292 291.41272973 -91.83172057 282.3314779 -110 267 C-110.59039063 266.55527344 -111.18078125 266.11054687 -111.7890625 265.65234375 C-130.4558181 251.18781986 -141.04676169 225.7536991 -144 203 C-144.26057356 198.82801567 -144.28413284 194.67216074 -144.2746582 190.49291992 C-144.27976913 189.30581924 -144.28488007 188.11871857 -144.29014587 186.89564514 C-144.30394126 183.0072004 -144.3030926 179.11893492 -144.30078125 175.23046875 C-144.30309672 173.193946 -144.30660097 171.15742752 -144.310188 169.12090665 C-144.32123275 162.72731499 -144.32174939 156.3337821 -144.31567383 149.94018555 C-144.30964069 143.38613614 -144.32193979 136.83230177 -144.3432439 130.27828902 C-144.36096812 124.61330225 -144.36684429 118.94838325 -144.36360615 113.28336984 C-144.36180997 109.91664087 -144.36561306 106.55018645 -144.37832069 103.18346214 C-144.47522331 73.92150083 -139.81561598 47.6868583 -120 25 C-119.47148437 24.32839844 -118.94296875 23.65679688 -118.3984375 22.96484375 C-108.08438292 10.18659387 -92.5933744 1.11411374 -77.3125 -4.375 C-76.64831055 -4.61379883 -75.98412109 -4.85259766 -75.29980469 -5.09863281 C-51.13076176 -13.25730827 -22.82437674 -11.0579639 0 0 Z " fill="#000000" transform="translate(2777,1209)"/>
<path d="M0 0 C1.23250992 -0.00671722 2.46501984 -0.01343445 3.73487854 -0.02035522 C7.08451166 -0.03599109 10.43389663 -0.04270401 13.78354883 -0.0439868 C15.88650071 -0.04541832 17.98942735 -0.0497067 20.09237289 -0.05498123 C27.45824558 -0.07343253 34.82404637 -0.08165835 42.18994141 -0.08007812 C49.00811627 -0.07887928 55.82597331 -0.09994358 62.64406788 -0.13156545 C68.53666583 -0.15790081 74.4291611 -0.16843821 80.32181728 -0.16716731 C83.82390304 -0.16666254 87.32570605 -0.17207095 90.82773209 -0.19352341 C110.33329711 -0.30471528 127.33890877 0.64725572 145.17919922 9.29052734 C146.78214844 10.06203125 146.78214844 10.06203125 148.41748047 10.84912109 C156.17614124 14.79682981 162.73084344 19.45721593 169.17919922 25.29052734 C170.03384766 26.06267578 170.88849609 26.83482422 171.76904297 27.63037109 C190.24043276 45.19099898 201.39967333 69.93438081 202.38232422 95.41162109 C202.87632063 122.70728254 194.7784522 147.95450201 176.17919922 168.29052734 C175.40962891 169.14130859 174.64005859 169.99208984 173.84716797 170.86865234 C158.79132072 186.7271538 135.70361979 199.3449784 113.46537781 200.42195511 C112.53780167 200.42492977 111.61022552 200.42790443 110.65454102 200.43096924 C109.5810994 200.43667938 108.50765778 200.44238953 107.40168762 200.44827271 C105.65766914 200.44994949 105.65766914 200.44994949 103.87841797 200.45166016 C102.64181931 200.45662506 101.40522064 200.46158997 100.13114929 200.46670532 C96.74842526 200.47878185 93.36576281 200.48626439 89.9830246 200.49071598 C87.86321248 200.49365718 85.74340563 200.49776405 83.62359619 200.50222015 C76.97288159 200.5158847 70.32217922 200.52555484 63.67145157 200.52942204 C56.02906518 200.53389177 48.38685863 200.5513933 40.74452686 200.58042264 C34.81557008 200.60215082 28.88666346 200.61213232 22.95766735 200.61346316 C19.42714184 200.61450383 15.89678559 200.62025138 12.36630249 200.63828278 C8.41585708 200.65806692 4.46563011 200.65343049 0.51513672 200.64697266 C-0.63134842 200.65618744 -1.77783356 200.66540222 -2.95906067 200.67489624 C-26.35958385 200.55599016 -47.17197316 191.18366083 -64.82080078 176.29052734 C-65.70638672 175.6234375 -65.70638672 175.6234375 -66.60986328 174.94287109 C-83.78356156 161.63528972 -95.55515111 137.14797402 -98.53955078 115.97021484 C-100.72933591 87.32052606 -95.88084859 58.91748009 -76.73486328 36.48193359 C-76.10322266 35.75876953 -75.47158203 35.03560547 -74.82080078 34.29052734 C-74.29228516 33.61892578 -73.76376953 32.94732422 -73.21923828 32.25537109 C-62.9051837 19.47712121 -47.41417518 10.40464108 -32.13330078 4.91552734 C-31.46911133 4.67672852 -30.80492187 4.43792969 -30.12060547 4.19189453 C-20.20662025 0.84525858 -10.41116144 -0.00827761 0 0 Z " fill="#000000" transform="translate(1931.82080078125,499.70947265625)"/>
</svg>
