<?xml version="1.0" encoding="UTF-8"?>
<svg version="1.1" xmlns="http://www.w3.org/2000/svg" width="400" height="400">
<path d="M0 0 C132 0 264 0 400 0 C400 132 400 264 400 400 C268 400 136 400 0 400 C0 268 0 136 0 0 Z " fill="#000000" transform="translate(0,0)"/>
<path d="M0 0 C12.87 0 25.74 0 39 0 C39.25 12.75 39.25 12.75 39.29785156 16.69042969 C39.68603278 30.21139433 43.28717932 40.03780406 52.69140625 49.74609375 C59.73951456 56.30361447 68.04661619 59.01511961 77.515625 59.31640625 C79.20606934 59.37356812 79.20606934 59.37356812 80.93066406 59.43188477 C82.35604492 59.47498779 83.78142578 59.51809082 85.25 59.5625 C89.7875 59.706875 94.325 59.85125 99 60 C99 72.87 99 85.74 99 99 C94.029375 99.0825 89.05875 99.165 83.9375 99.25 C82.40343506 99.28641602 80.86937012 99.32283203 79.28881836 99.36035156 C64.25384376 99.47937964 52.53622528 95.42921831 39 89 C39.01110306 90.05361725 39.02220612 91.1072345 39.03364563 92.19277954 C39.13591143 102.22223951 39.21038578 112.25159093 39.25906086 122.2814579 C39.28492825 127.43542175 39.31989703 132.58895795 39.37719727 137.74267578 C39.43234697 142.73538664 39.46159127 147.72769163 39.47438622 152.72068405 C39.48347988 154.60608672 39.50122649 156.4914724 39.52865028 158.37669754 C39.87347601 183.11176726 34.91130683 205.28137794 18 224 C17.32453125 224.76828125 16.6490625 225.5365625 15.953125 226.328125 C1.30889707 242.04127467 -19.26663485 249.5951945 -40.33691406 250.45361328 C-62.05577779 250.85055288 -81.92246172 242.54161749 -97.52294922 227.50488281 C-112.46979904 212.27638987 -121.41112395 191.64528358 -121.5 170.25 C-121.05109049 147.2028446 -112.08867064 127.34071698 -95.72631836 111.18286133 C-90.37365157 106.15551801 -84.48031078 102.46153247 -78 99 C-77.09636719 98.50757813 -76.19273437 98.01515625 -75.26171875 97.5078125 C-58.41770755 89.07332986 -40.31466395 90.75580448 -22 91 C-22 103.54 -22 116.08 -22 129 C-34.3125 129.25 -34.3125 129.25 -38.12231445 129.29785156 C-50.37318852 129.66260375 -61.00587286 133.32441726 -69.97265625 141.8828125 C-78.39626996 151.00392288 -81.51407668 160.77221821 -81.30859375 173.11328125 C-80.45349476 183.88319888 -75.89395164 193.2078877 -68.19140625 200.77734375 C-59.48942476 207.88727873 -49.90912213 210.84100924 -38.75 210.41796875 C-25.83339998 208.97830604 -16.80396771 203.99552986 -8.53515625 194.14453125 C-6.05443426 190.67909518 -4.44712053 186.99158364 -3 183 C-2.65874399 182.11658369 -2.31748798 181.23316738 -1.96589088 180.32298088 C-0.87978506 176.58642126 -0.7380801 173.44882356 -0.7215271 169.55886841 C-0.7157347 168.83095309 -0.7099423 168.10303777 -0.70397437 167.35306442 C-0.68703378 164.92559768 -0.68410303 162.49832175 -0.68115234 160.07080078 C-0.67185006 158.32609087 -0.66168094 156.5813854 -0.65071106 154.83668518 C-0.62343087 150.10786186 -0.60826749 145.3790683 -0.59528303 140.65018702 C-0.57964386 135.70538581 -0.55285612 130.76064529 -0.5272522 125.81588745 C-0.48047838 116.45566995 -0.44372748 107.09544102 -0.41057932 97.73516643 C-0.3723481 87.07739326 -0.32294053 76.41968107 -0.27259517 65.76195931 C-0.16929605 43.84134564 -0.08150439 21.92070629 0 0 Z " fill="#F4F4F4" transform="translate(211,75)"/>
<path d="M0 0 C3.3 0 6.6 0 10 0 C10.01401855 1.13260254 10.01401855 1.13260254 10.02832031 2.28808594 C10.08266916 5.77600342 10.16618749 9.26267088 10.25 12.75 C10.26417969 13.93722656 10.27835938 15.12445313 10.29296875 16.34765625 C10.66618837 30.00749452 14.17777003 39.92485729 23.69140625 49.74609375 C30.73951456 56.30361447 39.04661619 59.01511961 48.515625 59.31640625 C50.20606934 59.37356812 50.20606934 59.37356812 51.93066406 59.43188477 C53.35604492 59.47498779 54.78142578 59.51809082 56.25 59.5625 C60.7875 59.706875 65.325 59.85125 70 60 C70 72.87 70 85.74 70 99 C65.029375 99.0825 60.05875 99.165 54.9375 99.25 C53.40343506 99.28641602 51.86937012 99.32283203 50.28881836 99.36035156 C35.00609283 99.48134103 24.1706216 95.54028689 10 89 C10 118.04 10 147.08 10 177 C9.67 177 9.34 177 9 177 C9 153.24 9 129.48 9 105 C6.03 105 3.06 105 0 105 C0 100.05 0 95.1 0 90 C-4.95 90 -9.9 90 -15 90 C-15 85.05 -15 80.1 -15 75 C-10.05 75 -5.1 75 0 75 C0 70.05 0 65.1 0 60 C4.95 60 9.9 60 15 60 C15 55.05 15 50.1 15 45 C10.05 45 5.1 45 0 45 C0 40.05 0 35.1 0 30 C-4.95 30 -9.9 30 -15 30 C-15 25.05 -15 20.1 -15 15 C-10.05 15 -5.1 15 0 15 C0 10.05 0 5.1 0 0 Z " fill="#E6E6E6" transform="translate(240,75)"/>
<path d="M0 0 C0.33 0 0.66 0 1 0 C1 52.8 1 105.6 1 160 C-51.8 160 -104.6 160 -159 160 C-159 159.67 -159 159.34 -159 159 C-158.26038025 158.95654953 -157.5207605 158.91309906 -156.75872803 158.86833191 C-149.64442347 158.44917269 -142.5305513 158.02336462 -135.41704941 157.5908308 C-131.76357807 157.36889818 -128.11000727 157.14917786 -124.45605469 156.93530273 C-109.4122592 156.05306056 -94.4019644 155.06366876 -79.4140625 153.47265625 C-78.27910339 153.35278854 -77.14414429 153.23292084 -75.97479248 153.10942078 C-54.73016137 150.73853187 -36.06977128 143.21743343 -21.9453125 126.60546875 C-12.90021434 114.49084933 -7.9076956 101.53592639 -6.4375 86.5 C-6.26263062 84.84943604 -6.26263062 84.84943604 -6.08422852 83.16552734 C-5.70106319 79.44547067 -5.34638675 75.72365755 -5 72 C-4.90525391 70.98951599 -4.90525391 70.98951599 -4.80859375 69.95861816 C-2.63271841 46.6699524 -1.16213188 23.35947669 0 0 Z " fill="#E5E5E5" transform="translate(399,240)"/>
<path d="M0 0 C56.76 0 113.52 0 172 0 C172 52.8 172 105.6 172 160 C171.67 160 171.34 160 171 160 C170.95512451 159.04786621 170.91024902 158.09573242 170.86401367 157.11474609 C169.76357615 134.02337455 168.31600863 110.9843125 166.33496094 87.95117188 C166.05163331 84.60906225 165.79019901 81.26650416 165.5390625 77.921875 C163.75350241 55.8583606 154.81582946 36.87364987 137.9765625 22.171875 C132.13731931 17.91121987 125.60926852 14.87938417 119 12 C117.8346875 11.47148437 116.669375 10.94296875 115.46875 10.3984375 C109.12694396 8.09748249 102.29216756 7.70749232 95.625 7 C94.87268097 6.91728851 94.12036194 6.83457703 93.34524536 6.74935913 C62.31812446 3.34786796 31.2016184 1.56171603 0 1 C0 0.67 0 0.34 0 0 Z " fill="#E7E7E7" transform="translate(228,0)"/>
<path d="M0 0 C0.33 0 0.66 0 1 0 C1.0501123 0.87285645 1.10022461 1.74571289 1.15185547 2.64501953 C1.7103688 12.33984842 2.28209482 22.03383932 2.86395264 31.72729492 C2.9911791 33.85264475 3.11707416 35.97806927 3.24267578 38.10351562 C4.06503936 51.86893914 5.06110606 65.59643114 6.5 79.3125 C6.61851318 80.45702637 6.73702637 81.60155273 6.85913086 82.78076172 C9.08038979 102.97868576 15.88494071 120.82390651 31 135 C38.34973901 140.84807914 46.13752403 145.75791934 55 149 C55.62632324 149.23936279 56.25264648 149.47872559 56.89794922 149.7253418 C65.58379409 152.71467476 74.6637405 153.22690027 83.75 154.0625 C85.54535323 154.23387491 87.34068175 154.40550881 89.13598633 154.57739258 C114.06048959 156.93124974 138.97745722 158.3125368 164 159 C164 159.33 164 159.66 164 160 C109.88 160 55.76 160 0 160 C0 107.2 0 54.4 0 0 Z " fill="#E6E6E6" transform="translate(0,240)"/>
<path d="M0 0 C51.48 0 102.96 0 156 0 C156 0.33 156 0.66 156 1 C155.44989258 1.02870178 154.89978516 1.05740356 154.33300781 1.0869751 C119.76212646 2.88745545 119.76212646 2.88745545 85.25732422 5.64050293 C83.61171882 5.79440789 81.96555446 5.94247114 80.31884766 6.08410645 C57.15831576 8.10353054 37.14558989 16.47100409 21.91015625 34.46875 C12.11950527 47.66577626 8.02279097 62.58275418 6.4375 78.6875 C6.2530835 80.47184448 6.2530835 80.47184448 6.06494141 82.29223633 C4.97829591 93.26025354 4.26022604 104.24732404 3.64624023 115.25073242 C3.04170674 126.01170129 3.04170674 126.01170129 2.48046875 130.421875 C1.65142107 137.26151837 1.62993324 144.18124458 1.4375 151.0625 C1.39421245 152.5149839 1.35059526 153.96745801 1.30664062 155.41992188 C1.20062746 158.94650991 1.09907252 162.47320935 1 166 C0.67 166 0.34 166 0 166 C0 111.22 0 56.44 0 0 Z " fill="#F1F1F1" transform="translate(0,0)"/>
<path d="M0 0 C0.33 0 0.66 0 1 0 C1 3.63 1 7.26 1 11 C5.95 11 10.9 11 16 11 C16 15.95 16 20.9 16 26 C20.62 26 25.24 26 30 26 C29.34 27.670625 28.68 29.34125 28 31.0625 C24.13991564 42.76682722 25.17213643 53.77609819 30 65 C30.59167969 66.09248047 30.59167969 66.09248047 31.1953125 67.20703125 C31.46085937 67.79871094 31.72640625 68.39039063 32 69 C31.67 69.66 31.34 70.32 31 71 C26.05 71 21.1 71 16 71 C16 66.05 16 61.1 16 56 C11.05 56 6.1 56 1 56 C1 51.05 1 46.1 1 41 C-3.62 41 -8.24 41 -13 41 C-13 45.95 -13 50.9 -13 56 C-13.33 56 -13.66 56 -14 56 C-14.59542264 35.51305062 -12.11232438 17.30332054 0 0 Z " fill="#E7E7E7" transform="translate(104,199)"/>
<path d="M0 0 C4.95 0 9.9 0 15 0 C15 4.62 15 9.24 15 14 C17.97 14 20.94 14 24 14 C24 18.95 24 23.9 24 29 C21.03 29 18.06 29 15 29 C15 31.97 15 34.94 15 38 C10.05 38 5.1 38 0 38 C0 35.03 0 32.06 0 29 C-4.95 29 -9.9 29 -15 29 C-15 24.05 -15 19.1 -15 14 C-10.05 14 -5.1 14 0 14 C0 9.38 0 4.76 0 0 Z " fill="#E7E7E7" transform="translate(285,136)"/>
<path d="M0 0 C2.97 0 5.94 0 9 0 C9 12.54 9 25.08 9 38 C-3.3125 38.25 -3.3125 38.25 -7.12231445 38.29785156 C-13.96659098 38.50163007 -19.54751989 39.51137959 -25.87963867 42.15136719 C-28 43 -28 43 -30 43 C-30 38.38 -30 33.76 -30 29 C-25.05 29 -20.1 29 -15 29 C-15 24.05 -15 19.1 -15 14 C-10.05 14 -5.1 14 0 14 C0 9.38 0 4.76 0 0 Z " fill="#FEFEFE" transform="translate(180,166)"/>
<path d="M0 0 C43.56 0 87.12 0 132 0 C132 4.95 132 9.9 132 15 C136.95 15 141.9 15 147 15 C147 19.95 147 24.9 147 30 C146.05125 29.154375 145.1025 28.30875 144.125 27.4375 C136.38137609 20.84453507 128.4465384 15.79943418 119 12 C117.88625 11.49984375 116.7725 10.9996875 115.625 10.484375 C109.22700942 8.1238351 102.36174096 7.71487516 95.625 7 C94.87268097 6.91728851 94.12036194 6.83457703 93.34524536 6.74935913 C62.31812446 3.34786796 31.2016184 1.56171603 0 1 C0 0.67 0 0.34 0 0 Z " fill="#E4E4E4" transform="translate(228,0)"/>
<path d="M0 0 C0.33 0 0.66 0 1 0 C1.0501123 0.87285645 1.10022461 1.74571289 1.15185547 2.64501953 C1.7103688 12.33984842 2.28209482 22.03383932 2.86395264 31.72729492 C2.9911791 33.85264475 3.11707416 35.97806927 3.24267578 38.10351562 C4.06503936 51.86893914 5.06110606 65.59643114 6.5 79.3125 C6.61851318 80.45702637 6.73702637 81.60155273 6.85913086 82.78076172 C8.97532742 102.02335281 15.08889443 118.02269197 28.49609375 132.3203125 C30 134 30 134 30 135 C25.05 135 20.1 135 15 135 C15 130.05 15 125.1 15 120 C10.05 120 5.1 120 0 120 C0 80.4 0 40.8 0 0 Z " fill="#E3E3E3" transform="translate(0,240)"/>
<path d="M0 0 C14.19 0 28.38 0 43 0 C38.45206186 11.36984536 28.1574665 22.67545364 17 28 C16.34 28 15.68 28 15 28 C15 23.71 15 19.42 15 15 C10.05 15 5.1 15 0 15 C0 10.05 0 5.1 0 0 Z " fill="#E7E7E7" transform="translate(195,285)"/>
<path d="M0 0 C4.95 0 9.9 0 15 0 C15 4.95 15 9.9 15 15 C18.3 15 21.6 15 25 15 C25 52.95 25 90.9 25 130 C24.67 130 24.34 130 24 130 C23.95512451 129.04786621 23.91024902 128.09573242 23.86401367 127.11474609 C22.76357615 104.02337455 21.31600863 80.9843125 19.33496094 57.95117188 C19.05163331 54.60906225 18.79019901 51.26650416 18.5390625 47.921875 C17.05403698 29.57195657 10.39347724 15.09528837 0 0 Z " fill="#E4E4E4" transform="translate(375,30)"/>
<path d="M0 0 C1.52625 1.010625 3.0525 2.02125 4.625 3.0625 C9.00075983 5.83888301 13.44484 8.40040721 18.0625 10.75 C19.14660156 11.30171875 20.23070313 11.8534375 21.34765625 12.421875 C31.92458347 16.99201254 42.38656157 18.01748406 53.75 19.0625 C55.54535323 19.23387491 57.34068175 19.40550881 59.13598633 19.57739258 C84.06048959 21.93124974 108.97745722 23.3125368 134 24 C134 24.33 134 24.66 134 25 C94.73 25 55.46 25 15 25 C15 21.7 15 18.4 15 15 C10.05 15 5.1 15 0 15 C0 10.05 0 5.1 0 0 Z " fill="#E3E3E3" transform="translate(30,375)"/>
<path d="M0 0 C0.33 0 0.66 0 1 0 C1 3.63 1 7.26 1 11 C5.95 11 10.9 11 16 11 C16 15.95 16 20.9 16 26 C11.05 26 6.1 26 1 26 C1 30.95 1 35.9 1 41 C-3.62 41 -8.24 41 -13 41 C-13 45.95 -13 50.9 -13 56 C-13.33 56 -13.66 56 -14 56 C-14.59542264 35.51305062 -12.11232438 17.30332054 0 0 Z " fill="#E6E6E6" transform="translate(104,199)"/>
<path d="M0 0 C8.25 0 16.5 0 25 0 C25 8.25 25 16.5 25 25 C16.75 25 8.5 25 0 25 C0 16.75 0 8.5 0 0 Z " fill="#E7E7E7" transform="translate(375,375)"/>
<path d="M0 0 C4.95 0 9.9 0 15 0 C14.071875 2.165625 13.14375 4.33125 12.1875 6.5625 C4.93628112 25.29966511 5.32247831 46.61349566 4.0012207 66.44091797 C3.91184486 67.7783606 3.91184486 67.7783606 3.82066345 69.14282227 C3.70976969 70.81651531 3.6007827 72.49033634 3.49415588 74.16430664 C3.2424599 77.99042735 2.92606041 81.79124003 2.47924805 85.59985352 C2.01493479 89.62076915 1.80214708 93.61240671 1.68359375 97.66015625 C1.66281265 98.33549911 1.64203156 99.01084198 1.62062073 99.70664978 C1.55619557 101.8251818 1.49674862 103.94381757 1.4375 106.0625 C1.39421245 107.5149839 1.35059526 108.96745801 1.30664062 110.41992188 C1.20062746 113.94650991 1.09907252 117.47320935 1 121 C0.67 121 0.34 121 0 121 C0 81.07 0 41.14 0 0 Z " fill="#E2E2E2" transform="translate(0,45)"/>
<path d="M0 0 C36.63 0 73.26 0 111 0 C111 0.33 111 0.66 111 1 C110.44989258 1.02870178 109.89978516 1.05740356 109.33300781 1.0869751 C74.76212646 2.88745545 74.76212646 2.88745545 40.25732422 5.64050293 C38.61171882 5.79440789 36.96555446 5.94247114 35.31884766 6.08410645 C22.60160363 7.19295442 11.87799576 10.24880169 0 15 C0 10.05 0 5.1 0 0 Z " fill="#DFDFDF" transform="translate(45,0)"/>
<path d="M0 0 C4.95 0 9.9 0 15 0 C15.96287425 13.72095808 15.96287425 13.72095808 13.4296875 17.0859375 C11.375 18.5 11.375 18.5 9.17578125 19.734375 C5.21340232 22.03924174 2.04596103 25.90807793 0 30 C-4.95 30 -9.9 30 -15 30 C-15 25.05 -15 20.1 -15 15 C-10.05 15 -5.1 15 0 15 C0 10.05 0 5.1 0 0 Z " fill="#FEFEFE" transform="translate(135,195)"/>
<path d="M0 0 C1.216875 0.103125 2.43375 0.20625 3.6875 0.3125 C3.6875 5.2625 3.6875 10.2125 3.6875 15.3125 C-1.2625 15.3125 -6.2125 15.3125 -11.3125 15.3125 C-11.3125 20.2625 -11.3125 25.2125 -11.3125 30.3125 C-16.2625 30.3125 -21.2125 30.3125 -26.3125 30.3125 C-26.3125 25.6925 -26.3125 21.0725 -26.3125 16.3125 C-27.6325 15.9825 -28.9525 15.6525 -30.3125 15.3125 C-29.466875 15.09335937 -28.62125 14.87421875 -27.75 14.6484375 C-18.95747862 12.19052811 -12.82752766 9.35478181 -6.8125 2.4375 C-4.06170046 0.09932039 -3.4400928 0.00602468 0 0 Z " fill="#E4E4E4" transform="translate(206.3125,269.6875)"/>
<path d="M0 0 C2.64 0.33 5.28 0.66 8 1 C8 5.95 8 10.9 8 16 C3.05 16 -1.9 16 -7 16 C-7 20.95 -7 25.9 -7 31 C-11.95 31 -16.9 31 -22 31 C-22.33 28.36 -22.66 25.72 -23 23 C-22.31035156 22.53851563 -21.62070312 22.07703125 -20.91015625 21.6015625 C-12.36621802 15.67120208 -5.17851734 9.11095394 0 0 Z " fill="#E5E5E5" transform="translate(382,359)"/>
<path d="M0 0 C0.66 0.70125 1.32 1.4025 2 2.125 C11.95919124 11.94548384 22.95872696 16.72614538 37 17 C37 17.33 37 17.66 37 18 C34.36 18 31.72 18 29 18 C29 22.29 29 26.58 29 31 C24.05 31 19.1 31 14 31 C14 26.05 14 21.1 14 16 C9.05 16 4.1 16 -1 16 C-1.125 3.375 -1.125 3.375 0 0 Z " fill="#E6E6E6" transform="translate(136,269)"/>
<path d="M0 0 C4.95 0 9.9 0 15 0 C15.495 6.93 15.495 6.93 16 14 C13.3594848 15.30358385 10.71338755 16.59281339 8.0625 17.875 C7.32708984 18.23980469 6.59167969 18.60460937 5.83398438 18.98046875 C-0.76747401 22.15147496 -7.57757213 24.47886631 -15 24 C-15 21.03 -15 18.06 -15 15 C-10.05 15 -5.1 15 0 15 C0 10.05 0 5.1 0 0 Z " fill="#E6E6E6" transform="translate(195,300)"/>
<path d="M0 0 C2.97 0 5.94 0 9 0 C7.20783638 11.28008865 3.8395808 20.66684099 -1 31 C-7.93 30.505 -7.93 30.505 -15 30 C-15 25.05 -15 20.1 -15 15 C-10.05 15 -5.1 15 0 15 C0 10.05 0 5.1 0 0 Z " fill="#E5E5E5" transform="translate(240,255)"/>
<path d="M0 0 C1.52625 1.010625 3.0525 2.02125 4.625 3.0625 C13.22804879 8.53110466 22.0906728 13.42206589 32 16 C31.34 16.33 30.68 16.66 30 17 C30 19.64 30 22.28 30 25 C25.05 25 20.1 25 15 25 C15 21.7 15 18.4 15 15 C10.05 15 5.1 15 0 15 C0 10.05 0 5.1 0 0 Z " fill="#E5E5E5" transform="translate(30,375)"/>
<path d="M0 0 C33.66 0 67.32 0 102 0 C102 2.31 102 4.62 102 7 C92.70409426 6.56868813 83.44745727 5.99587633 74.1875 5.0625 C49.48527165 2.62126823 24.80308396 1.55982738 0 1 C0 0.67 0 0.34 0 0 Z " fill="#D7D7D7" transform="translate(228,0)"/>
<path d="M0 0 C0 2.31 0 4.62 0 7 C-29.7 7 -59.4 7 -90 7 C-90 6.67 -90 6.34 -90 6 C-89.23817413 5.95432892 -88.47634827 5.90865784 -87.69143677 5.86160278 C-80.42698499 5.42528294 -73.16282251 4.9845069 -65.89892769 4.53901863 C-62.16664334 4.31027074 -58.43427825 4.08310451 -54.70166016 3.85986328 C-33.0845804 2.61218582 -33.0845804 2.61218582 -11.55419922 0.36279297 C-7.65903694 -0.03480362 -3.91258934 -0.05997755 0 0 Z " fill="#E7E6E7" transform="translate(330,393)"/>
<path d="M0 0 C0.33 0 0.66 0 1 0 C1 29.7 1 59.4 1 90 C-1.31 90 -3.62 90 -6 90 C-5.45075593 79.0804858 -4.72794293 68.19773303 -3.7562561 57.3079834 C-2.0627224 38.22752141 -0.95172527 19.13019053 0 0 Z " fill="#DDDCDD" transform="translate(399,240)"/>
<path d="M0 0 C0.33 0 0.66 0 1 0 C1.0501123 0.87285645 1.10022461 1.74571289 1.15185547 2.64501953 C2.8305474 31.7842184 4.68741469 60.90306653 7 90 C4.69 90 2.38 90 0 90 C0 60.3 0 30.6 0 0 Z " fill="#E7E7E7" transform="translate(0,240)"/>
<path d="M0 0 C7.59 0 15.18 0 23 0 C23 12.87 23 25.74 23 39 C19.7 39 16.4 39 13 39 C13 36.03 13 33.06 13 30 C15.97 30 18.94 30 22 30 C22 25.05 22 20.1 22 15 C19.03 15 16.06 15 13 15 C13 10.38 13 5.76 13 1 C8.71 1 4.42 1 0 1 C0 0.67 0 0.34 0 0 Z " fill="#D9D9D9" transform="translate(287,135)"/>
<path d="M0 0 C4.29 0 8.58 0 13 0 C8.45206186 11.36984536 -1.8425335 22.67545364 -13 28 C-13.66 28 -14.32 28 -15 28 C-15 23.71 -15 19.42 -15 15 C-10.05 15 -5.1 15 0 15 C0 10.05 0 5.1 0 0 Z " fill="#FAFAFA" transform="translate(225,285)"/>
<path d="M0 0 C1.8313116 5.48036953 0.5065431 11.37174337 0 17 C-4.95 17 -9.9 17 -15 17 C-15 12.05 -15 7.1 -15 2 C-10.05 2 -5.1 2 0 2 C0 1.34 0 0.68 0 0 Z " fill="#FEFEFE" transform="translate(135,268)"/>
<path d="M0 0 C4.95 0 9.9 0 15 0 C15 4.95 15 9.9 15 15 C10.05 15 5.1 15 0 15 C0 10.05 0 5.1 0 0 Z " fill="#FEFEFE" transform="translate(375,375)"/>
<path d="M0 0 C4.95 0 9.9 0 15 0 C15 4.95 15 9.9 15 15 C10.05 15 5.1 15 0 15 C0 10.05 0 5.1 0 0 Z " fill="#FEFEFE" transform="translate(15,375)"/>
<path d="M0 0 C4.95 0 9.9 0 15 0 C15 4.95 15 9.9 15 15 C10.05 15 5.1 15 0 15 C0 10.05 0 5.1 0 0 Z " fill="#FEFEFE" transform="translate(0,360)"/>
<path d="M0 0 C4.95 0 9.9 0 15 0 C15 4.95 15 9.9 15 15 C10.05 15 5.1 15 0 15 C0 10.05 0 5.1 0 0 Z " fill="#FEFEFE" transform="translate(180,300)"/>
<path d="M0 0 C4.95 0 9.9 0 15 0 C15 4.95 15 9.9 15 15 C10.05 15 5.1 15 0 15 C0 10.05 0 5.1 0 0 Z " fill="#FEFEFE" transform="translate(150,300)"/>
<path d="M0 0 C4.95 0 9.9 0 15 0 C15 4.95 15 9.9 15 15 C10.05 15 5.1 15 0 15 C0 10.05 0 5.1 0 0 Z " fill="#E7E7E7" transform="translate(135,300)"/>
<path d="M0 0 C4.95 0 9.9 0 15 0 C15 4.95 15 9.9 15 15 C10.05 15 5.1 15 0 15 C0 10.05 0 5.1 0 0 Z " fill="#FEFEFE" transform="translate(195,285)"/>
<path d="M0 0 C4.95 0 9.9 0 15 0 C15 4.95 15 9.9 15 15 C10.05 15 5.1 15 0 15 C0 10.05 0 5.1 0 0 Z " fill="#FEFEFE" transform="translate(135,285)"/>
<path d="M0 0 C4.95 0 9.9 0 15 0 C15 4.95 15 9.9 15 15 C10.05 15 5.1 15 0 15 C0 10.05 0 5.1 0 0 Z " fill="#E6E6E6" transform="translate(120,285)"/>
<path d="M0 0 C4.95 0 9.9 0 15 0 C15 4.95 15 9.9 15 15 C10.05 15 5.1 15 0 15 C0 10.05 0 5.1 0 0 Z " fill="#FEFEFE" transform="translate(210,270)"/>
<path d="M0 0 C4.95 0 9.9 0 15 0 C15 4.95 15 9.9 15 15 C10.05 15 5.1 15 0 15 C0 10.05 0 5.1 0 0 Z " fill="#E7E7E7" transform="translate(105,270)"/>
<path d="M0 0 C4.95 0 9.9 0 15 0 C15 4.95 15 9.9 15 15 C10.05 15 5.1 15 0 15 C0 10.05 0 5.1 0 0 Z " fill="#FEFEFE" transform="translate(225,255)"/>
<path d="M0 0 C4.95 0 9.9 0 15 0 C15 4.95 15 9.9 15 15 C10.05 15 5.1 15 0 15 C0 10.05 0 5.1 0 0 Z " fill="#FFFFFF" transform="translate(105,255)"/>
<path d="M0 0 C4.95 0 9.9 0 15 0 C15 4.95 15 9.9 15 15 C10.05 15 5.1 15 0 15 C0 10.05 0 5.1 0 0 Z " fill="#E6E6E6" transform="translate(225,240)"/>
<path d="M0 0 C4.95 0 9.9 0 15 0 C15 4.95 15 9.9 15 15 C10.05 15 5.1 15 0 15 C0 10.05 0 5.1 0 0 Z " fill="#FEFEFE" transform="translate(225,225)"/>
<path d="M0 0 C4.95 0 9.9 0 15 0 C15 4.95 15 9.9 15 15 C10.05 15 5.1 15 0 15 C0 10.05 0 5.1 0 0 Z " fill="#FEFEFE" transform="translate(105,225)"/>
<path d="M0 0 C4.29 0.33 8.58 0.66 13 1 C13 5.95 13 10.9 13 16 C8.38 16 3.76 16 -1 16 C-1 20.95 -1 25.9 -1 31 C-1.33 31 -1.66 31 -2 31 C-2.19934866 20.41237126 -2.16599651 10.42385819 0 0 Z " fill="#E1E1E1" transform="translate(92,224)"/>
<path d="M0 0 C4.95 0 9.9 0 15 0 C15 4.95 15 9.9 15 15 C10.05 15 5.1 15 0 15 C0 10.05 0 5.1 0 0 Z " fill="#E7E7E7" transform="translate(225,210)"/>
<path d="M0 0 C4.95 0 9.9 0 15 0 C15 4.95 15 9.9 15 15 C10.05 15 5.1 15 0 15 C0 10.05 0 5.1 0 0 Z " fill="#FEFEFE" transform="translate(120,210)"/>
<path d="M0 0 C4.95 0 9.9 0 15 0 C15 4.95 15 9.9 15 15 C10.05 15 5.1 15 0 15 C0 10.05 0 5.1 0 0 Z " fill="#FEFEFE" transform="translate(225,195)"/>
<path d="M0 0 C4.95 0 9.9 0 15 0 C15 4.95 15 9.9 15 15 C10.05 15 5.1 15 0 15 C0 10.05 0 5.1 0 0 Z " fill="#E7E7E7" transform="translate(120,195)"/>
<path d="M0 0 C4.95 0 9.9 0 15 0 C15 4.95 15 9.9 15 15 C10.05 15 5.1 15 0 15 C0 10.05 0 5.1 0 0 Z " fill="#E6E6E6" transform="translate(225,180)"/>
<path d="M0 0 C4.95 0 9.9 0 15 0 C15 4.95 15 9.9 15 15 C10.05 15 5.1 15 0 15 C0 10.05 0 5.1 0 0 Z " fill="#E7E7E7" transform="translate(165,180)"/>
<path d="M0 0 C4.95 0 9.9 0 15 0 C15 4.95 15 9.9 15 15 C10.05 15 5.1 15 0 15 C0 10.05 0 5.1 0 0 Z " fill="#FEFEFE" transform="translate(150,180)"/>
<path d="M0 0 C4.95 0 9.9 0 15 0 C15 4.95 15 9.9 15 15 C10.05 15 5.1 15 0 15 C0 10.05 0 5.1 0 0 Z " fill="#E6E6E6" transform="translate(135,180)"/>
<path d="M0 0 C0.66 0.33 1.32 0.66 2 1 C1.67 30.04 1.34 59.08 1 89 C0.67 89 0.34 89 0 89 C0 65.24 0 41.48 0 17 C-2.97 17 -5.94 17 -9 17 C-9 12.05 -9 7.1 -9 2 C-6.03 2 -3.06 2 0 2 C0 1.34 0 0.68 0 0 Z " fill="#C2C2C2" transform="translate(249,163)"/>
<path d="M0 0 C4.95 0 9.9 0 15 0 C15 4.95 15 9.9 15 15 C10.05 15 5.1 15 0 15 C0 10.05 0 5.1 0 0 Z " fill="#FEFEFE" transform="translate(225,165)"/>
<path d="M0 0 C4.95 0 9.9 0 15 0 C15 4.95 15 9.9 15 15 C10.05 15 5.1 15 0 15 C0 10.05 0 5.1 0 0 Z " fill="#FEFEFE" transform="translate(270,150)"/>
<path d="M0 0 C4.95 0 9.9 0 15 0 C15 4.95 15 9.9 15 15 C10.05 15 5.1 15 0 15 C0 10.05 0 5.1 0 0 Z " fill="#FEFEFE" transform="translate(255,135)"/>
<path d="M0 0 C4.95 0 9.9 0 15 0 C15 4.95 15 9.9 15 15 C10.05 15 5.1 15 0 15 C0 10.05 0 5.1 0 0 Z " fill="#E6E6E6" transform="translate(240,135)"/>
<path d="M0 0 C4.95 0 9.9 0 15 0 C15 4.95 15 9.9 15 15 C10.05 15 5.1 15 0 15 C0 10.05 0 5.1 0 0 Z " fill="#FEFEFE" transform="translate(225,135)"/>
<path d="M0 0 C4.95 0 9.9 0 15 0 C15 4.95 15 9.9 15 15 C10.05 15 5.1 15 0 15 C0 10.05 0 5.1 0 0 Z " fill="#FEFEFE" transform="translate(240,120)"/>
<path d="M0 0 C4.95 0 9.9 0 15 0 C15 4.95 15 9.9 15 15 C10.05 15 5.1 15 0 15 C0 10.05 0 5.1 0 0 Z " fill="#E6E6E6" transform="translate(225,120)"/>
<path d="M0 0 C4.95 0 9.9 0 15 0 C15 4.95 15 9.9 15 15 C10.05 15 5.1 15 0 15 C0 10.05 0 5.1 0 0 Z " fill="#FEFEFE" transform="translate(225,105)"/>
<path d="M0 0 C4.95 0 9.9 0 15 0 C15 4.95 15 9.9 15 15 C10.05 15 5.1 15 0 15 C0 10.05 0 5.1 0 0 Z " fill="#FEFEFE" transform="translate(0,30)"/>
<path d="M0 0 C4.95 0 9.9 0 15 0 C15 4.95 15 9.9 15 15 C10.05 15 5.1 15 0 15 C0 10.05 0 5.1 0 0 Z " fill="#FEFEFE" transform="translate(375,15)"/>
<path d="M0 0 C4.95 0 9.9 0 15 0 C15 4.95 15 9.9 15 15 C10.05 15 5.1 15 0 15 C0 10.05 0 5.1 0 0 Z " fill="#E6E6E6" transform="translate(0,15)"/>
<path d="M0 0 C4.95 0 9.9 0 15 0 C15 4.95 15 9.9 15 15 C10.05 15 5.1 15 0 15 C0 10.05 0 5.1 0 0 Z " fill="#FEFEFE" transform="translate(360,0)"/>
<path d="M0 0 C4.95 0 9.9 0 15 0 C15 4.95 15 9.9 15 15 C10.05 15 5.1 15 0 15 C0 10.05 0 5.1 0 0 Z " fill="#FEFEFE" transform="translate(30,0)"/>
<path d="M0 0 C4.95 0 9.9 0 15 0 C15 4.95 15 9.9 15 15 C10.05 15 5.1 15 0 15 C0 10.05 0 5.1 0 0 Z " fill="#FEFEFE" transform="translate(0,0)"/>
<path d="M0 0 C4.95 0 9.9 0 15 0 C15 4.95 15 9.9 15 15 C11 14 11 14 9 13 C9 13.66 9 14.32 9 15 C6.03 15 3.06 15 0 15 C0 10.05 0 5.1 0 0 Z " fill="#FDFDFD" transform="translate(240,150)"/>
<path d="M0 0 C0 4.95 0 9.9 0 15 C-4.95 15 -9.9 15 -15 15 C-15.49216483 3.55716773 -15.49216483 3.55716773 -13.34375 1.125 C-9.03722468 -0.94213215 -4.69941622 -0.16783629 0 0 Z " fill="#FEFEFE" transform="translate(120,195)"/>
<path d="M0 0 C4.62 0 9.24 0 14 0 C14 4.95 14 9.9 14 15 C9.05 15 4.1 15 -1 15 C-0.67 10.05 -0.34 5.1 0 0 Z " fill="#FEFEFE" transform="translate(211,240)"/>
<path d="M0 0 C4.62 0 9.24 0 14 0 C14 4.95 14 9.9 14 15 C9.38 15 4.76 15 0 15 C0 10.05 0 5.1 0 0 Z " fill="#FEFEFE" transform="translate(91,240)"/>
<path d="M0 0 C4.62 0 9.24 0 14 0 C14 4.95 14 9.9 14 15 C9.38 15 4.76 15 0 15 C0 10.05 0 5.1 0 0 Z " fill="#E5E5E5" transform="translate(211,225)"/>
<path d="M0 0 C4.62 0 9.24 0 14 0 C14 4.95 14 9.9 14 15 C9.38 15 4.76 15 0 15 C0 10.05 0 5.1 0 0 Z " fill="#FEFEFE" transform="translate(211,210)"/>
<path d="M0 0 C4.62 0 9.24 0 14 0 C14 4.95 14 9.9 14 15 C9.38 15 4.76 15 0 15 C0 10.05 0 5.1 0 0 Z " fill="#E7E7E7" transform="translate(211,195)"/>
<path d="M0 0 C4.62 0 9.24 0 14 0 C14 4.95 14 9.9 14 15 C9.38 15 4.76 15 0 15 C0 10.05 0 5.1 0 0 Z " fill="#FEFEFE" transform="translate(211,180)"/>
<path d="M0 0 C4.95 0 9.9 0 15 0 C15 4.62 15 9.24 15 14 C10.05 14 5.1 14 0 14 C0 9.38 0 4.76 0 0 Z " fill="#FEFEFE" transform="translate(165,166)"/>
<path d="M0 0 C4.62 0 9.24 0 14 0 C14 4.95 14 9.9 14 15 C9.38 15 4.76 15 0 15 C0 10.05 0 5.1 0 0 Z " fill="#E6E6E6" transform="translate(211,165)"/>
<path d="M0 0 C4.62 0 9.24 0 14 0 C14 4.95 14 9.9 14 15 C9.38 15 4.76 15 0 15 C0 10.05 0 5.1 0 0 Z " fill="#FEFEFE" transform="translate(211,150)"/>
<path d="M0 0 C4.95 0 9.9 0 15 0 C15 4.62 15 9.24 15 14 C10.05 14 5.1 14 0 14 C0 9.38 0 4.76 0 0 Z " fill="#FEFEFE" transform="translate(285,136)"/>
<path d="M0 0 C4.62 0 9.24 0 14 0 C14 4.95 14 9.9 14 15 C9.38 15 4.76 15 0 15 C0 10.05 0 5.1 0 0 Z " fill="#E7E7E7" transform="translate(211,135)"/>
<path d="M0 0 C4.62 0 9.24 0 14 0 C14 4.95 14 9.9 14 15 C9.38 15 4.76 15 0 15 C0 10.05 0 5.1 0 0 Z " fill="#FEFEFE" transform="translate(211,120)"/>
<path d="M0 0 C4.62 0 9.24 0 14 0 C14 4.95 14 9.9 14 15 C9.38 15 4.76 15 0 15 C0 10.05 0 5.1 0 0 Z " fill="#E7E7E7" transform="translate(211,105)"/>
<path d="M0 0 C4.62 0 9.24 0 14 0 C14 4.95 14 9.9 14 15 C9.38 15 4.76 15 0 15 C0 10.05 0 5.1 0 0 Z " fill="#FEFEFE" transform="translate(211,90)"/>
<path d="M0 0 C4.62 0 9.24 0 14 0 C14 4.95 14 9.9 14 15 C9.38 15 4.76 15 0 15 C0 10.05 0 5.1 0 0 Z " fill="#E5E5E5" transform="translate(211,75)"/>
<path d="M0 0 C0 4.62 0 9.24 0 14 C-4.95 14 -9.9 14 -15 14 C-15 9.71 -15 5.42 -15 1 C-9.81850771 0.27277301 -5.31964249 0 0 0 Z " fill="#FEFEFE" transform="translate(180,286)"/>
<path d="M0 0 C0 4.62 0 9.24 0 14 C-4.95 14 -9.9 14 -15 14 C-15 10.37 -15 6.74 -15 3 C-15.99 2.67 -16.98 2.34 -18 2 C-16.12612523 1.6603981 -14.25083303 1.32861309 -12.375 1 C-11.33085937 0.814375 -10.28671875 0.62875 -9.2109375 0.4375 C-6 0 -6 0 0 0 Z " fill="#E4E4E4" transform="translate(165,166)"/>
<path d="M0 0 C1.5452838 2.97969522 2.83630718 6.00123882 4.0625 9.125 C5.42914968 12.60811637 5.42914968 12.60811637 7 16 C6.67 16.66 6.34 17.32 6 18 C1.05 18 -3.9 18 -9 18 C-9 13.05 -9 8.1 -9 3 C-6.03 3 -3.06 3 0 3 C0 2.01 0 1.02 0 0 Z " fill="#E3E3E3" transform="translate(129,252)"/>
<path d="M0 0 C4.62 0 9.24 0 14 0 C14 4.95 14 9.9 14 15 C10.37 15.33 6.74 15.66 3 16 C0 5.625 0 5.625 0 0 Z " fill="#E5E5E5" transform="translate(91,255)"/>
<path d="M0 0 C0.33 0 0.66 0 1 0 C1 8.58 1 17.16 1 26 C-2.96 26 -6.92 26 -11 26 C-10.50377075 20.16739776 -8.77698522 15.90031531 -6.0625 10.75 C-5.70220703 10.04359375 -5.34191406 9.3371875 -4.97070312 8.609375 C-3.43020355 5.61348633 -1.87295112 2.80942668 0 0 Z " fill="#F8F8F8" transform="translate(104,199)"/>
<path d="M0 0 C4.95 0 9.9 0 15 0 C15.33 2.97 15.66 5.94 16 9 C13.89615302 9.81332743 11.79191143 10.62563417 9.6875 11.4375 C7.92986328 12.11619141 7.92986328 12.11619141 6.13671875 12.80859375 C4.10617185 13.57984755 2.06062074 14.31312642 0 15 C0 10.05 0 5.1 0 0 Z " fill="#E3E3E3" transform="translate(45,0)"/>
<path d="M0 0 C4.95 0 9.9 0 15 0 C15 2.97 15 5.94 15 9 C12.8765984 9.83739781 10.7512272 10.66980283 8.625 11.5 C7.44164062 11.9640625 6.25828125 12.428125 5.0390625 12.90625 C2 14 2 14 0 14 C0 9.38 0 4.76 0 0 Z " fill="#E5E5E5" transform="translate(150,195)"/>
<path d="M0 0 C4.62 0 9.24 0 14 0 C12.35 4.95 10.7 9.9 9 15 C6.03 15 3.06 15 0 15 C0 10.05 0 5.1 0 0 Z " fill="#E4E4E4" transform="translate(120,225)"/>
<path d="M0 0 C3.3 0 6.6 0 10 0 C10 7.92 10 15.84 10 24 C9.67 24 9.34 24 9 24 C9 21.03 9 18.06 9 15 C6.03 15 3.06 15 0 15 C0 10.05 0 5.1 0 0 Z " fill="#DBDBDB" transform="translate(240,75)"/>
<path d="M0 0 C4.95 0 9.9 0 15 0 C15 3.3 15 6.6 15 10 C10.05 10 5.1 10 0 10 C0 6.7 0 3.4 0 0 Z " fill="#FEFEFE" transform="translate(360,390)"/>
<path d="M0 0 C4.95 0 9.9 0 15 0 C15 3.3 15 6.6 15 10 C10.05 10 5.1 10 0 10 C0 6.7 0 3.4 0 0 Z " fill="#FEFEFE" transform="translate(30,390)"/>
<path d="M0 0 C4.95 0 9.9 0 15 0 C15 3.3 15 6.6 15 10 C10.05 10 5.1 10 0 10 C0 6.7 0 3.4 0 0 Z " fill="#E6E6E6" transform="translate(15,390)"/>
<path d="M0 0 C4.95 0 9.9 0 15 0 C15 3.3 15 6.6 15 10 C10.05 10 5.1 10 0 10 C0 6.7 0 3.4 0 0 Z " fill="#FEFEFE" transform="translate(0,390)"/>
<path d="M0 0 C3.3 0 6.6 0 10 0 C10 4.95 10 9.9 10 15 C6.7 15 3.4 15 0 15 C0 10.05 0 5.1 0 0 Z " fill="#E6E6E6" transform="translate(390,375)"/>
<path d="M0 0 C3.3 0 6.6 0 10 0 C10 4.95 10 9.9 10 15 C6.7 15 3.4 15 0 15 C0 10.05 0 5.1 0 0 Z " fill="#FEFEFE" transform="translate(390,360)"/>
<path d="M0 0 C3.3 0 6.6 0 10 0 C10 4.95 10 9.9 10 15 C6.7 15 3.4 15 0 15 C0 10.05 0 5.1 0 0 Z " fill="#FEFEFE" transform="translate(390,30)"/>
<path d="M0 0 C3.3 0 6.6 0 10 0 C10 4.95 10 9.9 10 15 C6.7 15 3.4 15 0 15 C0 10.05 0 5.1 0 0 Z " fill="#E7E7E7" transform="translate(390,15)"/>
<path d="M0 0 C3.3 0 6.6 0 10 0 C10 4.95 10 9.9 10 15 C6.7 15 3.4 15 0 15 C0 10.05 0 5.1 0 0 Z " fill="#FEFEFE" transform="translate(390,0)"/>
<path d="M0 0 C4.95 0 9.9 0 15 0 C15 2.97 15 5.94 15 9 C19.29 9 23.58 9 28 9 C28 9.33 28 9.66 28 10 C24.83351345 10.08820927 21.66734908 10.1407905 18.5 10.1875 C17.613125 10.21263672 16.72625 10.23777344 15.8125 10.26367188 C9.81673298 10.32980166 5.48495762 9.44131875 0 7 C0 4.69 0 2.38 0 0 Z " fill="#DDDDDD" transform="translate(150,315)"/>
<path d="M0 0 C11.11607143 6.96428571 11.11607143 6.96428571 16 11 C15.67 12.32 15.34 13.64 15 15 C10.05 15 5.1 15 0 15 C0 10.05 0 5.1 0 0 Z " fill="#E1E1E1" transform="translate(30,375)"/>
<path d="M0 0 C4.95 0 9.9 0 15 0 C15 4.95 15 9.9 15 15 C13.35 15.33 11.7 15.66 10 16 C9.61328125 15.34773438 9.2265625 14.69546875 8.828125 14.0234375 C8.30734375 13.14945313 7.7865625 12.27546875 7.25 11.375 C6.48429687 10.08722656 6.48429687 10.08722656 5.703125 8.7734375 C3.87784733 5.80108166 1.9348256 2.9022384 0 0 Z " fill="#E3E3E3" transform="translate(375,30)"/>
<path d="M0 0 C2.97 0 5.94 0 9 0 C9.33 4.95 9.66 9.9 10 15 C6.7 15 3.4 15 0 15 C0 10.05 0 5.1 0 0 Z " fill="#FEFEFE" transform="translate(240,90)"/>
<path d="M0 0 C4.95 0 9.9 0 15 0 C15 2.97 15 5.94 15 9 C10.05 9 5.1 9 0 9 C0 6.03 0 3.06 0 0 Z " fill="#FEFEFE" transform="translate(165,315)"/>
<path d="M0 0 C2.97 0 5.94 0 9 0 C9 4.95 9 9.9 9 15 C6.03 15 3.06 15 0 15 C0 10.05 0 5.1 0 0 Z " fill="#FEFEFE" transform="translate(240,240)"/>
<path d="M0 0 C2.97 0 5.94 0 9 0 C9 4.95 9 9.9 9 15 C6.03 15 3.06 15 0 15 C0 10.05 0 5.1 0 0 Z " fill="#FDFDFD" transform="translate(120,240)"/>
<path d="M0 0 C2.97 0 5.94 0 9 0 C9 4.95 9 9.9 9 15 C6.03 15 3.06 15 0 15 C0 10.05 0 5.1 0 0 Z " fill="#E6E6E6" transform="translate(240,225)"/>
<path d="M0 0 C2.97 0 5.94 0 9 0 C9 4.95 9 9.9 9 15 C6.03 15 3.06 15 0 15 C0 10.05 0 5.1 0 0 Z " fill="#FEFEFE" transform="translate(240,210)"/>
<path d="M0 0 C4.95 0 9.9 0 15 0 C15 2.97 15 5.94 15 9 C10.05 9 5.1 9 0 9 C0 6.03 0 3.06 0 0 Z " fill="#FEFEFE" transform="translate(165,195)"/>
<path d="M0 0 C2.97 0 5.94 0 9 0 C9 4.95 9 9.9 9 15 C6.03 15 3.06 15 0 15 C0 10.05 0 5.1 0 0 Z " fill="#FEFEFE" transform="translate(240,180)"/>
<path d="M0 0 C4.95 0 9.9 0 15 0 C15 2.97 15 5.94 15 9 C10.05 9 5.1 9 0 9 C0 6.03 0 3.06 0 0 Z " fill="#FEFEFE" transform="translate(285,165)"/>
<path d="M0 0 C2.97 0 5.94 0 9 0 C9 4.95 9 9.9 9 15 C6.03 15 3.06 15 0 15 C0 10.05 0 5.1 0 0 Z " fill="#FEFEFE" transform="translate(300,150)"/>
<path d="M0 0 C0.56203125 0.71671875 1.1240625 1.4334375 1.703125 2.171875 C4.71548788 5.88097487 7.94308143 9.37019846 11.171875 12.890625 C13 15 13 15 13 16 C8.05 16 3.1 16 -2 16 C-2 11.05 -2 6.1 -2 1 C-1.34 0.67 -0.68 0.34 0 0 Z " fill="#E0E0E0" transform="translate(17,359)"/>
<path d="M0 0 C0 3.3 0 6.6 0 10 C-4.95 10 -9.9 10 -15 10 C-15 7.69 -15 5.38 -15 3 C-13.25183142 2.49363393 -11.50137737 1.99515381 -9.75 1.5 C-8.77546875 1.2215625 -7.8009375 0.943125 -6.796875 0.65625 C-4 0 -4 0 0 0 Z " fill="#F8F8F8" transform="translate(345,390)"/>
<path d="M0 0 C4.95 0 9.9 0 15 0 C15 4.95 15 9.9 15 15 C14.030625 14.13375 13.06125 13.2675 12.0625 12.375 C7.96449858 8.84803156 3.54914461 5.90897683 -1 3 C-0.67 2.01 -0.34 1.02 0 0 Z " fill="#E2E2E2" transform="translate(360,15)"/>
<path d="M0 0 C2.31 0 4.62 0 7 0 C7 4.95 7 9.9 7 15 C3.7 15 0.4 15 -3 15 C-2.35812082 9.86496656 -1.31727753 5.0056546 0 0 Z " fill="#F9F9F9" transform="translate(393,330)"/>
<path d="M0 0 C2.31 0 4.62 0 7 0 C7.50636607 1.74816858 8.00484619 3.49862263 8.5 5.25 C8.7784375 6.22453125 9.056875 7.1990625 9.34375 8.203125 C10 11 10 11 10 15 C6.7 15 3.4 15 0 15 C0 10.05 0 5.1 0 0 Z " fill="#F8F8F8" transform="translate(0,330)"/>
<path d="M0 0 C4.95 0 9.9 0 15 0 C15 3.3 15 6.6 15 10 C9.94468132 9.22225866 4.98283716 8.14051606 0 7 C0 4.69 0 2.38 0 0 Z " fill="#F9F9F9" transform="translate(330,0)"/>
<path d="M0 0 C2.97 0 5.94 0 9 0 C9 4.62 9 9.24 9 14 C6.03 14 3.06 14 0 14 C0 9.38 0 4.76 0 0 Z " fill="#E6E6E6" transform="translate(180,166)"/>
<path d="M0 0 C21.78 0 43.56 0 66 0 C66.495 0.99 66.495 0.99 67 2 C69.01669827 3.13350534 69.01669827 3.13350534 71 4 C67.08315704 3.85868467 63.16657319 3.71109026 59.25 3.5625 C58.15816406 3.52318359 57.06632812 3.48386719 55.94140625 3.44335938 C50.70601792 3.24199829 45.49883092 2.98089752 40.28125 2.5 C32.28471998 1.79360907 24.27166895 1.64446176 16.25 1.4375 C14.66665829 1.39418522 13.08332485 1.35056744 11.5 1.30664062 C7.66675271 1.20094127 3.83341776 1.0993163 0 1 C0 0.67 0 0.34 0 0 Z " fill="#CACACA" transform="translate(228,0)"/>
<path d="M0 0 C4.95 0 9.9 0 15 0 C15 2.97 15 5.94 15 9 C9.36718401 9.2396943 4.45461169 8.38529821 -1 7 C-0.67 4.69 -0.34 2.38 0 0 Z " fill="#DEDEDE" transform="translate(270,165)"/>
<path d="M0 0 C4.95 0 9.9 0 15 0 C15.33 1.98 15.66 3.96 16 6 C14.27318563 6.50806447 12.54342021 7.00610467 10.8125 7.5 C9.36810547 7.91765625 9.36810547 7.91765625 7.89453125 8.34375 C5.14654124 8.96677608 2.80401584 9.12302812 0 9 C0 6.03 0 3.06 0 0 Z " fill="#E0E0E0" transform="translate(180,315)"/>
<path d="M0 0 C1.32 0 2.64 0 4 0 C3.85908107 3.31272776 3.71134606 6.62511971 3.5625 9.9375 C3.52318359 10.86369141 3.48386719 11.78988281 3.44335938 12.74414062 C3.25311313 16.91492373 3.02774688 21.04485942 2.5 25.1875 C1.67327541 32.10929217 1.632203 39.10007965 1.4375 46.0625 C1.39421245 47.5149839 1.35059526 48.96745801 1.30664062 50.41992188 C1.20062746 53.94650991 1.09907252 57.47320935 1 61 C0.67 61 0.34 61 0 61 C0 40.87 0 20.74 0 0 Z " fill="#DEDEDE" transform="translate(0,105)"/>
<path d="M0 0 C2.97 0 5.94 0 9 0 C8.68806536 1.72926874 8.37542638 3.45841044 8.0625 5.1875 C7.88847656 6.15042969 7.71445313 7.11335938 7.53515625 8.10546875 C7.0476265 10.74239972 6.53328895 13.3719905 6 16 C3.03 15.505 3.03 15.505 0 15 C0 10.05 0 5.1 0 0 Z " fill="#E1E1E1" transform="translate(240,255)"/>
<path d="M0 0 C4.95 0.33 9.9 0.66 15 1 C15 3.31 15 5.62 15 8 C10.05 8 5.1 8 0 8 C0 5.36 0 2.72 0 0 Z " fill="#FBFBFB" transform="translate(60,392)"/>
<path d="M0 0 C2.64 0 5.28 0 8 0 C8 4.95 8 9.9 8 15 C5.69 15 3.38 15 1 15 C0.67 10.05 0.34 5.1 0 0 Z " fill="#FAFAFA" transform="translate(392,60)"/>
<path d="M0 0 C16.83 0 33.66 0 51 0 C51 0.33 51 0.66 51 1 C33.97871186 2.29097415 17.08275643 3.33939251 0 3 C0 2.01 0 1.02 0 0 Z " fill="#D8D8D8" transform="translate(105,0)"/>
<path d="M0 0 C2.64 0 5.28 0 8 0 C7.85879286 1.93784265 7.71187127 3.87526955 7.5625 5.8125 C7.48128906 6.89144531 7.40007813 7.97039062 7.31640625 9.08203125 C7 12 7 12 6 15 C4.02 15 2.04 15 0 15 C0 10.05 0 5.1 0 0 Z " fill="#FCFCFC" transform="translate(0,60)"/>
<path d="M0 0 C1.32 0 2.64 0 4 0 C4 18.15 4 36.3 4 55 C3.67 55 3.34 55 3 55 C2.91697632 53.4068396 2.91697632 53.4068396 2.83227539 51.78149414 C2.62222976 47.75379516 2.41143476 43.72613566 2.20043945 39.69848633 C2.11007306 37.97160861 2.01989672 36.24472094 1.92993164 34.51782227 C1.33020603 23.00912125 0.6924657 11.50350488 0 0 Z " fill="#EBEBEB" transform="translate(396,105)"/>
<path d="M0 0 C4.95 0 9.9 0 15 0 C15 1.98 15 3.96 15 6 C13.43883181 6.33951619 11.87598662 6.67132544 10.3125 7 C9.00732422 7.2784375 9.00732422 7.2784375 7.67578125 7.5625 C5.06287036 7.98972047 2.64186962 8.07616201 0 8 C0 5.36 0 2.72 0 0 Z " fill="#FDFDFD" transform="translate(60,0)"/>
<path d="M0 0 C2.37508463 -0.02776073 4.7498251 -0.0471904 7.125 -0.0625 C8.09373047 -0.07506836 8.09373047 -0.07506836 9.08203125 -0.08789062 C14.82459821 -0.11523618 20.50292155 0.31041351 26.22705078 0.74389648 C32.60384653 1.17674615 38.98731337 1.36410444 45.375 1.5625 C46.7083414 1.60587258 48.04167481 1.64949141 49.375 1.69335938 C52.58326388 1.79797668 55.79158457 1.90015838 59 2 C59 2.33 59 2.66 59 3 C39.53 3 20.06 3 0 3 C0 2.01 0 1.02 0 0 Z " fill="#E2E2E2" transform="translate(105,397)"/>
<path d="M0 0 C0.33 0 0.66 0 1 0 C1 7.92 1 15.84 1 24 C-2.3 24 -5.6 24 -9 24 C-9 21.03 -9 18.06 -9 15 C-6.03 15 -3.06 15 0 15 C0 10.05 0 5.1 0 0 Z " fill="#E6E6E6" transform="translate(309,150)"/>
<path d="M0 0 C0 2.31 0 4.62 0 7 C-4.95 7 -9.9 7 -15 7 C-15 5.35 -15 3.7 -15 2 C-15.99 1.67 -16.98 1.34 -18 1 C-11.96445452 0.30739642 -6.07593562 -0.11251733 0 0 Z " fill="#D6D6D6" transform="translate(330,393)"/>
<path d="M0 0 C3.3 0 6.6 0 10 0 C10 3.3 10 6.6 10 10 C6.7 10 3.4 10 0 10 C0 6.7 0 3.4 0 0 Z " fill="#FEFEFE" transform="translate(390,390)"/>
<path d="M0 0 C0.33 0.99 0.66 1.98 1 3 C2.65 3 4.3 3 6 3 C6 7.95 6 12.9 6 18 C3.69 18 1.38 18 -1 18 C-0.505 9.09 -0.505 9.09 0 0 Z " fill="#DADADA" transform="translate(394,312)"/>
<path d="M0 0 C0.33 0 0.66 0 1 0 C1.33 5.94 1.66 11.88 2 18 C-0.31 18 -2.62 18 -5 18 C-5 13.05 -5 8.1 -5 3 C-3.35 3 -1.7 3 0 3 C0 2.01 0 1.02 0 0 Z " fill="#DBDBDB" transform="translate(5,312)"/>
<path d="M0 0 C2.15478516 -0.34057617 2.15478516 -0.34057617 4.7890625 -0.29296875 C5.73007812 -0.28330078 6.67109375 -0.27363281 7.640625 -0.26367188 C9.11789062 -0.2259668 9.11789062 -0.2259668 10.625 -0.1875 C12.11386719 -0.16719727 12.11386719 -0.16719727 13.6328125 -0.14648438 C16.08908072 -0.11105743 18.54427285 -0.06166196 21 0 C21 1.65 21 3.3 21 5 C13.10042938 5.27990605 5.7527507 4.51537186 -2 3 C-1.34 2.01 -0.68 1.02 0 0 Z " fill="#F7F7F7" transform="translate(294,0)"/>
<path d="M0 0 C0.66 0.33 1.32 0.66 2 1 C1.67 1.33 1.34 1.66 1 2 C0.76636119 3.84891946 0.58696365 5.70488031 0.4375 7.5625 C0.35371094 8.57441406 0.26992187 9.58632812 0.18359375 10.62890625 C0.12300781 11.41136719 0.06242187 12.19382813 0 13 C-0.77085938 13.06058594 -1.54171875 13.12117187 -2.3359375 13.18359375 C-3.33882812 13.26738281 -4.34171875 13.35117188 -5.375 13.4375 C-6.87160156 13.55931641 -6.87160156 13.55931641 -8.3984375 13.68359375 C-10.97927613 13.84965626 -10.97927613 13.84965626 -13 15 C-11.38989473 10.92623969 -8.46177729 8.23492931 -5.375 5.25 C-4.859375 4.74339844 -4.34375 4.23679688 -3.8125 3.71484375 C-2.54616661 2.47196098 -1.2736856 1.23534724 0 0 Z " fill="#E1E1E1" transform="translate(120,182)"/>
<path d="M0 0 C4.29 0 8.58 0 13 0 C12.319375 0.66 11.63875 1.32 10.9375 2 C7.93093537 4.98933503 5.19821266 8.19731946 2.453125 11.42578125 C1.97359375 11.94527344 1.4940625 12.46476563 1 13 C0.67 13 0.34 13 0 13 C0 8.71 0 4.42 0 0 Z " fill="#DEDEDE" transform="translate(135,210)"/>
<path d="M0 0 C2.97 0 5.94 0 9 0 C9 2.97 9 5.94 9 9 C6.03 9 3.06 9 0 9 C0 6.03 0 3.06 0 0 Z " fill="#E6E6E6" transform="translate(180,195)"/>
<path d="M0 0 C1.65 0 3.3 0 5 0 C5 4.95 5 9.9 5 15 C3.35 15 1.7 15 0 15 C0 10.05 0 5.1 0 0 Z " fill="#F0F0F0" transform="translate(395,300)"/>
<path d="M0 0 C0.66 0.66 1.32 1.32 2 2 C1.45730469 2.67546875 0.91460937 3.3509375 0.35546875 4.046875 C-0.35996094 4.93890625 -1.07539063 5.8309375 -1.8125 6.75 C-2.52019531 7.63171875 -3.22789063 8.5134375 -3.95703125 9.421875 C-5.67298861 11.58732788 -7.34225138 13.7896685 -9 16 C-9 11.38 -9 6.76 -9 2 C-6.03 2 -3.06 2 0 2 C0 1.34 0 0.68 0 0 Z " fill="#E2E2E2" transform="translate(24,28)"/>
<path d="M0 0 C0.98484375 0.00902344 1.9696875 0.01804687 2.984375 0.02734375 C4.10585938 0.04474609 4.10585938 0.04474609 5.25 0.0625 C5.25 1.7125 5.25 3.3625 5.25 5.0625 C0.3 5.0625 -4.65 5.0625 -9.75 5.0625 C-9.75 3.7425 -9.75 2.4225 -9.75 1.0625 C-6.43929162 0.06140485 -3.44915231 -0.04106134 0 0 Z " fill="#F8F8F8" transform="translate(309.75,394.9375)"/>
<path d="M0 0 C1.32 0 2.64 0 4 0 C5.00109515 3.31070838 5.10356134 6.30084769 5.0625 9.75 C5.05347656 10.73484375 5.04445313 11.7196875 5.03515625 12.734375 C5.02355469 13.48203125 5.01195312 14.2296875 5 15 C3.35 15 1.7 15 0 15 C0 10.05 0 5.1 0 0 Z " fill="#F7F7F7" transform="translate(0,300)"/>
<path d="M0 0 C4.62 0 9.24 0 14 0 C10.73623538 2.61101169 7.65156025 4.97509476 4.1875 7.25 C3.00220703 8.03117187 3.00220703 8.03117187 1.79296875 8.828125 C1.20128906 9.21484375 0.60960938 9.6015625 0 10 C0 6.7 0 3.4 0 0 Z " fill="#DFDFDF" transform="translate(30,15)"/>
<path d="M0 0 C0 1.32 0 2.64 0 4 C-4.95 4 -9.9 4 -15 4 C-15 3.34 -15 2.68 -15 2 C-18.63 2 -22.26 2 -26 2 C-26 1.67 -26 1.34 -26 1 C-17.32685006 0.39739901 -8.70044116 -0.1882307 0 0 Z " fill="#D0D0D0" transform="translate(300,396)"/>
<path d="M0 0 C0.33 0 0.66 0 1 0 C1.33 8.58 1.66 17.16 2 26 C0.68 26 -0.64 26 -2 26 C-2 21.05 -2 16.1 -2 11 C-1.34 11 -0.68 11 0 11 C0 7.37 0 3.74 0 0 Z " fill="#CECECE" transform="translate(2,274)"/>
<path d="M0 0 C4.95 0 9.9 0 15 0 C15 1.32 15 2.64 15 4 C10.05 4 5.1 4 0 4 C0 2.68 0 1.36 0 0 Z " fill="#FCFCFC" transform="translate(90,396)"/>
<path d="M0 0 C4.62 0 9.24 0 14 0 C14 1.98 14 3.96 14 6 C8.72250715 5.46148032 4.74354436 4.22656164 0 2 C0 1.34 0 0.68 0 0 Z " fill="#F1F1F1" transform="translate(256,165)"/>
<path d="M0 0 C1.32 0 2.64 0 4 0 C4 4.95 4 9.9 4 15 C2.68 15 1.36 15 0 15 C0 10.05 0 5.1 0 0 Z " fill="#FBFBFB" transform="translate(396,90)"/>
<path d="M0 0 C1.32 0 2.64 0 4 0 C4 4.95 4 9.9 4 15 C2.68 15 1.36 15 0 15 C0 10.05 0 5.1 0 0 Z " fill="#FAFAFA" transform="translate(0,90)"/>
<path d="M0 0 C4.95 0 9.9 0 15 0 C15 1.32 15 2.64 15 4 C10.05 4 5.1 4 0 4 C0 2.68 0 1.36 0 0 Z " fill="#FBFBFB" transform="translate(90,0)"/>
<path d="M0 0 C1.32 0 2.64 0 4 0 C3.67 6.93 3.34 13.86 3 21 C2.67 21 2.34 21 2 21 C2 19.02 2 17.04 2 15 C1.34 15 0.68 15 0 15 C0 10.05 0 5.1 0 0 Z " fill="#CACACA" transform="translate(0,105)"/>
<path d="M0 0 C1.32 0 2.64 0 4 0 C4 4.95 4 9.9 4 15 C3.34 15 2.68 15 2 15 C1.67 15.66 1.34 16.32 1 17 C0.67 11.39 0.34 5.78 0 0 Z " fill="#D4D4D4" transform="translate(396,105)"/>
<path d="M0 0 C0 2.31 0 4.62 0 7 C-3.63 7 -7.26 7 -11 7 C-10 4 -10 4 -8.22265625 2.83203125 C-7.50980469 2.49558594 -6.79695313 2.15914063 -6.0625 1.8125 C-5.35222656 1.46832031 -4.64195312 1.12414062 -3.91015625 0.76953125 C-2 0 -2 0 0 0 Z " fill="#F8F8F8" transform="translate(360,383)"/>
<path d="M0 0 C0 3.63 0 7.26 0 11 C-2.31 11 -4.62 11 -7 11 C-4.76687117 3.98159509 -4.76687117 3.98159509 -3 1 C-1 0 -1 0 0 0 Z " fill="#F8F8F8" transform="translate(390,349)"/>
<path d="M0 0 C4.95 0 9.9 0 15 0 C15 0.66 15 1.32 15 2 C16.98 2 18.96 2 21 2 C21 2.33 21 2.66 21 3 C14.07 3 7.14 3 0 3 C0 2.01 0 1.02 0 0 Z " fill="#CFCFCF" transform="translate(105,0)"/>
<path d="M0 0 C0 3.3 0 6.6 0 10 C-2.31 10 -4.62 10 -7 10 C-3.11111111 0 -3.11111111 0 0 0 Z " fill="#F4F4F4" transform="translate(210,260)"/>
<path d="M0 0 C0 2.31 0 4.62 0 7 C-3.3 7 -6.6 7 -10 7 C-9 4 -9 4 -7.1875 2.83203125 C-6.1046875 2.32736328 -6.1046875 2.32736328 -5 1.8125 C-4.278125 1.46832031 -3.55625 1.12414062 -2.8125 0.76953125 C-1 0 -1 0 0 0 Z " fill="#F3F3F3" transform="translate(195,278)"/>
<path d="M0 0 C0.33 0 0.66 0 1 0 C1 3.63 1 7.26 1 11 C-1.31 11.33 -3.62 11.66 -6 12 C-4.43358249 7.69235185 -2.31663844 3.93828536 0 0 Z " fill="#D9D9D9" transform="translate(104,199)"/>
<path d="M0 0 C0.66 0.33 1.32 0.66 2 1 C1.34 2.98 0.68 4.96 0 7 C-3.3 7 -6.6 7 -10 7 C-7.01767477 3.67356033 -4.13629913 1.70847138 0 0 Z " fill="#DFDFDF" transform="translate(135,173)"/>
<path d="M0 0 C3.63 0 7.26 0 11 0 C8.46556509 2.53443491 7.19324503 3.74205499 4 5 C2.68 5 1.36 5 0 5 C0 3.35 0 1.7 0 0 Z " fill="#F7F7F7" transform="translate(195,315)"/>
<path d="M0 0 C1.65 0 3.3 0 5 0 C4.39301257 4.12751449 2.96189209 7.3321148 1 11 C0.67 11 0.34 11 0 11 C0 7.37 0 3.74 0 0 Z " fill="#F1F1F1" transform="translate(240,270)"/>
<path d="M0 0 C2.64 0 5.28 0 8 0 C8 2.31 8 4.62 8 7 C2.25 3.375 2.25 3.375 0 0 Z " fill="#D7D7D7" transform="translate(112,300)"/>
<path d="M0 0 C3.55780196 0.60990891 6.6828589 1.5783681 10 3 C10 3.33 10 3.66 10 4 C6.7 4 3.4 4 0 4 C0 2.68 0 1.36 0 0 Z " fill="#F8F8F8" transform="translate(270,131)"/>
<path d="M0 0 C3.82097239 0.53069061 6.06171403 1.49701566 9 4 C6.03 4 3.06 4 0 4 C0 2.68 0 1.36 0 0 Z " fill="#F5F5F5" transform="translate(45,386)"/>
<path d="M0 0 C1.32 0 2.64 0 4 0 C4 2.97 4 5.94 4 9 C1.49701566 6.06171403 0.53069061 3.82097239 0 0 Z " fill="#F5F5F5" transform="translate(386,45)"/>
<path d="M0 0 C3.125 -0.1875 3.125 -0.1875 6 0 C5.67 1.32 5.34 2.64 5 4 C2.69 3.67 0.38 3.34 -2 3 C-1.34 2.01 -0.68 1.02 0 0 Z " fill="#E6E6E6" transform="translate(294,0)"/>
</svg>
